<?xml version="1.0" encoding="UTF-8" standalone="no"?>
<svg
   xmlns:dc="http://purl.org/dc/elements/1.1/"
   xmlns:cc="http://creativecommons.org/ns#"
   xmlns:rdf="http://www.w3.org/1999/02/22-rdf-syntax-ns#"
   xmlns:svg="http://www.w3.org/2000/svg"
   xmlns="http://www.w3.org/2000/svg"
   xmlns:sodipodi="http://sodipodi.sourceforge.net/DTD/sodipodi-0.dtd"
   xmlns:inkscape="http://www.inkscape.org/namespaces/inkscape"
   version="1.1"
   width="74mm"
   height="40mm"
   viewBox="0 0 279.68503 151.1811"
   id="svg278"
   sodipodi:docname="all_creatures.svg"
   inkscape:version="0.92.4 5da689c313, 2019-01-14">
  <metadata
     id="metadata284">
    <rdf:RDF>
      <cc:Work
         rdf:about="">
        <dc:format>image/svg+xml</dc:format>
        <dc:type
           rdf:resource="http://purl.org/dc/dcmitype/StillImage" />
        <dc:title></dc:title>
      </cc:Work>
    </rdf:RDF>
  </metadata>
  <defs
     id="defs282" />
  <sodipodi:namedview
     pagecolor="#ffffff"
     bordercolor="#666666"
     borderopacity="1"
     objecttolerance="10"
     gridtolerance="10"
     guidetolerance="10"
     inkscape:pageopacity="0"
     inkscape:pageshadow="2"
     inkscape:window-width="1916"
     inkscape:window-height="1027"
     id="namedview280"
     showgrid="false"
     inkscape:zoom="3.4308779"
     inkscape:cx="182.1204"
     inkscape:cy="24.359628"
     inkscape:window-x="2"
     inkscape:window-y="51"
     inkscape:window-maximized="1"
     inkscape:current-layer="svg278"
     units="mm" />
  <rect
     style="color:#000000;clip-rule:nonzero;display:inline;overflow:visible;visibility:visible;opacity:1;isolation:auto;mix-blend-mode:normal;color-interpolation:sRGB;color-interpolation-filters:linearRGB;solid-color:#000000;solid-opacity:1;vector-effect:none;fill:#000000;fill-opacity:1;fill-rule:nonzero;stroke:none;stroke-width:0.37795275;stroke-linecap:butt;stroke-linejoin:miter;stroke-miterlimit:4;stroke-dasharray:none;stroke-dashoffset:0;stroke-opacity:1;color-rendering:auto;image-rendering:auto;shape-rendering:auto;text-rendering:auto;enable-background:accumulate"
     id="rect636"
     width="282.72647"
     height="154.18794"
     x="-1.5207158"
     y="-1.5034201" />
  <path
     d=""
     id="path74"
     inkscape:connector-curvature="0"
     style="font-family:none;opacity:0;mix-blend-mode:normal;fill:none;fill-rule:nonzero;stroke:#00bb31;stroke-width:0.62622392;stroke-linecap:butt;stroke-linejoin:miter;stroke-miterlimit:10;stroke-dasharray:none;stroke-dashoffset:0" />
  <path
     d=""
     id="path78"
     inkscape:connector-curvature="0"
     style="font-family:none;opacity:0;mix-blend-mode:normal;fill:none;fill-rule:nonzero;stroke:#00bb31;stroke-width:0.62622392;stroke-linecap:butt;stroke-linejoin:miter;stroke-miterlimit:10;stroke-dasharray:none;stroke-dashoffset:0" />
  <path
     d=""
     id="path82"
     inkscape:connector-curvature="0"
     style="font-family:none;opacity:0;mix-blend-mode:normal;fill:none;fill-rule:nonzero;stroke:#00bb31;stroke-width:0.62622392;stroke-linecap:butt;stroke-linejoin:miter;stroke-miterlimit:10;stroke-dasharray:none;stroke-dashoffset:0" />
  <path
     d=""
     id="path86"
     inkscape:connector-curvature="0"
     style="font-family:none;opacity:0;mix-blend-mode:normal;fill:none;fill-rule:nonzero;stroke:#00bb31;stroke-width:0.62622392;stroke-linecap:butt;stroke-linejoin:miter;stroke-miterlimit:10;stroke-dasharray:none;stroke-dashoffset:0" />
  <path
     d=""
     id="path92"
     inkscape:connector-curvature="0"
     style="font-family:none;opacity:0;mix-blend-mode:normal;fill:none;fill-rule:nonzero;stroke:#00bb31;stroke-width:0.62622392;stroke-linecap:butt;stroke-linejoin:miter;stroke-miterlimit:10;stroke-dasharray:none;stroke-dashoffset:0" />
  <path
     d=""
     id="path94"
     inkscape:connector-curvature="0"
     style="font-family:none;mix-blend-mode:normal;fill:none;fill-rule:nonzero;stroke:none;stroke-width:0.10437066;stroke-linecap:butt;stroke-linejoin:miter;stroke-miterlimit:10;stroke-dasharray:none;stroke-dashoffset:0" />
  <path
     d=""
     id="path96"
     inkscape:connector-curvature="0"
     style="font-family:none;mix-blend-mode:normal;fill:none;fill-rule:nonzero;stroke:none;stroke-width:0.10437066;stroke-linecap:butt;stroke-linejoin:miter;stroke-miterlimit:10;stroke-dasharray:none;stroke-dashoffset:0" />
  <path
     d=""
     id="path98"
     inkscape:connector-curvature="0"
     style="font-family:none;mix-blend-mode:normal;fill:none;fill-rule:nonzero;stroke:none;stroke-width:0.10437066;stroke-linecap:butt;stroke-linejoin:miter;stroke-miterlimit:10;stroke-dasharray:none;stroke-dashoffset:0" />
  <path
     d=""
     id="path102"
     inkscape:connector-curvature="0"
     style="font-family:none;opacity:0;mix-blend-mode:normal;fill:none;fill-rule:nonzero;stroke:#00bb31;stroke-width:0.62622392;stroke-linecap:butt;stroke-linejoin:miter;stroke-miterlimit:10;stroke-dasharray:none;stroke-dashoffset:0" />
  <path
     d=""
     id="path106"
     inkscape:connector-curvature="0"
     style="font-family:none;opacity:0;mix-blend-mode:normal;fill:none;fill-rule:nonzero;stroke:#00bb31;stroke-width:0.62622392;stroke-linecap:butt;stroke-linejoin:miter;stroke-miterlimit:10;stroke-dasharray:none;stroke-dashoffset:0" />
  <path
     d=""
     id="path112"
     inkscape:connector-curvature="0"
     style="font-family:none;opacity:0;mix-blend-mode:normal;fill:none;fill-rule:nonzero;stroke:#00bb31;stroke-width:0.62622392;stroke-linecap:butt;stroke-linejoin:miter;stroke-miterlimit:10;stroke-dasharray:none;stroke-dashoffset:0" />
  <path
     d=""
     id="path116"
     inkscape:connector-curvature="0"
     style="font-family:none;opacity:0;mix-blend-mode:normal;fill:none;fill-rule:nonzero;stroke:#00bb31;stroke-width:0.62622392;stroke-linecap:butt;stroke-linejoin:miter;stroke-miterlimit:10;stroke-dasharray:none;stroke-dashoffset:0" />
  <path
     d=""
     id="path120"
     inkscape:connector-curvature="0"
     style="font-family:none;opacity:0;mix-blend-mode:normal;fill:none;fill-rule:nonzero;stroke:#00bb31;stroke-width:0.62622392;stroke-linecap:butt;stroke-linejoin:miter;stroke-miterlimit:10;stroke-dasharray:none;stroke-dashoffset:0" />
  <path
     d=""
     id="path124"
     inkscape:connector-curvature="0"
     style="font-family:none;opacity:0;mix-blend-mode:normal;fill:none;fill-rule:nonzero;stroke:#00bb31;stroke-width:0.62622392;stroke-linecap:butt;stroke-linejoin:miter;stroke-miterlimit:10;stroke-dasharray:none;stroke-dashoffset:0" />
  <path
     d=""
     id="path128"
     inkscape:connector-curvature="0"
     style="font-family:none;opacity:0;mix-blend-mode:normal;fill:none;fill-rule:nonzero;stroke:#00bb31;stroke-width:0.62622392;stroke-linecap:butt;stroke-linejoin:miter;stroke-miterlimit:10;stroke-dasharray:none;stroke-dashoffset:0" />
  <path
     d=""
     id="path132"
     inkscape:connector-curvature="0"
     style="font-family:none;opacity:0;mix-blend-mode:normal;fill:none;fill-rule:nonzero;stroke:#00bb31;stroke-width:0.62622392;stroke-linecap:butt;stroke-linejoin:miter;stroke-miterlimit:10;stroke-dasharray:none;stroke-dashoffset:0" />
  <path
     d=""
     id="path136"
     inkscape:connector-curvature="0"
     style="font-family:none;opacity:0;mix-blend-mode:normal;fill:none;fill-rule:nonzero;stroke:#00bb31;stroke-width:0.62622392;stroke-linecap:butt;stroke-linejoin:miter;stroke-miterlimit:10;stroke-dasharray:none;stroke-dashoffset:0" />
  <path
     d=""
     id="path140"
     inkscape:connector-curvature="0"
     style="font-family:none;opacity:0;mix-blend-mode:normal;fill:none;fill-rule:nonzero;stroke:#00bb31;stroke-width:0.62622392;stroke-linecap:butt;stroke-linejoin:miter;stroke-miterlimit:10;stroke-dasharray:none;stroke-dashoffset:0" />
  <path
     d=""
     id="path142"
     inkscape:connector-curvature="0"
     style="font-family:none;mix-blend-mode:normal;fill:none;fill-rule:nonzero;stroke:none;stroke-width:0.10437066;stroke-linecap:butt;stroke-linejoin:miter;stroke-miterlimit:10;stroke-dasharray:none;stroke-dashoffset:0" />
  <path
     d=""
     id="path146"
     inkscape:connector-curvature="0"
     style="font-family:none;opacity:0;mix-blend-mode:normal;fill:none;fill-rule:nonzero;stroke:#00bb31;stroke-width:0.62622392;stroke-linecap:butt;stroke-linejoin:miter;stroke-miterlimit:10;stroke-dasharray:none;stroke-dashoffset:0" />
  <path
     d=""
     id="path152"
     inkscape:connector-curvature="0"
     style="font-family:none;opacity:0;mix-blend-mode:normal;fill:none;fill-rule:nonzero;stroke:#00bb31;stroke-width:0.62622392;stroke-linecap:butt;stroke-linejoin:miter;stroke-miterlimit:10;stroke-dasharray:none;stroke-dashoffset:0" />
  <path
     d=""
     id="path158"
     inkscape:connector-curvature="0"
     style="font-family:none;opacity:0;mix-blend-mode:normal;fill:none;fill-rule:nonzero;stroke:#00bb31;stroke-width:0.62622392;stroke-linecap:butt;stroke-linejoin:miter;stroke-miterlimit:10;stroke-dasharray:none;stroke-dashoffset:0" />
  <path
     d=""
     id="path162"
     inkscape:connector-curvature="0"
     style="font-family:none;opacity:0;mix-blend-mode:normal;fill:none;fill-rule:nonzero;stroke:#00bb31;stroke-width:0.62622392;stroke-linecap:butt;stroke-linejoin:miter;stroke-miterlimit:10;stroke-dasharray:none;stroke-dashoffset:0" />
  <path
     d=""
     id="path166"
     inkscape:connector-curvature="0"
     style="font-family:none;opacity:0;mix-blend-mode:normal;fill:none;fill-rule:nonzero;stroke:#00bb31;stroke-width:0.62622392;stroke-linecap:butt;stroke-linejoin:miter;stroke-miterlimit:10;stroke-dasharray:none;stroke-dashoffset:0" />
  <path
     d=""
     id="path170"
     inkscape:connector-curvature="0"
     style="font-family:none;opacity:0;mix-blend-mode:normal;fill:none;fill-rule:nonzero;stroke:#00bb31;stroke-width:0.62622392;stroke-linecap:butt;stroke-linejoin:miter;stroke-miterlimit:10;stroke-dasharray:none;stroke-dashoffset:0" />
  <path
     d=""
     id="path176"
     inkscape:connector-curvature="0"
     style="font-family:none;opacity:0;mix-blend-mode:normal;fill:none;fill-rule:nonzero;stroke:#00bb31;stroke-width:0.62622392;stroke-linecap:butt;stroke-linejoin:miter;stroke-miterlimit:10;stroke-dasharray:none;stroke-dashoffset:0" />
  <path
     d=""
     id="path180"
     inkscape:connector-curvature="0"
     style="font-family:none;opacity:0;mix-blend-mode:normal;fill:none;fill-rule:nonzero;stroke:#00bb31;stroke-width:0.62622392;stroke-linecap:butt;stroke-linejoin:miter;stroke-miterlimit:10;stroke-dasharray:none;stroke-dashoffset:0" />
  <path
     d=""
     id="path184"
     inkscape:connector-curvature="0"
     style="font-family:none;opacity:0;mix-blend-mode:normal;fill:none;fill-rule:nonzero;stroke:#00bb31;stroke-width:0.62622392;stroke-linecap:butt;stroke-linejoin:miter;stroke-miterlimit:10;stroke-dasharray:none;stroke-dashoffset:0" />
  <path
     d=""
     id="path188"
     inkscape:connector-curvature="0"
     style="font-family:none;opacity:0;mix-blend-mode:normal;fill:none;fill-rule:nonzero;stroke:#00bb31;stroke-width:0.62622392;stroke-linecap:butt;stroke-linejoin:miter;stroke-miterlimit:10;stroke-dasharray:none;stroke-dashoffset:0" />
  <path
     d=""
     id="path192"
     inkscape:connector-curvature="0"
     style="font-family:none;opacity:0;mix-blend-mode:normal;fill:none;fill-rule:nonzero;stroke:#00bb31;stroke-width:0.62622392;stroke-linecap:butt;stroke-linejoin:miter;stroke-miterlimit:10;stroke-dasharray:none;stroke-dashoffset:0" />
  <path
     d=""
     id="path196"
     inkscape:connector-curvature="0"
     style="font-family:none;opacity:0;mix-blend-mode:normal;fill:none;fill-rule:nonzero;stroke:#00bb31;stroke-width:0.62622392;stroke-linecap:butt;stroke-linejoin:miter;stroke-miterlimit:10;stroke-dasharray:none;stroke-dashoffset:0" />
  <path
     d=""
     id="path200"
     inkscape:connector-curvature="0"
     style="font-family:none;opacity:0;mix-blend-mode:normal;fill:none;fill-rule:nonzero;stroke:#00bb31;stroke-width:0.62622392;stroke-linecap:butt;stroke-linejoin:miter;stroke-miterlimit:10;stroke-dasharray:none;stroke-dashoffset:0" />
  <path
     d=""
     id="path204"
     inkscape:connector-curvature="0"
     style="font-family:none;opacity:0;mix-blend-mode:normal;fill:none;fill-rule:nonzero;stroke:#00bb31;stroke-width:0.62622392;stroke-linecap:butt;stroke-linejoin:miter;stroke-miterlimit:10;stroke-dasharray:none;stroke-dashoffset:0" />
  <path
     d=""
     id="path208"
     inkscape:connector-curvature="0"
     style="font-family:none;opacity:0;mix-blend-mode:normal;fill:none;fill-rule:nonzero;stroke:#00bb31;stroke-width:0.62622392;stroke-linecap:butt;stroke-linejoin:miter;stroke-miterlimit:10;stroke-dasharray:none;stroke-dashoffset:0" />
  <path
     d=""
     id="path214"
     inkscape:connector-curvature="0"
     style="font-family:none;opacity:0;mix-blend-mode:normal;fill:none;fill-rule:nonzero;stroke:#00bb31;stroke-width:0.62622392;stroke-linecap:butt;stroke-linejoin:miter;stroke-miterlimit:10;stroke-dasharray:none;stroke-dashoffset:0" />
  <path
     d=""
     id="path218"
     inkscape:connector-curvature="0"
     style="font-family:none;opacity:0;mix-blend-mode:normal;fill:none;fill-rule:nonzero;stroke:#00bb31;stroke-width:0.62622392;stroke-linecap:butt;stroke-linejoin:miter;stroke-miterlimit:10;stroke-dasharray:none;stroke-dashoffset:0" />
  <path
     d=""
     id="path224"
     inkscape:connector-curvature="0"
     style="font-family:none;opacity:0;mix-blend-mode:normal;fill:none;fill-rule:nonzero;stroke:#00bb31;stroke-width:0.62622392;stroke-linecap:butt;stroke-linejoin:miter;stroke-miterlimit:10;stroke-dasharray:none;stroke-dashoffset:0" />
  <path
     d=""
     id="path228"
     inkscape:connector-curvature="0"
     style="font-family:none;opacity:0;mix-blend-mode:normal;fill:none;fill-rule:nonzero;stroke:#00bb31;stroke-width:0.62622392;stroke-linecap:butt;stroke-linejoin:miter;stroke-miterlimit:10;stroke-dasharray:none;stroke-dashoffset:0" />
  <path
     d=""
     id="path234"
     inkscape:connector-curvature="0"
     style="font-family:none;opacity:0;mix-blend-mode:normal;fill:none;fill-rule:nonzero;stroke:#00bb31;stroke-width:0.62622392;stroke-linecap:butt;stroke-linejoin:miter;stroke-miterlimit:10;stroke-dasharray:none;stroke-dashoffset:0" />
  <path
     d=""
     id="path238"
     inkscape:connector-curvature="0"
     style="font-family:none;opacity:0;mix-blend-mode:normal;fill:none;fill-rule:nonzero;stroke:#00bb31;stroke-width:0.62622392;stroke-linecap:butt;stroke-linejoin:miter;stroke-miterlimit:10;stroke-dasharray:none;stroke-dashoffset:0" />
  <path
     d=""
     id="path244"
     inkscape:connector-curvature="0"
     style="font-family:none;opacity:0;mix-blend-mode:normal;fill:none;fill-rule:nonzero;stroke:#00bb31;stroke-width:0.62622392;stroke-linecap:butt;stroke-linejoin:miter;stroke-miterlimit:10;stroke-dasharray:none;stroke-dashoffset:0" />
  <path
     d=""
     id="path248"
     inkscape:connector-curvature="0"
     style="font-family:none;opacity:0;mix-blend-mode:normal;fill:none;fill-rule:nonzero;stroke:#00bb31;stroke-width:0.62622392;stroke-linecap:butt;stroke-linejoin:miter;stroke-miterlimit:10;stroke-dasharray:none;stroke-dashoffset:0" />
  <path
     d=""
     id="path254"
     inkscape:connector-curvature="0"
     style="font-family:none;opacity:0;mix-blend-mode:normal;fill:none;fill-rule:nonzero;stroke:#00bb31;stroke-width:0.62622392;stroke-linecap:butt;stroke-linejoin:miter;stroke-miterlimit:10;stroke-dasharray:none;stroke-dashoffset:0" />
  <path
     d=""
     id="path260"
     inkscape:connector-curvature="0"
     style="font-family:none;opacity:0;mix-blend-mode:normal;fill:none;fill-rule:nonzero;stroke:#00bb31;stroke-width:0.62622392;stroke-linecap:butt;stroke-linejoin:miter;stroke-miterlimit:10;stroke-dasharray:none;stroke-dashoffset:0" />
  <path
     d=""
     id="path264"
     inkscape:connector-curvature="0"
     style="font-family:none;opacity:0;mix-blend-mode:normal;fill:none;fill-rule:nonzero;stroke:#00bb31;stroke-width:0.62622392;stroke-linecap:butt;stroke-linejoin:miter;stroke-miterlimit:10;stroke-dasharray:none;stroke-dashoffset:0" />
  <path
     d=""
     id="path268"
     inkscape:connector-curvature="0"
     style="font-family:none;opacity:0;mix-blend-mode:normal;fill:none;fill-rule:nonzero;stroke:#00bb31;stroke-width:0.62622392;stroke-linecap:butt;stroke-linejoin:miter;stroke-miterlimit:10;stroke-dasharray:none;stroke-dashoffset:0" />
  <rect
     style="color:#000000;clip-rule:nonzero;display:inline;overflow:visible;visibility:visible;opacity:0.906;isolation:auto;mix-blend-mode:normal;color-interpolation:sRGB;color-interpolation-filters:linearRGB;solid-color:#000000;solid-opacity:1;vector-effect:none;fill:none;fill-opacity:1;fill-rule:nonzero;stroke:#ff00ff;stroke-width:0.37795275;stroke-linecap:butt;stroke-linejoin:miter;stroke-miterlimit:4;stroke-dasharray:none;stroke-dashoffset:0;stroke-opacity:1;color-rendering:auto;image-rendering:auto;shape-rendering:auto;text-rendering:auto;enable-background:accumulate"
     id="rect619"
     width="257.00787"
     height="79.370079"
     x="11.338583"
     y="35.90551"
     ry="0" />
  <rect
     style="color:#000000;clip-rule:nonzero;display:inline;overflow:visible;visibility:visible;opacity:0.906;isolation:auto;mix-blend-mode:normal;color-interpolation:sRGB;color-interpolation-filters:linearRGB;solid-color:#000000;solid-opacity:1;vector-effect:none;fill:none;fill-opacity:1;fill-rule:nonzero;stroke:#0000ff;stroke-width:0.35305667;stroke-linecap:butt;stroke-linejoin:miter;stroke-miterlimit:4;stroke-dasharray:none;stroke-dashoffset:0;stroke-opacity:1;color-rendering:auto;image-rendering:auto;shape-rendering:auto;text-rendering:auto;enable-background:accumulate"
     id="rect619-5"
     width="249.09576"
     height="71.45797"
     x="15.294638"
     y="39.861565"
     ry="0" />
  <g
     transform="matrix(0.07429021,0,0,0.07429021,73.036472,33.419601)"
     id="g192">
    <g
       stroke-width="none"
       stroke-miterlimit="10"
       font-weight="none"
       font-size="none"
       text-anchor="none"
       style="font-family:none;mix-blend-mode:normal;fill:none;fill-rule:nonzero;stroke:none;stroke-linecap:butt;stroke-linejoin:miter;stroke-miterlimit:10;stroke-dasharray:none;stroke-dashoffset:0"
       id="g190">
      <path
         style="fill:#d0d0ce;stroke:none;stroke-width:1"
         inkscape:connector-curvature="0"
         d="m -372.25129,706.61469 -4.09367,-13.20494 -14.50752,-8.24747 -4.87336,-11.17459 -4.75161,-8.78089 2.63383,-11.37132 1.29607,-11.53004 -8.22345,-12.54445 1.58878,-5.26941 32.03031,81.90838 z"
         id="path2" />
      <path
         style="fill:#d0d0ce;stroke:none;stroke-width:1"
         inkscape:connector-curvature="0"
         d="m -422.65138,553.6928 10.1289,-2.38783 8.24286,3.15834 4.79987,10.19232 10.32632,0.30554 6.09813,16.39662 8.11628,8.93817 10.87082,5.70938 4.24396,9.5578 5.21593,6.38261 4.31804,13.89509 7.96372,9.72025 1.30543,8.29723 10.786,12.60252 4.51621,12.97585 -7.52501,14.0139 5.92316,7.50208 -3.59958,15.46824 5.93083,16.7419 -3.57471,14.44397 -14.53739,5.57788 -1.68665,11.13908 -7.06923,2.41499 -78.44245,-203.59912 z"
         id="path4" />
      <path
         style="fill:none;stroke:none;stroke-width:1"
         inkscape:connector-curvature="0"
         d="m 71.85339,375.12523 -12.34398,5.37684 -13.66054,-2.75712 -7.25479,9.72229 -10.58084,7.16189 -9.55611,5.76886 -5.1953,12.04712 -3.19869,13.54085 -11.07915,7.43106 0.7805,12.4332 -0.63249,9.31044 -9.66567,6.21215 2.9833,12.12375 -1.90758,8.06254 4.41162,15.41401 -3.34732,12.36187 4.88379,12.67101 2.04412,15.25732 2.96255,9.98216 8.62803,9.32379 8.90757,9.61684 0.40951,13.89208 10.54349,4.72748 17.13838,0.8506 9.80959,10.38138 11.12552,0.0202 4.79448,-18.45961 1,-10 8,-15 v -11 l -4,-14 v -14 l 2,-11 2,-8 -1,-9 -8,-8 7,-14 -1,-8 3,-11 -3,-13 -6,-11 4,-11 -1,-9 3,-13 z"
         id="path6" />
      <path
         style="fill:#d0d0ce;stroke:none;stroke-width:1"
         inkscape:connector-curvature="0"
         d="m -142.82532,598.4166 12.15976,3.70477 8.90222,6.40445 12.90998,0.94472 11.39434,5.95653 11.7051,8.44928 7.83314,9.67159 1.8102,11.31787 -1.36806,16.25978 4.27493,14.25949 -3.75595,12.01058 2.8696,17.64002 -10.15948,9.50514 -5.09831,16.21166 -11.90207,6.7932 -14.37564,7.21565 -7.75785,5.39532 -5.7631,8.87244 -12.32514,-3.76366 -11.47775,2.52621 -0.50118,-162.3246 z"
         id="path8" />
      <path
         style="fill:#d0d0ce;stroke:none;stroke-width:1"
         inkscape:connector-curvature="0"
         d="m -68.96045,398.38766 -0.02314,288 99.5,0.008 -0.0068,84 -183.5,-0.0147 0.001,-13.14222 11.4857,-2.48984 12.31316,3.80268 5.79118,-8.85414 7.7749,-5.37072 14.39843,-7.17007 11.92353,-6.75547 5.14965,-16.19543 10.18954,-9.4729 -2.8137,-17.64903 3.79398,-11.99863 -4.22973,-14.27296 1.41957,-16.25536 -1.77434,-11.32355 -7.80247,-9.69636 -11.67827,-8.48632 -11.37542,-5.99259 -12.90692,-0.98561 -8.88189,-6.43262 -12.14796,-3.74327 -10.61587,-2.9832 0.0158,-196.5324 z"
         id="path10" />
      <path
         style="fill:#d0d0ce;stroke:none;stroke-width:1"
         inkscape:connector-curvature="0"
         d="m 314.60731,549.47924 -23.66108,2.66467 10.93304,-2.29929 1.68342,-12.12189 11.61349,-0.31959 c -0.0439,4.08651 -0.23352,8.11187 -0.56886,12.07609 z"
         id="path12" />
      <path
         style="fill:#d0d0ce;stroke:none;stroke-width:1"
         inkscape:connector-curvature="0"
         d="m 347.08691,746.00994 c 2.82032,6.05326 6.16375,14.10379 10.0303,24.15159 l -12.31314,-2.93474 -14.32182,3.18684 -15.10445,-3.7542 -9.61098,-3.65394 z"
         id="path14" />
      <path
         style="fill:#d0d0ce;stroke:none;stroke-width:1"
         inkscape:connector-curvature="0"
         d="m 379.53186,587.01872 10.40088,8.36418 2.36964,8.05886 0.93832,12.61135 -0.52549,14.65643 3.52018,14.00483 3.60679,11.16845 -6.91115,11.30693 -1.36935,10.01984 -0.91241,11.01027 5.44093,12.0683 -8.45199,11.93368 -1.05933,8.11135 -1.94022,12.33833 -10.81216,11.92063 -3.78408,8.27943 -3.9622,10.01923 -9.77314,7.41217 21.16494,-187.96615 z"
         id="path16" />
      <path
         style="fill:#d0d0ce;stroke:none;stroke-width:1"
         inkscape:connector-curvature="0"
         d="m 886.19745,398.36196 0.0441,83.99999 -143.99998,0.0756 0.0315,59.99999 105.99999,-0.0556 0.0441,83.99999 -105.99999,0.0556 0.0315,59.99999 143.99998,-0.0756 0.0441,83.99999 -227.99997,0.11963 -0.15987,-304.69146 5.34043,-4.00913 14.32598,6.28463 10.64284,-7.5324 9.09288,1.53989 15.17544,2.15282 11.23595,2.27116 13.39368,-9.07791 15.37507,2.48626 10.00984,-1.23788 7.38167,-5.11387 14.96375,-1.67736 13.0021,2.10527 6.17665,-7.9907 15.66755,-1.45685 11.66105,-4.7087 8.87745,-12.42687 12.77934,-6.78594 6.70647,-7.83181 0.0462,-13.77152 -0.0992,-0.63344 z"
         id="path18" />
      <path
         style="fill:#d0d0ce;stroke:none;stroke-width:1"
         inkscape:connector-curvature="0"
         d="m 1138.0151,398.81223 49.1985,162.8772 -4.4796,1.83482 -13.4569,-8.83607 -11.6398,-11.12578 -10.9974,-6.62124 -8.1047,-8.52479 -1.2257,-9.66043 -7.9293,-10.72954 -6.4507,-13.96258 -2.2412,-13.1528 -4.3355,-9.36693 -1.3773,-14.15824 -3.8811,-7.74793 2.2685,-10.33347 -3.3608,-13.06932 4.258,-15.06165 -1.0451,-12.1551 z"
         id="path20" />
      <path
         style="fill:#d0d0ce;stroke:none;stroke-width:1"
         inkscape:connector-curvature="0"
         d="m 1482.3697,605.08339 1.2177,83.99117 -84.4912,1.22493 1.1597,79.99174 -1.8942,-3.93989 -12.5397,3.73547 -3.2557,-12.95344 -9.8301,-9.13107 -3.386,-10.04467 -12.412,-10.92627 -3.4478,-12.08188 -4.5258,-12.70671 -4.6406,-7.52095 6.374,-10.39647 -0.6758,-14.04433 -1.9807,-12.9043 -3.5521,-12.93269 2.7859,-15.1097 1.0502,-9.00102 -3.8133,-10.09706 0.7311,-3.16483 z"
         id="path22" />
      <path
         style="fill:#d0d0ce;stroke:none;stroke-width:1"
         inkscape:connector-curvature="0"
         d="m 1791.3359,426.91214 -28.3274,175.49255 -11.7071,-1.70362 -13.043,-1.92193 -7.0592,-5.59501 -4.0475,-11.00264 -8.2042,-6.13709 0.89,-10.15601 -4.6835,-14.81049 3.0859,-8.06775 -4.3672,-9.43586 3.3837,-11.86505 0.1339,-14.24821 1.3924,-14.03455 2.1151,-11.8281 5.3472,-7.16478 0.1043,-12.14798 5.9321,-11.15361 -0.1095,-12.15311 1.3003,-8.88506 -0.5245,-11.12713 -0.3197,-1.53098 z"
         id="path24" />
      <path
         style="fill:#d0d0ce;stroke:none;stroke-width:1"
         inkscape:connector-curvature="0"
         d="m 1750.5789,645.96466 c -3.8642,21.65797 -10.2778,40.99881 -19.2406,58.02251 -8.9628,17.0237 -20.0971,31.03585 -33.4028,42.03643 -13.3058,11.00058 -28.7918,18.56477 -46.4582,22.69258 -17.6664,4.1278 -37.2992,4.09552 -58.8987,-0.0969 l -0.4922,-0.0878 c -24.0136,-3.94592 -43.6856,-11.34969 -59.0162,-22.21131 -15.3305,-10.86162 -27.0313,-24.03835 -35.1024,-39.53018 -8.071,-15.49183 -12.9048,-32.52231 -14.5014,-51.09143 -1.5965,-18.56912 -0.6676,-37.53413 2.7868,-56.89505 l 39.3448,-220.51753 85.1553,15.19344 -38.2032,214.11859 c -1.5808,8.86008 -2.1714,17.38894 -1.7717,25.58659 0.3996,8.19765 2.0414,15.60112 4.9254,22.21043 2.8839,6.60931 6.9718,12.16369 12.2638,16.66316 5.2919,4.49947 12.0398,7.48106 20.2436,8.94478 8.2038,1.46372 15.5664,0.99973 22.0879,-1.39198 6.5215,-2.39171 12.196,-6.20426 17.0236,-11.43767 4.8276,-5.23341 8.8465,-11.62691 12.0565,-19.18052 3.21,-7.55361 5.6054,-15.76045 7.1862,-24.62053 l 38.2032,-214.11859 26.6119,4.74812 0.2944,1.53605 0.3405,11.13428 -1.447,8.86235 -0.091,12.15327 -6.1156,11.05406 -0.305,12.1446 -5.4649,7.07543 -2.3103,11.79153 -1.6242,14.00962 -0.3693,14.24405 -3.5793,11.80751 4.2107,9.50674 -3.2189,8.01565 4.4382,14.88587 -1.0577,10.13992 8.1016,6.27183 3.8652,11.06803 6.9657,5.71091 13.0095,2.13721 11.6773,1.89686 z"
         id="path26" />
      <path
         style="fill:#d0d0ce;stroke:none;stroke-width:1"
         inkscape:connector-curvature="0"
         d="m 1776.0891,770.05059 1.1746,-256.28536 3.2332,3.92892 7.439,13.06432 11.0567,5.60642 0.2076,12.38153 13.4078,8.49141 8.4941,11.9165 4.3316,9.40997 -2.0459,16.21868 6.2196,8.48545 3.753,8.38426 2.5528,8.7779 5.9382,11.11445 -1.7163,10.80397 1.5244,7.95238 0.9306,12.13413 1.0283,8.00972 4.2953,13.8695 -1.3427,15.33464 5.9415,11.3292 -8.4085,8.85291 v 11.17217 l 1.7671,14.81865 0.1543,8.6329 -9.3442,13.57804 -0.1503,2.29436 z"
         id="path28" />
      <path
         style="fill:#d0d0ce;stroke:none;stroke-width:1"
         inkscape:connector-curvature="0"
         d="m 2036.6587,581.42852 12.2071,2.53023 11.8642,0.12051 5.0215,11.65218 11.7573,0.7903 4.4869,16.99346 8.0771,12.62238 12.6604,3.14611 -4.3155,10.81039 11.1898,9.98585 -2.5788,16.68324 -2.8464,10.42144 4.8917,11.14828 -1.8564,12.12527 -11.1667,12.99005 -10.4389,7.72121 0.351,12.40479 -7.7278,4.78988 -7.6206,4.6283 -13.439,1.49168 -11.9292,9.40027 -12.8294,-2.74415 0.1438,-169.51604 z"
         id="path30" />
      <path
         style="fill:#d0d0ce;stroke:none;stroke-width:1"
         inkscape:connector-curvature="0"
         d="m 2260.4492,398.08476 0.087,83.99995 -143.9999,0.14968 0.062,59.99997 106,-0.11018 0.087,83.99995 -105.9999,0.11018 0.062,59.99997 144,-0.14968 0.087,83.99995 -227.9999,0.237 -0.02,-19.37948 12.8344,2.71993 11.9115,-9.42277 13.4361,-1.51705 7.6119,-4.64267 7.7188,-4.80446 -0.3745,-12.40411 10.4243,-7.7409 11.1422,-13.0111 1.8335,-12.12875 -4.9127,-11.13903 2.8267,-10.42679 2.5473,-16.68808 -11.2086,-9.96471 4.2951,-10.81852 -12.6663,-3.12221 -8.1009,-12.60711 -4.519,-16.98496 -11.7588,-0.76811 -5.0435,-11.64268 -11.8644,-0.0981 -12.2119,-2.50718 -4.0975,0.20337 -0.1903,-183.10431 z"
         id="path32" />
      <path
         style="fill:#d0d0ce;stroke:none;stroke-width:1"
         inkscape:connector-curvature="0"
         d="m 2338.1032,417.02432 c 12.0192,-6.78106 25.4215,-11.35646 40.2068,-13.72621 14.7854,-2.36975 29.7977,-2.69048 45.037,-0.96218 18.1673,2.46138 33.7582,7.18063 46.7726,14.15774 7.5714,4.05907 14.3518,8.49482 20.341,13.30725 l -6.8152,6.93089 -10.6569,2.97483 -16.9115,-1.05313 -12.0919,5.0463 -13.3946,-2.97294 -12.1555,-0.65342 -11.9674,-2.08689 -14.2311,0.33514 -11.3901,-5.59155 -13.1682,0.0795 -12.7857,4.11171 -11.6988,-2.81463 -13.102,0.0479 -7.5559,-6.17989 c 4.7819,-4.14288 9.971,-7.79301 15.5674,-10.9504 z"
         id="path34" />
      <path
         style="fill:none;stroke:none;stroke-width:1"
         inkscape:connector-curvature="0"
         d="m 1930.2038,399.92023 17.2083,3.84797"
         id="path36" />
      <path
         style="opacity:0;fill:none;stroke:#00bb31;stroke-width:6"
         inkscape:connector-curvature="0"
         d=""
         id="path38" />
      <path
         style="fill:none;stroke:none;stroke-width:1"
         inkscape:connector-curvature="0"
         d="m 1928.1997,399.63523 19.0786,4.09176"
         id="path40" />
      <path
         style="opacity:0;fill:none;stroke:#00bb31;stroke-width:6"
         inkscape:connector-curvature="0"
         d=""
         id="path42" />
      <path
         style="fill:#d0d0ce;stroke:none;stroke-width:1"
         inkscape:connector-curvature="0"
         d="m 2022.8943,770.30393 -96.4999,-0.0992 -49.8756,-121.05132 -1,-10e-4 -0.1244,120.99994 -23.5586,-0.0242 0.1421,-2.29488 9.2959,-13.61118 -0.185,-8.6323 -1.8197,-14.81228 -0.039,-11.1721 8.377,-8.88276 -5.9818,-11.308 1.2882,-15.33931 -4.3446,-13.85414 -1.0568,-8.00601 -0.9737,-12.13075 -1.5526,-7.94691 1.6778,-10.81 -5.9777,-11.09326 -2.584,-8.76876 -3.7828,-8.37086 -6.2497,-8.46328 1.9882,-16.22585 -4.365,-9.39451 -8.5364,-11.88622 -13.4379,-8.44368 -0.2517,-12.38072 -11.0766,-5.56707 -7.4853,-13.03778 -3.2471,-3.9174 0.1189,-115.71188 113.4999,0.11664 c 8.1666,0.008 15.8076,0.49251 22.923,1.45236 l 3.4172,13.32691 5.2088,8.4317 0.1777,12.86883 8.1086,7.66306 -3.4489,13.26244 5.8724,-0.4229 0.4561,2.41674 2.309,9.20034 4.4983,9.65453 8.1669,11.78576 1.0891,8.99068 2.7895,-8.01252 -6.2276,-11.29668 -2.5591,-9.16546 -0.3697,-8.71126 -0.2987,-4.69116 9.4925,8.61945 9.7169,3.81881 6.0101,8.53689 -3.539,-11.68228 -8.4813,-5.39151 -9.1555,-11.00803 -4.5069,-0.1674 -0.1784,-2.80196 -6.1694,-7.17399 1.7616,-12.37976 -3.2695,-7.94262 -1.792,-13.63684 c 3.9682,1.21914 7.7143,2.63934 11.2383,4.2606 14.1599,6.51455 25.4844,15.19286 33.9732,26.03493 8.4889,10.84206 14.5592,23.51497 18.211,38.01873 3.6517,14.50376 5.4694,29.75564 5.4529,45.75563 -0.017,16.66666 -2.7823,31.49716 -8.2957,44.4915 -5.5134,12.99434 -12.0246,23.90432 -19.5336,32.72994 -7.5091,8.82562 -15.0993,15.48449 -22.7706,19.97661 -7.6713,4.49212 -13.6736,6.73595 -18.0069,6.7315 z"
         id="path44" />
      <path
         style="fill:none;stroke:none;stroke-width:1"
         inkscape:connector-curvature="0"
         d="m 958.78154,628.64251 7.76861,-26.48376"
         id="path46" />
      <path
         style="opacity:0;fill:none;stroke:#00bb31;stroke-width:6"
         inkscape:connector-curvature="0"
         d=""
         id="path48" />
      <path
         style="fill:none;stroke:none;stroke-width:1"
         inkscape:connector-curvature="0"
         d="m 958.59354,629.28342 5.95658,-20.30641"
         id="path50" />
      <path
         style="opacity:0;fill:none;stroke:#00bb31;stroke-width:6"
         inkscape:connector-curvature="0"
         d=""
         id="path52" />
      <path
         style="fill:#d0d0ce;stroke:none;stroke-width:1"
         inkscape:connector-curvature="0"
         d="m 1247.2149,770.44472 -95.5,-0.0285 -33.4708,-98.00999 -72.5,-0.0216 -33.0292,97.99015 -95.5,-0.0285 41.37864,-141.06282 6.10954,-6.28772 15.88086,5.79759 7.84963,-6.59189 10.08634,-3.76397 14.80309,4.88198 12.0429,5.09582 0.7242,-9.49627 2.2216,-0.76572 8.8464,-6.67299 14.3164,-1.09825 8.174,-2.60507 13.9257,2.0101 -12.7998,-5.84838 -7.611,0.68593 -2.9338,-0.17511 4.1781,-7.88665 8.616,-5.45564 5.9215,-11.17747 5.8217,-6.93601 1.023,-13.41467 -3.7841,10.52048 -7.2022,5.48891 -7.3021,9.73038 -9.9965,4.00854 -7.3021,9.73038 -9.9633,2.59472 -12.1339,4.66554 -0.4012,5.26067 -1.0038,0.22594 -14.2401,-6.80112 -9.52343,1.84484 -7.28668,4.67276 -15.31791,-7.71673 -5.78246,5.17268 61.77578,-210.59822 87.1991,0.026 0.9404,12.16365 -4.3876,15.02442 3.2482,13.09778 -2.3575,10.31355 3.8143,7.78107 1.2554,14.16957 4.2546,9.40391 2.1279,13.17161 6.3303,14.01761 7.8365,10.79742 1.1425,9.67063 8.031,8.59426 10.94,6.7157 11.5436,11.2256 13.3803,8.95162 4.4952,-1.79618 z"
         id="path54" />
      <path
         style="fill:#d0d0ce;stroke:none;stroke-width:1"
         inkscape:connector-curvature="0"
         d="m 626.2007,770.2021 -96.5,-0.025 -49.96858,-121.01298 -1,-2.6e-4 -0.0314,121 -84,-0.0218 0.0212,-81.65775 8.88459,-8.45686 2.81894,-10.39892 2.83615,-8.65011 9.41382,-13.05312 0.5507,-12.4778 0.1472,-8.17891 7.06694,-12.80262 -6.75416,-11.38547 -0.32242,-11.04331 0.24223,-10.11008 5.60571,-12.00777 -4.83103,-10.69599 -5.0616,-13.52432 -1.11396,-14.62348 -2.34032,-12.42777 -3.25448,-7.74395 -11.2696,-7.1508 -2.56963,-4.42267 0.008,-31.0366 9.71813,-1.99605 12.72677,-7.16732 6.30781,-14.90017 14.69274,-3.46243 -14.6917,-0.53757 -6.30729,12.90017 -12.72625,5.16732 -9.71775,0.53515 0.0158,-60.69076 113.5,0.0295 c 21.33333,0.006 39.08249,3.26015 53.24747,9.76383 14.16498,6.50368 25.49606,15.17329 33.99325,26.00883 8.49719,10.83554 14.57723,23.50379 18.24013,38.00474 3.6629,14.50095 5.49228,29.75143 5.48812,45.75143 -0.004,16.66667 -2.75818,31.49928 -8.26155,44.49786 -5.50338,12.99857 -12.00621,23.91355 -19.5085,32.74494 -7.50229,8.83139 -15.08736,15.49608 -22.75519,19.99409 -7.66783,4.49801 -13.66842,6.74645 -18.00175,6.74533 z"
         id="path56" />
      <path
         style="fill:none;stroke:none;stroke-width:1"
         inkscape:connector-curvature="0"
         d="m 394.77908,468.29367 0.002,-9.4609"
         id="path58" />
      <path
         style="opacity:0;fill:none;stroke:#00bb31;stroke-width:6"
         inkscape:connector-curvature="0"
         d=""
         id="path60" />
      <path
         style="fill:none;stroke:none;stroke-width:1"
         inkscape:connector-curvature="0"
         d="m -626.45299,525.04341 7.04859,-24.04782"
         id="path62" />
      <path
         style="opacity:0;fill:none;stroke:#00bb31;stroke-width:6"
         inkscape:connector-curvature="0"
         d=""
         id="path64" />
      <path
         style="fill:#d0d0ce;stroke:none;stroke-width:1"
         inkscape:connector-curvature="0"
         d="m -368.30216,770.20205 -95.5,-0.008 -33.4913,-98.00297 -72.5,-0.006 -33.0087,97.99707 -95.5,-0.008 71.84917,-245.12934 7.63994,-3.21262 8.34951,-9.95426 7.72179,-6.40378 8.92589,-3.65603 11.49863,-10.24245 11.62229,4.98859 8.99837,0.39505 5.00361,-9.16318 11.31351,0.0664 6.4178,-9.15488 3.39582,-3.3562 3.1472,0.002 13.10411,-6.57879 5.0803,-11.54162 -3.95521,7.70311 -12.54156,4.65953 -1.2604,-0.24362 2.3506,-12.51068 5.68995,-5.62356 12.04966,-4.87912 -14.86144,2.03414 -7.09584,4.20107 -4.32556,14.11699 -1.78244,1.11964 -0.73335,-0.14175 -12.94293,3.74362 -8.47652,3.96997 -2.3244,3.88256 -0.68464,-0.004 -1.98933,3.64309 -10.69921,-6.68266 -10.93609,8.3232 -8.36334,1.73677 -7.15924,4.48452 -7.78697,8.03501 -7.34193,2.19587 30.13527,-102.81316 112,0.01 55.81388,190.54677 -2.04484,5.10975 7.09147,13.21739 -2.30239,11.37192 -3.62107,11.09648 3.96312,9.16381 3.87444,11.55897 13.72821,9.48815 2.91967,13.51311 1.11398,-0.11747 z"
         id="path66" />
      <path
         style="fill:#d0d0ce;stroke:none;stroke-width:1"
         inkscape:connector-curvature="0"
         d="m -252.39784,398.14431 -0.042,31.98779 -11.03391,7.74052 -5.63585,12.75806 -16.11416,1.61333 -5.73365,6.92793 -9.76849,11.79825 -6.90364,9.83428 6.89839,-5.83429 9.76587,-9.79825 5.73102,-4.92793 16.11153,0.38667 5.63322,-10.75806 11.03163,-6.00732 -0.31804,242.27878 99.49991,0.13061 -0.11027,83.99993 -183.49984,-0.24088 0.0385,-29.32768 7.46442,0.29779 5.59143,-9.78058 15.5707,0.042 8.54457,-12.18184 0.50804,-17.75409 8.93726,-13.12817 -2.818,-9.13367 12.07373,-10.35568 0.46883,-13.73132 -5.51345,-15.64491 1.77564,-8.20947 -3.92098,-11.93859 0.98528,-14.51717 -2.56223,-7.83445 -0.51029,-10.44521 -8.07922,-9.24651 -4.34539,-11.26421 0.22745,-17.49242 -9.52078,-4.01012 -0.79986,-11.23754 -6.54848,-5.91923 -10.30827,-1.42689 -6.93399,-3.27509 0.16341,-124.48461 z"
         id="path68" />
      <path
         style="fill:none;stroke:none;stroke-width:1"
         inkscape:connector-curvature="0"
         d="m -252.43983,430.1321 -0.018,13.73318"
         id="path70" />
      <path
         style="opacity:0;fill:none;stroke:#00bb31;stroke-width:6"
         inkscape:connector-curvature="0"
         d=""
         id="path72" />
      <path
         style="fill:#d0d0ce;stroke:none;stroke-width:1"
         inkscape:connector-curvature="0"
         d="m 2508.8785,700.36525 c -2.2556,11.80495 -7.1371,22.50106 -14.6445,32.08835 -7.5075,9.58729 -17.1503,17.54296 -28.9286,23.86703 -11.7783,6.32406 -25.5652,10.69721 -41.3606,13.11945 -15.7954,2.42224 -33.2739,2.34863 -52.4358,-0.22082 -14.8669,-1.99354 -28.5595,-5.84751 -41.0778,-11.56192 -12.5182,-5.7144 -23.5761,-12.91456 -33.1735,-21.60047 -9.5974,-8.68591 -17.4151,-18.73068 -23.4531,-30.1343 -6.038,-11.40363 -9.8229,-23.93447 -11.3546,-37.59254 l 83.7426,-22.5706 c -0.7051,0.24177 -0.2718,2.65409 1.2997,7.23693 1.5715,4.58285 4.0184,9.53531 7.3405,14.85738 3.3222,5.32207 7.6193,10.2704 12.8915,14.84499 5.2721,4.57459 11.2784,6.80934 18.0188,6.70423 5.705,0.0924 11.5711,-1.64342 17.5982,-5.20735 6.0271,-3.56393 9.4957,-9.99331 10.4057,-19.28815 0.4228,-5.6607 -1.1095,-11.16316 -4.5969,-16.50738 -3.4873,-5.34422 -8.6759,-11.1688 -15.5657,-17.47374 -15.343,-13.49214 -29.6353,-25.41406 -42.877,-35.76575 -13.2417,-10.35169 -24.611,-20.87269 -34.1078,-31.56301 -9.4968,-10.69032 -16.5259,-22.22685 -21.0873,-34.60959 -4.5615,-12.38274 -5.6682,-27.32908 -3.3203,-44.83903 2.1708,-16.18844 7.3795,-29.95162 15.6262,-41.28952 4.4068,-6.05876 9.351,-11.46923 14.8325,-16.23141 l 7.5643,6.16956 13.1019,-0.0658 11.7027,2.79864 12.78,-4.12918 13.1681,-0.0975 11.3977,5.57597 14.2307,-0.35459 11.9702,2.07053 12.1564,0.63681 13.3986,2.95463 12.0851,-5.06282 16.9128,1.03002 8.1902,-2.29834 -3.8234,13.87877 1.5075,11.83067 -1.6464,11.60054 -6.2192,6.81707 9.1632,-4.10915 3.1184,-10.24658 -0.036,-10.47671 5.5792,-13.55478 4.5803,-8.55457 1.1139,-1.39046 c 2.7316,2.41794 5.277,4.92491 7.636,7.52091 8.3525,9.19161 14.4961,19.18006 18.431,29.96535 3.9348,10.78529 6.0637,21.24434 6.3865,31.37713 l -76.7021,18.97439 c -0.5039,-3.76704 -1.4479,-8.01351 -2.8321,-12.73939 -1.3842,-4.72589 -3.556,-9.22107 -6.5155,-13.48556 -2.9595,-4.26449 -6.6572,-8.03942 -11.0933,-11.32479 -4.436,-3.28537 -9.7926,-5.34892 -16.0698,-6.19064 -6.6075,-0.88602 -12.9138,0.37034 -18.9187,3.76908 -6.005,3.39874 -9.5613,9.22781 -10.6688,17.48722 -0.8417,6.27715 0.9767,12.15429 5.4551,17.63141 4.4785,5.47712 11.6373,12.91116 21.4765,22.30213 14.0455,10.62763 27.5129,21.17773 40.402,31.65031 12.8892,10.47258 24.054,21.89104 33.4945,34.25539 9.4405,12.36435 16.5453,25.84484 21.3143,40.44148 4.7691,14.59664 5.891,31.31068 3.3658,50.14214 z"
         id="path74-8" />
      <path
         style="fill:none;stroke:none;stroke-width:1"
         inkscape:connector-curvature="0"
         d="m 2481.3094,435.85601 13.338,-4.2052"
         id="path76" />
      <path
         style="opacity:0;fill:none;stroke:#00bb31;stroke-width:6"
         inkscape:connector-curvature="0"
         d=""
         id="path78-5" />
      <path
         style="fill:#d0d0ce;stroke:none;stroke-width:1"
         inkscape:connector-curvature="0"
         d="m 657.99585,398.351 201.79011,0.39829 0.0976,0.63369 -0.0806,13.77136 -6.72602,7.81503 -12.79625,6.75399 -8.90847,12.40466 -11.67277,4.67955 -15.67114,1.4177 -6.19659,7.97524 -12.99679,-2.13775 -14.9679,1.63997 -7.39442,5.09541 -10.0129,1.21287 -15.36881,-2.52467 -13.41632,9.04442 -11.23024,-2.29923 -15.17001,-2.19072 -9.08901,-1.5626 -10.66163,7.50579 -14.31024,-6.3204 -5.35043,3.99578 0.0335,-16.98578 9.27867,-6.54173 12.79323,-0.38047 2.01787,-13.56726 7.65773,-5.06914 -7.64983,1.06915 -2.01392,11.56727 -12.78928,-1.61953 -9.2758,5.08521 z"
         id="path80" />
      <path
         style="fill:none;stroke:none;stroke-width:1"
         inkscape:connector-curvature="0"
         d="m 657.89653,448.67359 0.0187,-9.45651"
         id="path82-0" />
      <path
         style="opacity:0;fill:none;stroke:#00bb31;stroke-width:6"
         inkscape:connector-curvature="0"
         d=""
         id="path84" />
      <path
         style="fill:#d0d0ce;stroke:none;stroke-width:1"
         inkscape:connector-curvature="0"
         d="m 288.84272,645.63119 c 4.78117,-13.54935 4.4206,-26.01215 -1.0817,-37.3884 -5.50231,-11.37625 -13.21031,-21.02763 -23.12401,-28.95415 l 26.95532,-27.30176 10.27461,-0.39323 15.37027,-2.4481 11.93695,-8.5311 12.48071,-2.11138 c 0.0338,0.0349 0.0677,0.0699 0.10153,0.10496 7.53148,7.78704 14.30309,17.69843 20.31482,29.73417 6.01173,12.03574 10.08623,26.38926 12.22348,43.06056 2.13725,16.6713 0.18756,35.93097 -5.84908,57.779 l -0.13316,0.48194 c -6.74683,24.4184 -16.26171,43.83564 -28.54465,58.25174 -12.28294,14.4161 -26.3732,25.04751 -42.2708,31.89424 -15.89759,6.84673 -33.10683,10.30509 -51.6277,10.3751 -18.52088,0.07 -37.23202,-1.9875 -56.13344,-6.17251 L 115.5168,743.50546 C 97.93437,738.30159 81.32529,730.51362 65.68957,720.14155 50.05385,709.76948 37.02016,697.17686 26.58849,682.36368 16.15682,667.5505 9.1526,650.65838 5.57584,631.68732 1.99908,612.71626 3.2734,592.14606 9.39881,569.97673 l 0.13316,-0.48194 c 5.41522,-19.59898 12.80686,-35.71237 22.17493,-48.34017 9.36807,-12.62781 19.78777,-22.80365 31.25911,-30.52753 11.47134,-7.72388 23.53457,-13.20929 36.18968,-16.45621 8.42845,-2.16249 16.68954,-3.71928 24.78328,-4.67038 l 1.79619,11.4782 12.23758,0.12575 3.6731,10.55113 14.07227,57.53867 c -6.31595,0.32983 -12.99229,1.3382 -20.02901,3.02508 -7.03673,1.68689 -13.63061,4.27423 -19.78164,7.76204 -6.15103,3.48781 -11.51573,7.88453 -16.09409,13.19016 -4.57836,5.30563 -7.63902,11.37643 -9.18198,18.21239 -3.2423,16.74113 -0.35363,31.63156 8.66602,44.6713 5.29864,7.66027 12.09013,13.91301 20.37447,18.7582 l 1.19787,1.32415 10.44558,8.47884 -3.94474,12.82841 5.88748,13.4006 7.40685,11.76001 9.86207,9.76706 1.79166,13.87419 8.47117,6.67448 -4.65354,-5.48044 0.11715,-13.27717 -7.95326,-9.17004 -5.49803,-11.16299 -3.97867,-12.80358 5.85355,-12.23139 -6.78913,-6.26826 c 0.47867,0.14021 0.96061,0.27735 1.44581,0.41141 l 69.88159,19.30836 c 17.67121,4.88257 33.90708,4.00831 48.70763,-2.6228 14.80055,-6.63111 25.10715,-17.96213 30.91981,-33.99306 z"
         id="path86-5" />
      <path
         style="fill:none;stroke:none;stroke-width:1"
         inkscape:connector-curvature="0"
         d="m 119.67188,654.81341 18.21601,7.71386"
         id="path88" />
      <path
         style="opacity:0;fill:none;stroke:#00bb31;stroke-width:6"
         inkscape:connector-curvature="0"
         d=""
         id="path90" />
      <path
         style="fill:#d0d0ce;stroke:none;stroke-width:1"
         inkscape:connector-curvature="0"
         d="m 1162.9043,399.05227 115.8571,-0.70592 -0.7576,3.15857 3.7282,10.12875 -1.1257,8.99188 -2.9128,15.08576 3.4433,12.96208 1.8721,12.92049 0.5578,14.04952 -0.4066,0.65089 -3.4142,-5.63869 0.3665,10.51717 -0.3603,0.57679 -10.8548,11.56341 -3.7462,7.69775 -1.9307,8.53684 -6.371,8.20226 8.4428,-4.78059 2.9665,-6.826 4.7821,-5.98691 8.3963,-7.01658 0.2457,0.4059 4.4189,12.74429 3.3461,12.11043 12.3198,11.03019 3.3014,10.07277 9.753,9.21336 3.1468,12.98035 12.5706,-3.62996 1.861,3.95567 1.2674,207.996 -83.9985,0.51181 -1.7547,-287.99465 -84.4985,0.51485 z"
         id="path92-9" />
      <path
         style="fill:none;stroke:none;stroke-width:1"
         inkscape:connector-curvature="0"
         d="m 1280.1124,481.17276 3.0477,-4.87848"
         id="path94-2" />
      <path
         style="opacity:0;fill:none;stroke:#00bb31;stroke-width:6"
         inkscape:connector-curvature="0"
         d=""
         id="path96-6" />
      <path
         style="fill:#00bb31;stroke:none;stroke-width:1"
         inkscape:connector-curvature="0"
         d="m 1526.9322,717.0161 -9.5373,32.94601 -6.0413,-33.76245 -14.0807,-0.73794 -9.5373,32.94601 -6.1412,-33.76768 -19.7729,-1.03625 15.1801,75.29765 16.0779,0.84261 9.4327,-30.94875 5.1473,31.71285 15.0793,0.79027 24.9649,-73.19375 z m -76.4066,86.01907 5.4743,-104.45665 472.951,24.78631 -5.4744,104.45665 z m 153.6202,-65.14943 0.8792,-16.77698 -45.5375,-2.38652 -3.8938,74.29804 45.5375,2.38652 0.8793,-16.77698 -28.7606,-1.50728 0.6281,-11.98355 21.1709,1.10952 0.8792,-16.77698 -21.1709,-1.10952 0.628,-11.98355 z m 27.1245,42.27753 3.0146,-57.52106 -16.777,-0.87924 -3.8938,74.29804 36.6497,1.92073 0.8792,-16.77698 z m 58.1046,3.34554 c -3.3814,-0.44424 -6.0386,-1.96873 -7.9716,-4.57347 -1.933,-2.60473 -2.8036,-5.73792 -2.6117,-9.39956 l 0.7589,-14.48013 c 0.1919,-3.66164 1.3668,-6.65425 3.5247,-8.97784 2.1579,-2.32358 4.9415,-3.52955 8.3508,-3.61791 1.4016,0.007 2.7191,0.34278 3.9526,1.00825 1.2336,0.66547 2.3235,1.52369 3.2698,2.57465 0.9463,1.05097 1.7358,2.22723 2.3685,3.5288 0.6328,1.30157 1.1175,2.56199 1.4541,3.78128 l 14.9041,-7.33003 c -0.6137,-2.30194 -1.5104,-4.61871 -2.69,-6.95031 -1.1795,-2.3316 -2.7708,-4.45111 -4.7737,-6.35855 -2.0029,-1.90744 -4.4394,-3.50381 -7.3094,-4.78911 -2.87,-1.2853 -6.3355,-2.03436 -10.3966,-2.2472 l -0.1,-0.005 c -4.5937,-0.24075 -8.666,0.397 -12.2169,1.91324 -3.5508,1.51624 -6.548,3.61225 -8.9914,6.28804 -2.4434,2.67579 -4.3409,5.76405 -5.6926,9.26477 -1.3518,3.50072 -2.1569,7.08016 -2.4154,10.73831 l -0.8059,15.37889 c 0,3.87183 0.402,7.61481 1.214,11.22892 0.8119,3.61411 2.2291,6.82602 4.2515,9.63571 2.0224,2.80969 4.706,5.10329 8.0509,6.88078 3.3449,1.77749 7.5472,2.79883 12.6069,3.06399 l 0.1,0.005 c 4.5271,0.23726 8.3726,-0.2121 11.5364,-1.34808 3.1637,-1.13598 5.7914,-2.5504 7.8828,-4.24326 2.0915,-1.69286 3.7353,-3.44256 4.9315,-5.2491 1.1962,-1.80654 2.1253,-3.29329 2.7873,-4.46024 l -14.0562,-8.84777 c -1.1208,2.2778 -2.6735,4.19917 -4.6581,5.76412 -1.9846,1.56494 -4.4031,2.17254 -7.2553,1.82278 z m 95.4674,-25.53862 c 0.1114,-3.39883 -0.3484,-6.72745 -1.3793,-9.98587 -1.0309,-3.25842 -2.6784,-6.21536 -4.9425,-8.87083 -2.5796,-3.00579 -5.5768,-5.36589 -8.9918,-7.0803 -3.4149,-1.71441 -7.0864,-2.67454 -11.0143,-2.88039 l -0.1,-0.005 c -3.9279,-0.20585 -7.663,0.36612 -11.2051,1.71592 -3.5422,1.3498 -6.7864,3.3828 -9.7326,6.099 -2.4627,2.40774 -4.4129,5.22621 -5.8505,8.45539 -1.4376,3.22919 -2.2402,6.44159 -2.4077,9.6372 l -0.9106,17.37615 c -0.1428,3.99801 0.2426,7.79004 1.1562,11.3761 0.9136,3.58606 2.5953,6.84521 5.0452,9.77745 2.6461,3.00928 5.6767,5.37112 9.0916,7.08553 3.415,1.71441 7.0531,2.67279 10.9145,2.87516 l 0.1,0.005 c 3.9279,0.20585 7.6796,-0.36525 11.255,-1.7133 3.5755,-1.34806 6.8048,-3.41522 9.6879,-6.20148 2.8095,-2.6566 4.8604,-5.80358 6.1525,-9.44094 1.2922,-3.63736 2.0324,-7.25357 2.2208,-10.84864 z m 61.5515,-24.21182 -17.7397,42.32959 -13.118,-43.94677 -17.0765,-0.89494 -3.8938,74.29804 17.7756,0.93158 1.4026,-26.76327 7.8846,27.25 10.7852,0.56523 10.4483,-25.48811 -1.3608,25.96437 17.7757,0.93158 3.8938,-74.29804 z m 74.4174,20.72311 0.8793,-16.77698 -45.5376,-2.38652 -3.8938,74.29804 45.5375,2.38652 0.8793,-16.77698 -28.7605,-1.50728 0.628,-11.98355 21.1709,1.10952 0.8793,-16.77698 -21.171,-1.10952 0.6281,-11.98355 z"
         id="path98-8" />
      <path
         style="fill:none;stroke:#00bb31;stroke-width:6"
         inkscape:connector-curvature="0"
         d="m 1945.2882,366.48154 38,-38 h 33"
         id="path100" />
      <path
         style="fill:none;stroke:#00bb31;stroke-width:6"
         inkscape:connector-curvature="0"
         d="m 1937.739,401.68111 7.5492,-35.19957 v -18 l 38,-38 h 66 l -33,56 h -33"
         id="path102-5" />
      <path
         style="fill:#00bb31;stroke:none;stroke-width:1"
         inkscape:connector-curvature="0"
         d="m 2010.2882,328.48154 c 0,-3.31371 2.6863,-6 6,-6 3.3137,0 6,2.68629 6,6 0,3.31371 -2.6863,6 -6,6 -3.3137,0 -6,-2.68629 -6,-6 z"
         id="path104" />
      <path
         style="fill:#00bb31;stroke:none;stroke-width:1"
         inkscape:connector-curvature="0"
         d="m 1977.2882,366.48154 c 0,-3.31371 2.6863,-6 6,-6 3.3137,0 6,2.68629 6,6 0,3.31371 -2.6863,6 -6,6 -3.3137,0 -6,-2.68629 -6,-6 z"
         id="path106-2" />
      <path
         style="fill:#00bb31;stroke:none;stroke-width:1"
         inkscape:connector-curvature="0"
         d="m 1947.2783,403.72699 1.7921,13.63684 3.2695,7.94262 -1.7616,12.37976 6.1694,7.17399 0.1784,2.80196 4.5069,0.1674 9.1555,11.00803 8.4813,5.39151 3.5389,11.68228 -6.0101,-8.53689 -9.7168,-3.81881 -9.4925,-8.61945 0.2987,4.69116 0.3696,8.71126 2.5591,9.16546 6.2276,11.29668 -2.7894,8.01252 -1.0891,-8.99068 -8.1669,-11.78576 -4.4984,-9.65453 -2.3089,-9.20034 -0.4561,-2.41674 -5.8724,0.4229 3.4489,-13.26244 -8.1086,-7.66306 -0.1777,-12.86883 -5.2088,-8.4317 -3.4172,-13.32691 17.0885,-33.15369"
         id="path108" />
      <path
         style="fill:none;stroke:#00bb31;stroke-width:6"
         inkscape:connector-curvature="0"
         d="m 934.70391,611.24892 -21,-21 h -32.5"
         id="path110" />
      <path
         style="fill:none;stroke:#00bb31;stroke-width:6"
         inkscape:connector-curvature="0"
         d="m 961.57183,619.13022 -26.86792,-7.8813 v -17 l -21,-21 h -65 l 32.5,38 h 32.5"
         id="path112-8" />
      <path
         style="fill:#00bb31;stroke:none;stroke-width:1"
         inkscape:connector-curvature="0"
         d="m 875.20391,590.24892 c 0,-3.31371 2.68629,-6 6,-6 3.31371,0 6,2.68629 6,6 0,3.31371 -2.68629,6 -6,6 -3.31371,0 -6,-2.68629 -6,-6 z"
         id="path114" />
      <path
         style="fill:#00bb31;stroke:none;stroke-width:1"
         inkscape:connector-curvature="0"
         d="m 907.70391,611.24892 c 0,-3.31371 2.68629,-6 6,-6 3.31371,0 6,2.68629 6,6 0,3.31371 -2.68629,6 -6,6 -3.31371,0 -6,-2.68629 -6,-6 z"
         id="path116-3" />
      <path
         style="fill:#00bb31;stroke:none;stroke-width:1"
         inkscape:connector-curvature="0"
         d="m 964.55012,608.97701 5.78246,-5.17268 15.31791,7.71673 7.28668,-4.67276 9.52343,-1.84484 14.2401,6.80112 1.0038,-0.22594 0.4012,-5.26067 12.1339,-4.66554 9.9633,-2.59472 7.3021,-9.73038 9.9965,-4.00854 7.3021,-9.73038 7.2022,-5.48891 3.7841,-10.52048 -1.023,13.41467 -5.8217,6.93601 -5.9215,11.17747 -8.616,5.45564 -4.1781,7.88665 2.9338,0.17511 7.611,-0.68593 12.7998,5.84838 -13.9257,-2.0101 -8.174,2.60507 -14.3164,1.09825 -8.8464,6.67299 -2.2216,0.76572 -0.7242,9.49627 -12.0429,-5.09582 -14.80309,-4.88198 -10.08634,3.76397 -7.84963,6.59189 -15.88086,-5.79759 -6.10954,6.28772 -23.88963,-18.0345"
         id="path118" />
      <path
         style="fill:none;stroke:#00bb31;stroke-width:6"
         inkscape:connector-curvature="0"
         d="m 372.78031,463.5575 -33,-33 h -34.5"
         id="path120-6" />
      <path
         style="fill:none;stroke:#00bb31;stroke-width:6"
         inkscape:connector-curvature="0"
         d="m 394.7803,463.56322 -22,-0.006 v -17 l -33,-33 h -69 l 34.5,50 h 34.5"
         id="path122" />
      <path
         style="fill:#00bb31;stroke:none;stroke-width:1"
         inkscape:connector-curvature="0"
         d="m 299.28031,430.5575 c 0,-3.31371 2.68629,-6 6,-6 3.31371,0 6,2.68629 6,6 0,3.31371 -2.68629,6 -6,6 -3.31371,0 -6,-2.68629 -6,-6 z"
         id="path124-7" />
      <path
         style="fill:#00bb31;stroke:none;stroke-width:1"
         inkscape:connector-curvature="0"
         d="m 333.78031,463.5575 c 0,-3.31371 2.68629,-6 6,-6 3.31371,0 6,2.68629 6,6 0,3.31371 -2.68629,6 -6,6 -3.31371,0 -6,-2.68629 -6,-6 z"
         id="path126" />
      <path
         style="fill:#00bb31;stroke:none;stroke-width:1"
         inkscape:connector-curvature="0"
         d="m 372.78031,463.5575 21.99877,4.73616 9.71813,-1.99605 12.72677,-7.16732 6.30781,-14.90017 14.69274,-3.46243 -14.6917,-0.53757 -6.30729,12.90017 -12.72625,5.16732 -9.71775,0.53515"
         id="path128-8" />
      <path
         style="fill:none;stroke:#00bb31;stroke-width:6"
         inkscape:connector-curvature="0"
         d="m -646.91939,505.98766 -23,-23 h -26.5"
         id="path130" />
      <path
         style="fill:none;stroke:#00bb31;stroke-width:6"
         inkscape:connector-curvature="0"
         d="m -622.9287,513.0195 -23.99069,-7.03184 v -16 l -23,-23 h -53 l 26.5,39 h 26.5"
         id="path132-7" />
      <path
         style="fill:#00bb31;stroke:none;stroke-width:1"
         inkscape:connector-curvature="0"
         d="m -702.41939,482.98766 c 0,-3.31371 2.68629,-6 6,-6 3.31371,0 6,2.68629 6,6 0,3.31371 -2.68629,6 -6,6 -3.31371,0 -6,-2.68629 -6,-6 z"
         id="path134" />
      <path
         style="fill:#00bb31;stroke:none;stroke-width:1"
         inkscape:connector-curvature="0"
         d="m -675.91939,505.98766 c 0,-3.31371 2.68629,-6 6,-6 3.31371,0 6,2.68629 6,6 0,3.31371 -2.68629,6 -6,6 -3.31371,0 -6,-2.68629 -6,-6 z"
         id="path136-2" />
      <path
         style="fill:#00bb31;stroke:none;stroke-width:1"
         inkscape:connector-curvature="0"
         d="m -619.4044,500.99559 7.34193,-2.19587 7.78697,-8.03501 7.15924,-4.48452 8.36334,-1.73677 10.93609,-8.3232 10.69921,6.68266 1.98933,-3.64309 0.68464,0.004 2.3244,-3.88256 8.47652,-3.96997 12.94293,-3.74362 0.73335,0.14175 1.78244,-1.11964 4.32556,-14.11699 7.09584,-4.20107 14.86144,-2.03414 -12.04966,4.87912 -5.68995,5.62356 -2.3506,12.51068 1.2604,0.24362 12.54156,-4.65953 3.95521,-7.70311 -5.0803,11.54162 -13.10411,6.57879 -3.1472,-0.002 -3.39582,3.3562 -6.4178,9.15488 -11.31351,-0.0664 -5.00361,9.16318 -8.99837,-0.39505 -11.62229,-4.98859 -11.49863,10.24245 -8.92589,3.65603 -7.72179,6.40378 -8.34951,9.95426 -7.63994,3.21262 -20.4664,-19.05575"
         id="path138" />
      <path
         style="fill:none;stroke:#00bb31;stroke-width:6"
         inkscape:connector-curvature="0"
         d="m -219.44887,437.04201 24,-24 h 30"
         id="path140-6" />
      <path
         style="fill:none;stroke:#00bb31;stroke-width:6"
         inkscape:connector-curvature="0"
         d="m -252.44884,436.9987 32.99997,0.0433 v -19 l 24,-24 h 60 l -30,43 h -30"
         id="path142-6" />
      <path
         style="fill:#00bb31;stroke:none;stroke-width:1"
         inkscape:connector-curvature="0"
         d="m -171.44887,413.04201 c 0,-3.31371 2.68629,-6 6,-6 3.31371,0 6,2.68629 6,6 0,3.31371 -2.68629,6 -6,6 -3.31371,0 -6,-2.68629 -6,-6 z"
         id="path144" />
      <path
         style="fill:#00bb31;stroke:none;stroke-width:1"
         inkscape:connector-curvature="0"
         d="m -201.44887,437.04201 c 0,-3.31371 2.68629,-6 6,-6 3.31371,0 6,2.68629 6,6 0,3.31371 -2.68629,6 -6,6 -3.31371,0 -6,-2.68629 -6,-6 z"
         id="path146-2" />
      <path
         style="fill:#00bb31;stroke:none;stroke-width:1"
         inkscape:connector-curvature="0"
         d="m -219.44887,437.04201 -32.99096,-6.90991 -11.03391,7.74052 -5.63585,12.75806 -16.11416,1.61333 -5.73365,6.92793 -9.76849,11.79825 -6.90364,9.83428 6.89839,-5.83429 9.76587,-9.79825 5.73102,-4.92793 16.11153,0.38667 5.63322,-10.75806 11.03163,-6.00732"
         id="path148" />
      <path
         style="fill:none;stroke:#00bb31;stroke-width:6"
         inkscape:connector-curvature="0"
         d="m 2478.3563,403.23431 -27,-27 h -28.5"
         id="path150" />
      <path
         style="fill:none;stroke:#00bb31;stroke-width:6"
         inkscape:connector-curvature="0"
         d="m 2487.9784,433.75341 -9.6221,-30.51909 v -15 l -27,-27 h -57 l 28.5,42 h 28.5"
         id="path152-9" />
      <path
         style="fill:#00bb31;stroke:none;stroke-width:1"
         inkscape:connector-curvature="0"
         d="m 2416.8563,376.23431 c 0,-3.31371 2.6863,-6 6,-6 3.3137,0 6,2.68629 6,6 0,3.31371 -2.6863,6 -6,6 -3.3137,0 -6,-2.68629 -6,-6 z"
         id="path154" />
      <path
         style="fill:#00bb31;stroke:none;stroke-width:1"
         inkscape:connector-curvature="0"
         d="m 2445.3563,403.23431 c 0,-3.31371 2.6863,-6 6,-6 3.3137,0 6,2.68629 6,6 0,3.31371 -2.6863,6 -6,6 -3.3137,0 -6,-2.68629 -6,-6 z"
         id="path156" />
      <path
         style="fill:#00bb31;stroke:none;stroke-width:1"
         inkscape:connector-curvature="0"
         d="m 2478.3563,403.23431 2.9531,32.6217 -3.8235,13.87877 1.5076,11.83067 -1.6464,11.60054 -6.2192,6.81707 9.1632,-4.10915 3.1184,-10.24658 -0.036,-10.47671 5.5793,-13.55478 4.5803,-8.55457 1.1139,-1.39046"
         id="path158-7" />
      <path
         style="fill:none;stroke:#00bb31;stroke-width:6"
         inkscape:connector-curvature="0"
         d="m 636.9059,443.90388 -20,-20 h -27.5"
         id="path160" />
      <path
         style="fill:none;stroke:#00bb31;stroke-width:6"
         inkscape:connector-curvature="0"
         d="m 657.90586,443.94533 -20.99996,-0.0414 v -16 l -20,-20 h -55 l 27.5,36 h 27.5"
         id="path162-0" />
      <path
         style="fill:#00bb31;stroke:none;stroke-width:1"
         inkscape:connector-curvature="0"
         d="m 583.4059,423.90388 c 0,-3.31371 2.68629,-6 6,-6 3.31371,0 6,2.68629 6,6 0,3.31371 -2.68629,6 -6,6 -3.31371,0 -6,-2.68629 -6,-6 z"
         id="path164" />
      <path
         style="fill:#00bb31;stroke:none;stroke-width:1"
         inkscape:connector-curvature="0"
         d="m 610.9059,443.90388 c 0,-3.31371 2.68629,-6 6,-6 3.31371,0 6,2.68629 6,6 0,3.31371 -2.68629,6 -6,6 -3.31371,0 -6,-2.68629 -6,-6 z"
         id="path166-3" />
      <path
         style="fill:#00bb31;stroke:none;stroke-width:1"
         inkscape:connector-curvature="0"
         d="m 636.9059,443.90388 20.99063,4.7697 9.27867,-6.54173 12.79323,-0.38047 2.01787,-13.56726 7.65773,-5.06914 -7.64983,1.06915 -2.01392,11.56727 -12.78928,-1.61953 -9.2758,5.08521"
         id="path168" />
      <path
         style="fill:none;stroke:#00bb31;stroke-width:6"
         inkscape:connector-curvature="0"
         d="m 141.64804,628.28267 35,-35 h 24.5"
         id="path170-7" />
      <path
         style="fill:none;stroke:#00bb31;stroke-width:6"
         inkscape:connector-curvature="0"
         d="m 128.77988,658.67034 12.86815,-30.38767 v -20 l 35,-35 h 49 l -24.5,55 h -24.5"
         id="path172" />
      <path
         style="fill:#00bb31;stroke:none;stroke-width:1"
         inkscape:connector-curvature="0"
         d="m 195.14804,593.28267 c 0,-3.31371 2.68629,-6 6,-6 3.31371,0 6,2.68629 6,6 0,3.31371 -2.68629,6 -6,6 -3.31371,0 -6,-2.68629 -6,-6 z"
         id="path174" />
      <path
         style="fill:#00bb31;stroke:none;stroke-width:1"
         inkscape:connector-curvature="0"
         d="m 170.64804,628.28267 c 0,-3.31371 2.68629,-6 6,-6 3.31371,0 6,2.68629 6,6 0,3.31371 -2.68629,6 -6,6 -3.31371,0 -6,-2.68629 -6,-6 z"
         id="path176-2" />
      <path
         style="fill:#00bb31;stroke:none;stroke-width:1"
         inkscape:connector-curvature="0"
         d="m 141.64804,628.28267 -21.97616,26.53074 1.19787,1.32415 10.44558,8.47884 -3.94474,12.82841 5.88748,13.4006 7.40685,11.76001 9.86207,9.76706 1.79166,13.87419 8.47117,6.67448 -4.65354,-5.48044 0.11715,-13.27717 -7.95326,-9.17004 -5.49803,-11.16299 -3.97867,-12.80358 5.85355,-12.23139 -6.78913,-6.26826"
         id="path178" />
      <path
         style="fill:none;stroke:#00bb31;stroke-width:6"
         inkscape:connector-curvature="0"
         d="m 1298.5984,489.32997 29,-29 h 26"
         id="path180-3" />
      <path
         style="fill:none;stroke:#00bb31;stroke-width:6"
         inkscape:connector-curvature="0"
         d="m 1281.6362,478.73352 16.9622,10.59645 v -17 l 29,-29 h 52 l -26,46 h -26"
         id="path182" />
      <path
         style="fill:#00bb31;stroke:none;stroke-width:1"
         inkscape:connector-curvature="0"
         d="m 1347.5984,460.32997 c 0,-3.31371 2.6863,-6 6,-6 3.3137,0 6,2.68629 6,6 0,3.31371 -2.6863,6 -6,6 -3.3137,0 -6,-2.68629 -6,-6 z"
         id="path184-5" />
      <path
         style="fill:#00bb31;stroke:none;stroke-width:1"
         inkscape:connector-curvature="0"
         d="m 1321.5984,489.32997 c 0,-3.31371 2.6863,-6 6,-6 3.3137,0 6,2.68629 6,6 0,3.31371 -2.6863,6 -6,6 -3.3137,0 -6,-2.68629 -6,-6 z"
         id="path186" />
      <path
         style="fill:#00bb31;stroke:none;stroke-width:1"
         inkscape:connector-curvature="0"
         d="m 1298.5984,489.32997 -18.486,-8.15721 0.01,0.18604 -11.2217,11.95416 -3.7461,7.69775 -1.9307,8.53684 -6.371,8.20226 8.4427,-4.78059 2.9666,-6.826 4.7821,-5.98691 12.2575,-10.24332 0.6629,-8.99237 -2.8012,-4.62632"
         id="path188-1" />
    </g>
  </g>
</svg>
