<?xml version="1.0" encoding="UTF-8" standalone="no"?>
<svg
   xmlns:dc="http://purl.org/dc/elements/1.1/"
   xmlns:cc="http://creativecommons.org/ns#"
   xmlns:rdf="http://www.w3.org/1999/02/22-rdf-syntax-ns#"
   xmlns:svg="http://www.w3.org/2000/svg"
   xmlns="http://www.w3.org/2000/svg"
   xmlns:sodipodi="http://sodipodi.sourceforge.net/DTD/sodipodi-0.dtd"
   xmlns:inkscape="http://www.inkscape.org/namespaces/inkscape"
   version="1.1"
   width="74mm"
   height="40mm"
   viewBox="0 0 279.68503 151.1811"
   id="svg278"
   sodipodi:docname="humanity.svg"
   inkscape:version="0.92.4 5da689c313, 2019-01-14">
  <metadata
     id="metadata284">
    <rdf:RDF>
      <cc:Work
         rdf:about="">
        <dc:format>image/svg+xml</dc:format>
        <dc:type
           rdf:resource="http://purl.org/dc/dcmitype/StillImage" />
        <dc:title />
      </cc:Work>
    </rdf:RDF>
  </metadata>
  <defs
     id="defs282" />
  <sodipodi:namedview
     pagecolor="#ffffff"
     bordercolor="#666666"
     borderopacity="1"
     objecttolerance="10"
     gridtolerance="10"
     guidetolerance="10"
     inkscape:pageopacity="0"
     inkscape:pageshadow="2"
     inkscape:window-width="1916"
     inkscape:window-height="1027"
     id="namedview280"
     showgrid="false"
     inkscape:zoom="3.4308779"
     inkscape:cx="104.07157"
     inkscape:cy="45.388306"
     inkscape:window-x="2"
     inkscape:window-y="51"
     inkscape:window-maximized="1"
     inkscape:current-layer="svg278"
     units="mm" />
  <rect
     style="color:#000000;clip-rule:nonzero;display:inline;overflow:visible;visibility:visible;opacity:1;isolation:auto;mix-blend-mode:normal;color-interpolation:sRGB;color-interpolation-filters:linearRGB;solid-color:#000000;solid-opacity:1;vector-effect:none;fill:#000000;fill-opacity:1;fill-rule:nonzero;stroke:none;stroke-width:0.37795275;stroke-linecap:butt;stroke-linejoin:miter;stroke-miterlimit:4;stroke-dasharray:none;stroke-dashoffset:0;stroke-opacity:1;color-rendering:auto;image-rendering:auto;shape-rendering:auto;text-rendering:auto;enable-background:accumulate"
     id="rect636"
     width="282.72647"
     height="154.18794"
     x="-1.5207158"
     y="-1.5034201" />
  <path
     d=""
     id="path74"
     inkscape:connector-curvature="0"
     style="font-family:none;opacity:0;mix-blend-mode:normal;fill:none;fill-rule:nonzero;stroke:#00bb31;stroke-width:0.62622392;stroke-linecap:butt;stroke-linejoin:miter;stroke-miterlimit:10;stroke-dasharray:none;stroke-dashoffset:0" />
  <path
     d=""
     id="path78"
     inkscape:connector-curvature="0"
     style="font-family:none;opacity:0;mix-blend-mode:normal;fill:none;fill-rule:nonzero;stroke:#00bb31;stroke-width:0.62622392;stroke-linecap:butt;stroke-linejoin:miter;stroke-miterlimit:10;stroke-dasharray:none;stroke-dashoffset:0" />
  <path
     d=""
     id="path82"
     inkscape:connector-curvature="0"
     style="font-family:none;opacity:0;mix-blend-mode:normal;fill:none;fill-rule:nonzero;stroke:#00bb31;stroke-width:0.62622392;stroke-linecap:butt;stroke-linejoin:miter;stroke-miterlimit:10;stroke-dasharray:none;stroke-dashoffset:0" />
  <path
     d=""
     id="path86"
     inkscape:connector-curvature="0"
     style="font-family:none;opacity:0;mix-blend-mode:normal;fill:none;fill-rule:nonzero;stroke:#00bb31;stroke-width:0.62622392;stroke-linecap:butt;stroke-linejoin:miter;stroke-miterlimit:10;stroke-dasharray:none;stroke-dashoffset:0" />
  <path
     d=""
     id="path92"
     inkscape:connector-curvature="0"
     style="font-family:none;opacity:0;mix-blend-mode:normal;fill:none;fill-rule:nonzero;stroke:#00bb31;stroke-width:0.62622392;stroke-linecap:butt;stroke-linejoin:miter;stroke-miterlimit:10;stroke-dasharray:none;stroke-dashoffset:0" />
  <path
     d=""
     id="path94"
     inkscape:connector-curvature="0"
     style="font-family:none;mix-blend-mode:normal;fill:none;fill-rule:nonzero;stroke:none;stroke-width:0.10437066;stroke-linecap:butt;stroke-linejoin:miter;stroke-miterlimit:10;stroke-dasharray:none;stroke-dashoffset:0" />
  <path
     d=""
     id="path96"
     inkscape:connector-curvature="0"
     style="font-family:none;mix-blend-mode:normal;fill:none;fill-rule:nonzero;stroke:none;stroke-width:0.10437066;stroke-linecap:butt;stroke-linejoin:miter;stroke-miterlimit:10;stroke-dasharray:none;stroke-dashoffset:0" />
  <path
     d=""
     id="path98"
     inkscape:connector-curvature="0"
     style="font-family:none;mix-blend-mode:normal;fill:none;fill-rule:nonzero;stroke:none;stroke-width:0.10437066;stroke-linecap:butt;stroke-linejoin:miter;stroke-miterlimit:10;stroke-dasharray:none;stroke-dashoffset:0" />
  <path
     d=""
     id="path102"
     inkscape:connector-curvature="0"
     style="font-family:none;opacity:0;mix-blend-mode:normal;fill:none;fill-rule:nonzero;stroke:#00bb31;stroke-width:0.62622392;stroke-linecap:butt;stroke-linejoin:miter;stroke-miterlimit:10;stroke-dasharray:none;stroke-dashoffset:0" />
  <path
     d=""
     id="path106"
     inkscape:connector-curvature="0"
     style="font-family:none;opacity:0;mix-blend-mode:normal;fill:none;fill-rule:nonzero;stroke:#00bb31;stroke-width:0.62622392;stroke-linecap:butt;stroke-linejoin:miter;stroke-miterlimit:10;stroke-dasharray:none;stroke-dashoffset:0" />
  <path
     d=""
     id="path112"
     inkscape:connector-curvature="0"
     style="font-family:none;opacity:0;mix-blend-mode:normal;fill:none;fill-rule:nonzero;stroke:#00bb31;stroke-width:0.62622392;stroke-linecap:butt;stroke-linejoin:miter;stroke-miterlimit:10;stroke-dasharray:none;stroke-dashoffset:0" />
  <path
     d=""
     id="path116"
     inkscape:connector-curvature="0"
     style="font-family:none;opacity:0;mix-blend-mode:normal;fill:none;fill-rule:nonzero;stroke:#00bb31;stroke-width:0.62622392;stroke-linecap:butt;stroke-linejoin:miter;stroke-miterlimit:10;stroke-dasharray:none;stroke-dashoffset:0" />
  <path
     d=""
     id="path120"
     inkscape:connector-curvature="0"
     style="font-family:none;opacity:0;mix-blend-mode:normal;fill:none;fill-rule:nonzero;stroke:#00bb31;stroke-width:0.62622392;stroke-linecap:butt;stroke-linejoin:miter;stroke-miterlimit:10;stroke-dasharray:none;stroke-dashoffset:0" />
  <path
     d=""
     id="path124"
     inkscape:connector-curvature="0"
     style="font-family:none;opacity:0;mix-blend-mode:normal;fill:none;fill-rule:nonzero;stroke:#00bb31;stroke-width:0.62622392;stroke-linecap:butt;stroke-linejoin:miter;stroke-miterlimit:10;stroke-dasharray:none;stroke-dashoffset:0" />
  <path
     d=""
     id="path128"
     inkscape:connector-curvature="0"
     style="font-family:none;opacity:0;mix-blend-mode:normal;fill:none;fill-rule:nonzero;stroke:#00bb31;stroke-width:0.62622392;stroke-linecap:butt;stroke-linejoin:miter;stroke-miterlimit:10;stroke-dasharray:none;stroke-dashoffset:0" />
  <path
     d=""
     id="path132"
     inkscape:connector-curvature="0"
     style="font-family:none;opacity:0;mix-blend-mode:normal;fill:none;fill-rule:nonzero;stroke:#00bb31;stroke-width:0.62622392;stroke-linecap:butt;stroke-linejoin:miter;stroke-miterlimit:10;stroke-dasharray:none;stroke-dashoffset:0" />
  <path
     d=""
     id="path136"
     inkscape:connector-curvature="0"
     style="font-family:none;opacity:0;mix-blend-mode:normal;fill:none;fill-rule:nonzero;stroke:#00bb31;stroke-width:0.62622392;stroke-linecap:butt;stroke-linejoin:miter;stroke-miterlimit:10;stroke-dasharray:none;stroke-dashoffset:0" />
  <path
     d=""
     id="path140"
     inkscape:connector-curvature="0"
     style="font-family:none;opacity:0;mix-blend-mode:normal;fill:none;fill-rule:nonzero;stroke:#00bb31;stroke-width:0.62622392;stroke-linecap:butt;stroke-linejoin:miter;stroke-miterlimit:10;stroke-dasharray:none;stroke-dashoffset:0" />
  <path
     d=""
     id="path142"
     inkscape:connector-curvature="0"
     style="font-family:none;mix-blend-mode:normal;fill:none;fill-rule:nonzero;stroke:none;stroke-width:0.10437066;stroke-linecap:butt;stroke-linejoin:miter;stroke-miterlimit:10;stroke-dasharray:none;stroke-dashoffset:0" />
  <path
     d=""
     id="path146"
     inkscape:connector-curvature="0"
     style="font-family:none;opacity:0;mix-blend-mode:normal;fill:none;fill-rule:nonzero;stroke:#00bb31;stroke-width:0.62622392;stroke-linecap:butt;stroke-linejoin:miter;stroke-miterlimit:10;stroke-dasharray:none;stroke-dashoffset:0" />
  <path
     d=""
     id="path152"
     inkscape:connector-curvature="0"
     style="font-family:none;opacity:0;mix-blend-mode:normal;fill:none;fill-rule:nonzero;stroke:#00bb31;stroke-width:0.62622392;stroke-linecap:butt;stroke-linejoin:miter;stroke-miterlimit:10;stroke-dasharray:none;stroke-dashoffset:0" />
  <path
     d=""
     id="path158"
     inkscape:connector-curvature="0"
     style="font-family:none;opacity:0;mix-blend-mode:normal;fill:none;fill-rule:nonzero;stroke:#00bb31;stroke-width:0.62622392;stroke-linecap:butt;stroke-linejoin:miter;stroke-miterlimit:10;stroke-dasharray:none;stroke-dashoffset:0" />
  <path
     d=""
     id="path162"
     inkscape:connector-curvature="0"
     style="font-family:none;opacity:0;mix-blend-mode:normal;fill:none;fill-rule:nonzero;stroke:#00bb31;stroke-width:0.62622392;stroke-linecap:butt;stroke-linejoin:miter;stroke-miterlimit:10;stroke-dasharray:none;stroke-dashoffset:0" />
  <path
     d=""
     id="path166"
     inkscape:connector-curvature="0"
     style="font-family:none;opacity:0;mix-blend-mode:normal;fill:none;fill-rule:nonzero;stroke:#00bb31;stroke-width:0.62622392;stroke-linecap:butt;stroke-linejoin:miter;stroke-miterlimit:10;stroke-dasharray:none;stroke-dashoffset:0" />
  <path
     d=""
     id="path170"
     inkscape:connector-curvature="0"
     style="font-family:none;opacity:0;mix-blend-mode:normal;fill:none;fill-rule:nonzero;stroke:#00bb31;stroke-width:0.62622392;stroke-linecap:butt;stroke-linejoin:miter;stroke-miterlimit:10;stroke-dasharray:none;stroke-dashoffset:0" />
  <path
     d=""
     id="path176"
     inkscape:connector-curvature="0"
     style="font-family:none;opacity:0;mix-blend-mode:normal;fill:none;fill-rule:nonzero;stroke:#00bb31;stroke-width:0.62622392;stroke-linecap:butt;stroke-linejoin:miter;stroke-miterlimit:10;stroke-dasharray:none;stroke-dashoffset:0" />
  <path
     d=""
     id="path180"
     inkscape:connector-curvature="0"
     style="font-family:none;opacity:0;mix-blend-mode:normal;fill:none;fill-rule:nonzero;stroke:#00bb31;stroke-width:0.62622392;stroke-linecap:butt;stroke-linejoin:miter;stroke-miterlimit:10;stroke-dasharray:none;stroke-dashoffset:0" />
  <path
     d=""
     id="path184"
     inkscape:connector-curvature="0"
     style="font-family:none;opacity:0;mix-blend-mode:normal;fill:none;fill-rule:nonzero;stroke:#00bb31;stroke-width:0.62622392;stroke-linecap:butt;stroke-linejoin:miter;stroke-miterlimit:10;stroke-dasharray:none;stroke-dashoffset:0" />
  <path
     d=""
     id="path188"
     inkscape:connector-curvature="0"
     style="font-family:none;opacity:0;mix-blend-mode:normal;fill:none;fill-rule:nonzero;stroke:#00bb31;stroke-width:0.62622392;stroke-linecap:butt;stroke-linejoin:miter;stroke-miterlimit:10;stroke-dasharray:none;stroke-dashoffset:0" />
  <path
     d=""
     id="path192"
     inkscape:connector-curvature="0"
     style="font-family:none;opacity:0;mix-blend-mode:normal;fill:none;fill-rule:nonzero;stroke:#00bb31;stroke-width:0.62622392;stroke-linecap:butt;stroke-linejoin:miter;stroke-miterlimit:10;stroke-dasharray:none;stroke-dashoffset:0" />
  <path
     d=""
     id="path196"
     inkscape:connector-curvature="0"
     style="font-family:none;opacity:0;mix-blend-mode:normal;fill:none;fill-rule:nonzero;stroke:#00bb31;stroke-width:0.62622392;stroke-linecap:butt;stroke-linejoin:miter;stroke-miterlimit:10;stroke-dasharray:none;stroke-dashoffset:0" />
  <path
     d=""
     id="path200"
     inkscape:connector-curvature="0"
     style="font-family:none;opacity:0;mix-blend-mode:normal;fill:none;fill-rule:nonzero;stroke:#00bb31;stroke-width:0.62622392;stroke-linecap:butt;stroke-linejoin:miter;stroke-miterlimit:10;stroke-dasharray:none;stroke-dashoffset:0" />
  <path
     d=""
     id="path204"
     inkscape:connector-curvature="0"
     style="font-family:none;opacity:0;mix-blend-mode:normal;fill:none;fill-rule:nonzero;stroke:#00bb31;stroke-width:0.62622392;stroke-linecap:butt;stroke-linejoin:miter;stroke-miterlimit:10;stroke-dasharray:none;stroke-dashoffset:0" />
  <path
     d=""
     id="path208"
     inkscape:connector-curvature="0"
     style="font-family:none;opacity:0;mix-blend-mode:normal;fill:none;fill-rule:nonzero;stroke:#00bb31;stroke-width:0.62622392;stroke-linecap:butt;stroke-linejoin:miter;stroke-miterlimit:10;stroke-dasharray:none;stroke-dashoffset:0" />
  <path
     d=""
     id="path214"
     inkscape:connector-curvature="0"
     style="font-family:none;opacity:0;mix-blend-mode:normal;fill:none;fill-rule:nonzero;stroke:#00bb31;stroke-width:0.62622392;stroke-linecap:butt;stroke-linejoin:miter;stroke-miterlimit:10;stroke-dasharray:none;stroke-dashoffset:0" />
  <path
     d=""
     id="path218"
     inkscape:connector-curvature="0"
     style="font-family:none;opacity:0;mix-blend-mode:normal;fill:none;fill-rule:nonzero;stroke:#00bb31;stroke-width:0.62622392;stroke-linecap:butt;stroke-linejoin:miter;stroke-miterlimit:10;stroke-dasharray:none;stroke-dashoffset:0" />
  <path
     d=""
     id="path224"
     inkscape:connector-curvature="0"
     style="font-family:none;opacity:0;mix-blend-mode:normal;fill:none;fill-rule:nonzero;stroke:#00bb31;stroke-width:0.62622392;stroke-linecap:butt;stroke-linejoin:miter;stroke-miterlimit:10;stroke-dasharray:none;stroke-dashoffset:0" />
  <path
     d=""
     id="path228"
     inkscape:connector-curvature="0"
     style="font-family:none;opacity:0;mix-blend-mode:normal;fill:none;fill-rule:nonzero;stroke:#00bb31;stroke-width:0.62622392;stroke-linecap:butt;stroke-linejoin:miter;stroke-miterlimit:10;stroke-dasharray:none;stroke-dashoffset:0" />
  <path
     d=""
     id="path234"
     inkscape:connector-curvature="0"
     style="font-family:none;opacity:0;mix-blend-mode:normal;fill:none;fill-rule:nonzero;stroke:#00bb31;stroke-width:0.62622392;stroke-linecap:butt;stroke-linejoin:miter;stroke-miterlimit:10;stroke-dasharray:none;stroke-dashoffset:0" />
  <path
     d=""
     id="path238"
     inkscape:connector-curvature="0"
     style="font-family:none;opacity:0;mix-blend-mode:normal;fill:none;fill-rule:nonzero;stroke:#00bb31;stroke-width:0.62622392;stroke-linecap:butt;stroke-linejoin:miter;stroke-miterlimit:10;stroke-dasharray:none;stroke-dashoffset:0" />
  <path
     d=""
     id="path244"
     inkscape:connector-curvature="0"
     style="font-family:none;opacity:0;mix-blend-mode:normal;fill:none;fill-rule:nonzero;stroke:#00bb31;stroke-width:0.62622392;stroke-linecap:butt;stroke-linejoin:miter;stroke-miterlimit:10;stroke-dasharray:none;stroke-dashoffset:0" />
  <path
     d=""
     id="path248"
     inkscape:connector-curvature="0"
     style="font-family:none;opacity:0;mix-blend-mode:normal;fill:none;fill-rule:nonzero;stroke:#00bb31;stroke-width:0.62622392;stroke-linecap:butt;stroke-linejoin:miter;stroke-miterlimit:10;stroke-dasharray:none;stroke-dashoffset:0" />
  <path
     d=""
     id="path254"
     inkscape:connector-curvature="0"
     style="font-family:none;opacity:0;mix-blend-mode:normal;fill:none;fill-rule:nonzero;stroke:#00bb31;stroke-width:0.62622392;stroke-linecap:butt;stroke-linejoin:miter;stroke-miterlimit:10;stroke-dasharray:none;stroke-dashoffset:0" />
  <path
     d=""
     id="path260"
     inkscape:connector-curvature="0"
     style="font-family:none;opacity:0;mix-blend-mode:normal;fill:none;fill-rule:nonzero;stroke:#00bb31;stroke-width:0.62622392;stroke-linecap:butt;stroke-linejoin:miter;stroke-miterlimit:10;stroke-dasharray:none;stroke-dashoffset:0" />
  <path
     d=""
     id="path264"
     inkscape:connector-curvature="0"
     style="font-family:none;opacity:0;mix-blend-mode:normal;fill:none;fill-rule:nonzero;stroke:#00bb31;stroke-width:0.62622392;stroke-linecap:butt;stroke-linejoin:miter;stroke-miterlimit:10;stroke-dasharray:none;stroke-dashoffset:0" />
  <path
     d=""
     id="path268"
     inkscape:connector-curvature="0"
     style="font-family:none;opacity:0;mix-blend-mode:normal;fill:none;fill-rule:nonzero;stroke:#00bb31;stroke-width:0.62622392;stroke-linecap:butt;stroke-linejoin:miter;stroke-miterlimit:10;stroke-dasharray:none;stroke-dashoffset:0" />
  <g
     transform="matrix(0.09608682,0,0,0.09608682,61.840894,17.094953)"
     id="g3568">
    <g
       stroke-width="none"
       stroke-miterlimit="10"
       font-weight="none"
       font-size="none"
       text-anchor="none"
       style="font-family:none;mix-blend-mode:normal;fill:none;fill-rule:nonzero;stroke:none;stroke-linecap:butt;stroke-linejoin:miter;stroke-miterlimit:10;stroke-dasharray:none;stroke-dashoffset:0"
       id="g3566">
      <path
         style="fill:#d0d0ce;stroke:none;stroke-width:1"
         inkscape:connector-curvature="0"
         d="m -524.72471,768.17716 9.48889,-2.89623 8.58332,2.27782 14.26832,-0.11823 9.4886,-3.25514 10.17871,-0.40278 11.16139,-8.94172 9.68633,-2.42989 11.38919,-3.90271 10.43805,0.46823 12.65419,-7.26606 13.57768,4.93862 7.18601,-8.88363 11.02563,-1.47241 13.62585,1.19186 14.98256,-1.84614 12.01973,-8.03269 10.14943,-1.33979 11.72602,4.90046 11.06333,-2.5223 15.14872,3.51981 12.97799,-7.05998 5.80541,11.06721 13.07199,6.24497 11.56236,7.8434 0.65574,9.44586 0.77873,10.53788 -274.52213,-0.21072 z"
         id="path3476" />
      <path
         style="fill:#d0d0ce;stroke:none;stroke-width:1"
         inkscape:connector-curvature="0"
         d="m 362.89171,524.97798 55.11514,217.11361 c 2.43052,9.57447 4.20015,18.93537 5.30889,28.08271 l -1.61779,0.022 -12.3086,-4.09817 -15.95964,-1.62212 -8.84401,-10.28412 -8.80628,-13.62028 -11.52181,-1.49636 -11.90623,-10.58194 -5.70361,-12.67617 -2.60433,-9.35282 -4.51252,-11.46444 -6.99526,-13.40485 -9.60701,-9.04177 1.28409,-15.76576 -8.27472,-12.10368 -3.04778,-14.93063 -5.07243,-14.52214 -0.14089,-15.40494 -4.98404,-15.10811 5.02516,-9.22695 -3.22559,-11.54703 5.52213,-14.83374 0.12133,-10.74005 z"
         id="path3478" />
      <path
         style="fill:#d0d0ce;stroke:none;stroke-width:1"
         inkscape:connector-curvature="0"
         d="m 577.63197,546.38795 -26.05285,-28.48109 8.30699,0.37444 13.45909,0.21551 10.66925,5.53627 14.11374,6.97514 14.45434,-5.18035 4.01579,4.1559 z"
         id="path3480" />
      <path
         style="fill:#d0d0ce;stroke:none;stroke-width:1"
         inkscape:connector-curvature="0"
         d="m 747.11355,399.41349 -1.09394,43.59425 -4.03179,1.5768 -8.72529,13.4269 -14.71653,4.01675 -11.99071,-0.30006 -7.65164,5.30066 -12.80515,-1.6939 -15.476,0.53548 -9.25446,-0.16558 -13.80706,-6.86751 -10.66421,6.21477 26.24321,-67.74578 z"
         id="path3482" />
      <path
         style="fill:#d0d0ce;stroke:none;stroke-width:1"
         inkscape:connector-curvature="0"
         d="m 829.05894,541.99078 11.21634,11.02389 2.27988,9.53008 0.33259,9.76018 0.82952,14.61235 -1.8312,8.2605 -0.75165,11.17147 5.44164,14.90784 -10.57435,13.41659 -5.90061,12.18568 -7.13522,8.99502 -6.93305,12.22903 -11.81772,5.60772 -7.10023,11.95796 -11.13612,-4.10331 42.52547,-140.08592 z"
         id="path3484" />
      <path
         style="fill:#d0d0ce;stroke:none;stroke-width:1"
         inkscape:connector-curvature="0"
         d="m 1404.8683,562.60698 3.6401,207.58277 -6.3829,-2.54281 -2.3214,-16.37398 -8.5633,-9.75002 -7.8633,-11.81897 -4.2176,-14.04423 4.3645,-16.27257 1.3091,-13.32218 -5.2279,-11.55601 -5.9564,-10.59697 1.9146,-14.26744 -1.83,-11.93129 6.2531,-11.44629 -4.5233,-7.71372 -5.0309,-14.6502 2.3151,-9.16399 -2.1714,-13.79667 -2.7479,-7.70814 0.9249,-9.99399 z"
         id="path3486" />
      <path
         style="fill:#d0d0ce;stroke:none;stroke-width:1"
         inkscape:connector-curvature="0"
         d="m 1418.4435,579.99351 13.5786,4.62083 8.2085,3.82342 4.0517,13.67006 8.1215,7.82139 13.6772,9.30855 -0.3323,9.54483 -0.5971,12.02193 11.2446,13.04963 -1.3945,15.0961 -1.6701,11.53612 -9.2311,14.13203 6.3124,12.13446 -2.6177,11.46157 -13.9605,7.69141 -0.672,12.25296 -9.0745,5.18774 -2.7183,12.00767 -5.022,9.8911 -8.6413,4.93565 -0.7631,-0.009 -19.7861,-192.72705 z"
         id="path3488" />
      <path
         style="fill:#d0d0ce;stroke:none;stroke-width:1"
         inkscape:connector-curvature="0"
         d="m 1440.3136,398.23276 83.9921,-1.15564 5.1178,371.96479 -83.9921,1.15564 -0.3451,-25.08311 0.7594,0.0764 9.0438,-4.15215 5.877,-9.40824 3.7696,-11.72023 9.4977,-4.36494 1.7529,-12.14553 14.586,-6.42672 3.621,-11.18518 -5.2146,-12.64513 10.4446,-13.26033 2.6837,-11.34324 2.724,-14.91364 -10.0464,-13.99288 1.6578,-11.92203 1.1751,-9.47805 -12.8004,-10.48158 -7.3981,-8.50895 -2.8269,-13.9748 -7.8383,-4.53434 -13.1167,-5.80351 -11.0166,-3.5366 z"
         id="path3490" />
      <path
         style="fill:#d0d0ce;stroke:none;stroke-width:1"
         inkscape:connector-curvature="0"
         d="m 1928.5997,746.90153 -15.1903,1.73095 -8.0225,1.80144 -8.0039,3.88919 -10.8598,2.87572 -15.5461,-0.43586 -13.2755,-5.15688 -12.8007,-7.959 -8.518,-11.93635 -12.7924,2.06528 -4.3261,-9.7496 -9.0846,-5.35389 -8.7778,-10.27204 -6.2412,-13.47701 -6.0411,-8.10433 -4.4164,-10.33432 -7.5364,-4.96657 -2.8906,-9.96103 -8.7188,-7.40026 -0.9824,-14.98797 -2.7038,-10.92532 -8.4228,-8.27159 3.1102,-7.65973 172.1822,134.2714 z"
         id="path3492" />
      <path
         style="fill:#d0d0ce;stroke:none;stroke-width:1"
         inkscape:connector-curvature="0"
         d="m 1917.5451,748.81859 -4.6854,21.70142 -6.306,-3.7797 -9.1698,0.0371 -14.7523,3.18634 -13.6124,-2.429 -8.4168,-3.46412 z"
         id="path3494" />
      <path
         style="fill:none;stroke:none;stroke-width:1"
         inkscape:connector-curvature="0"
         d="m 843.25962,489.83167 6.21816,-21.10295"
         id="path3496" />
      <path
         style="opacity:0;fill:none;stroke:#00bb31;stroke-width:6"
         inkscape:connector-curvature="0"
         d=""
         id="path3498" />
      <path
         style="fill:#d0d0ce;stroke:none;stroke-width:1"
         inkscape:connector-curvature="0"
         d="m 1090.683,770.5762 -95.49992,-0.14485 -33.35132,-98.0507 -72.49992,-0.10997 -33.14861,97.94983 -95.49989,-0.14485 26.10498,-88.594 11.1693,4.01211 7.00222,-12.01562 11.77147,-5.70417 6.83282,-12.28531 7.06143,-9.05306 5.80077,-12.23352 10.46429,-13.50261 -5.56335,-14.86284 0.66028,-11.17725 1.76359,-8.27519 -0.94897,-14.60507 -0.41238,-9.75714 -2.35773,-9.51112 -11.3061,-10.93181 -0.55905,-0.52636 15.09271,-51.22103 12.00864,5.93288 14.21626,-2.32099 10.23522,-1.93192 11.93393,-5.11223 10.23522,-1.93192 11.34734,4.3861 3.03755,-8.41269 0.41872,-0.34512 6.15319,5.48416 10.64687,-8.00074 12.51755,0.85932 10.22606,-5.87692 -9.09549,2.04002 -11.95226,-2.77777 -10.08158,6.08229 -2.37825,-2.78548 4.37603,-3.60685 5.31571,-14.7222 15.00219,-5.99453 6.69449,-13.27342 -9.45206,10.37587 -16.38097,4.54576 -6.69449,13.27342 -4.523,2.77031 -0.61176,-0.71652 -11.17411,5.1843 -9.66994,0.0135 -11.36865,3.19378 -9.66994,0.0135 -13.65097,0.40254 -11.44335,-7.85133 20.76968,-70.4873 111.99987,0.16988 60.77908,208.60151 -6.3565,4.70101 -2.6953,18.19809 -4.943,7.02007 -6.9014,9.29257 -16.1553,5.99679 17.2742,-2.15648 7.4609,-7.37242 5.5024,-5.09992 3.2548,-16.27794 6.8085,-3.14979 z"
         id="path3500" />
      <path
         style="fill:none;stroke:none;stroke-width:1"
         inkscape:connector-curvature="0"
         d="m 1043.0264,607.0128 3.2493,11.152"
         id="path3502" />
      <path
         style="opacity:0;fill:none;stroke:#00bb31;stroke-width:6"
         inkscape:connector-curvature="0"
         d=""
         id="path3504" />
      <path
         style="fill:none;stroke:none;stroke-width:1"
         inkscape:connector-curvature="0"
         d="m 1097.2421,544.39571 0.018,-15.99999"
         id="path3506" />
      <path
         style="opacity:0;fill:none;stroke:#00bb31;stroke-width:6"
         inkscape:connector-curvature="0"
         d=""
         id="path3508" />
      <path
         style="fill:none;stroke:none;stroke-width:1"
         inkscape:connector-curvature="0"
         d="m 1097.2315,553.67288 0.016,-14.25005"
         id="path3510" />
      <path
         style="opacity:0;fill:none;stroke:#00bb31;stroke-width:6"
         inkscape:connector-curvature="0"
         d=""
         id="path3512" />
      <path
         style="fill:none;stroke:none;stroke-width:1"
         inkscape:connector-curvature="0"
         d="m 1247.1924,699.01093 -9.312,-17.08758"
         id="path3514" />
      <path
         style="opacity:0;fill:none;stroke:#00bb31;stroke-width:6"
         inkscape:connector-curvature="0"
         d=""
         id="path3516" />
      <path
         style="fill:#d0d0ce;stroke:none;stroke-width:1"
         inkscape:connector-curvature="0"
         d="m 1282.2006,580.68761 0.2094,-182.49988 52.8795,0.0607 -1.1114,9.97497 2.6035,7.75813 1.9132,13.83483 -2.4858,9.11914 4.7563,14.74163 4.3784,7.79687 -6.4658,11.32748 1.6068,11.96339 -2.1808,14.22918 5.7574,10.70638 5.0112,11.65166 -1.5578,13.2954 -4.6677,16.1882 3.9545,14.12056 7.6411,11.9638 8.3798,9.90829 2.0151,16.41448 6.3343,2.6616 -0.1887,164.38521 -84.9999,-0.0975 -38.7908,-71.18114 9.7891,-2.85148 5.8968,-7.3089 2.438,-12.60386 2.9248,-8.38924 12.0036,-3.33357 1.1609,-8.92481 -0.8662,-6.56215 6.7692,-9.6715 11.2195,-4.36465 3.2298,-8.64602 -5.1439,5.1337 -12.1765,2.60849 -5.1514,5.71778 -2.4598,-11.03038 -0.1774,-14.14102 2.4106,-10.77911 -6.3772,10.26313 -1.8059,13.88304 0.5644,11.16609 0.028,8.93199 -2.2789,2.25443 -6.6915,6.95762 -3.8818,6.63309 -3.395,10.84771 -6.8539,5.55274 -10.4878,1.56931 -51.6872,-94.84589 -0.2099,182.99988 -89,-0.10211 0.2482,-216.30235 0.9863,-0.89365 13.0614,-8.64392 4.8145,-11.09115 12.8875,-7.24045 3.8518,-9.07292 13.943,-4.25954 6.915,-17.53109 -6.9104,13.53109 -13.9407,2.25954 -3.8496,7.07292 -12.8851,5.24045 -4.8123,9.09115 -13.0591,6.64392 -0.986,0.64359 0.1623,-141.44736 85.5,0.0981 z"
         id="path3518" />
      <path
         style="fill:none;stroke:none;stroke-width:1"
         inkscape:connector-curvature="0"
         d="m 1602.1608,423.1657 18.2728,-6.95143"
         id="path3520" />
      <path
         style="opacity:0;fill:none;stroke:#00bb31;stroke-width:6"
         inkscape:connector-curvature="0"
         d=""
         id="path3522" />
      <path
         style="fill:#d0d0ce;stroke:none;stroke-width:1"
         inkscape:connector-curvature="0"
         d="m 1525.0805,452.48888 77.0803,-29.32318 5.6001,3.55717 6.9967,14.58605 12.8406,3.91609 8.9644,7.22886 3.557,6.62983 11.6644,-0.17596 6.4155,3.2869 12.727,8.9148 4.302,9.92361 15.7975,2.60623 -12.0589,-4.02849 -2.4327,-10.63474 -10.8577,-9.62592 -0.5244,-0.39813 11.1596,3.46675 -12.4923,-8.0587 -6.1208,-0.80162 -9.9204,-5.37132 -7.0951,-7.93999 -10.9713,-4.62722 -5.1274,-15.29717 -4.151,-4.10845 141.1138,-53.68309 29.8674,78.51076 -78.9781,30.04516 13.3184,35.00929 -6.6304,4.93792 2.9149,11.43967 -3.3515,10.74435 -6.9294,13.3262 3.6197,10.848 -2.6919,10.01656 3.8702,8.15394 -1.5805,11.12676 0.9648,10.06201 -1.6491,14.76018 2.1814,13.3344 4.9932,9.28767 -1.3545,10.57997 12.0099,4.86526 1.0965,14.62293 6.8206,13.44182 8.6792,11.29173 13.0683,8.43163 10.7775,3.17044 8.8605,0.82326 7.7943,2.6183 13.8872,6.3942 0.2855,-0.19853 11.4477,30.0918 -78.5108,29.86738 -102.4024,-269.17975 -78.9781,30.04516 z"
         id="path3524" />
      <path
         style="fill:none;stroke:none;stroke-width:1"
         inkscape:connector-curvature="0"
         d="m 2054.4756,498.35111 -8.6254,15.96166"
         id="path3526" />
      <path
         style="opacity:0;fill:none;stroke:#00bb31;stroke-width:6"
         inkscape:connector-curvature="0"
         d=""
         id="path3528" />
      <path
         style="fill:#d0d0ce;stroke:none;stroke-width:1"
         inkscape:connector-curvature="0"
         d="m 2014.4894,398.19663 93.9998,0.20021 -54.0136,99.95426 -0.9611,0.35912 -10.5284,-4.01279 -8.4321,4.96526 -11.4426,3.99746 -12.5069,-1.99148 -7.1324,-5.52018 -6.2616,7.1557 -9.5663,-0.6402 -13.4318,5.01884 -9.9288,3.85585 8.0272,-0.3368 12.481,-3.25931 1.4969,0.30165 -1.3577,0.12016 -10.3513,3.85363 -11.253,4.28594 -8.6592,9.6963 10.3884,-6.08939 12.1176,-2.48248 11.216,-2.05018 9.3753,1.05019 5.326,-6.08646 2.7596,-0.0756 11.5561,3.75101 10.4918,-2.23793 7.4812,-3.20573 9.5776,5.77232 0.8931,-0.23322 -37.7569,69.87067 -0.3962,185.99958 -78.9998,-0.16826 0.3961,-185.99958 -68.2897,-133.70423 1.6289,-8.95485 -0.469,-13.81951 -6.1986,-13.76084 -1.9524,-8.95962 2.3786,-6.95664 71.7984,0.15292 43.3125,88.09245 z"
         id="path3530" />
      <path
         style="fill:none;stroke:none;stroke-width:1"
         inkscape:connector-curvature="0"
         d="m 747.64531,549.61431 -0.0685,31.52787"
         id="path3532" />
      <path
         style="opacity:0;fill:none;stroke:#00bb31;stroke-width:6"
         inkscape:connector-curvature="0"
         d=""
         id="path3534" />
      <path
         style="fill:#d0d0ce;stroke:none;stroke-width:1"
         inkscape:connector-curvature="0"
         d="m 747.16551,770.51261 -88.99979,-0.19331 0.28237,-129.99969 -45.78226,129.90086 -53.99987,-0.11729 -46.20883,-134.10068 -0.29106,133.99968 -88.99979,-0.19331 0.63592,-292.77189 11.89004,-8.39244 9.25055,-12.63905 8.17519,-5.90348 -8.16651,1.90349 -9.24621,10.63905 -11.8857,6.39259 0.15471,-71.2274 43.22138,0.0939 2.07697,5.39298 15.33011,0.8671 10.27579,11.92721 7.66523,9.25892 12.30926,5.44754 7.50316,3.58455 63.64856,179.78027 53.28501,-147.50181 10.519,-6.45751 13.9608,6.54932 9.25583,-0.0465 15.45967,-0.88997 12.8406,1.40004 7.52817,-5.4746 11.99443,0.0252 14.62063,-4.35292 8.41533,-13.62331 3.9946,-1.66877 -0.23348,107.49295 -7.22526,7.95491 -12.62596,5.31739 -10.19254,7.33691 -10.62782,12.31793 -10.19254,7.33691 -7.43799,7.97915 -9.34334,6.80883 -11.28692,4.87125 -0.0637,0.31648 -8.69197,-1.32514 -6.38184,9.67755 -4.47649,10.84786 -15.05939,3.29788 -8.72248,13.48824 -14.09602,-0.83394 -5.1209,14.60241 5.11222,-10.60242 14.09168,2.83394 8.71813,-11.48825 15.05504,-1.29788 4.47215,-8.84787 6.3775,-7.67755 6.25146,1.96225 0.41249,14.08946 -7.28963,11.17414 11.04542,-9.79789 1.25099,-13.76466 0.72255,0.2268 7.6406,-3.75269 9.339,-4.80884 7.43365,-5.97916 10.18819,-5.33691 10.62348,-10.31793 10.18819,-5.33691 12.62162,-3.3174 7.22194,-6.42697 z"
         id="path3536" />
      <path
         style="fill:none;stroke:none;stroke-width:1"
         inkscape:connector-curvature="0"
         d="m 423.80219,477.03697 0.0174,-7.99983"
         id="path3538" />
      <path
         style="opacity:0;fill:none;stroke:#00bb31;stroke-width:6"
         inkscape:connector-curvature="0"
         d=""
         id="path3540" />
      <path
         style="fill:none;stroke:none;stroke-width:1"
         inkscape:connector-curvature="0"
         d="m 65.23514,451.54046 -0.03973,14.98437"
         id="path3542" />
      <path
         style="opacity:0;fill:none;stroke:#00bb31;stroke-width:6"
         inkscape:connector-curvature="0"
         d=""
         id="path3544" />
      <path
         style="fill:#d0d0ce;stroke:none;stroke-width:1"
         inkscape:connector-curvature="0"
         d="m -19.00558,542.20961 0.38184,-143.99949 83.9997,0.22274 -0.14083,53.1076 -3.10863,3.97772 -12.89934,2.63568 -8.30649,4.61196 -7.42462,12.17651 -10.41083,6.97242 -15.13174,2.76373 -7.81144,6.47931 7.80083,-2.47932 15.12643,-0.76374 10.40553,-4.97243 7.41932,-10.17651 8.30118,-2.61197 12.89404,-0.63568 3.10602,-2.9933 -0.80587,303.90673 -83.9997,-0.22274 0.25213,-95.08109 7.08153,-7.2893 15.50138,-4.12878 11.40623,-5.23772 10.90853,-6.10507 12.51517,-9.33287 3.82982,-13.41809 -3.81922,9.41811 -12.50987,7.33288 -10.90323,4.10508 -11.40093,3.23773 -15.49608,2.12879 -7.07769,5.84189 0.09406,-35.47104 -99.49965,-0.26384 -0.38184,143.99949 -83.9997,-0.22274 0.13634,-51.41483 10.53933,-0.75887 9.44708,-0.63794 7.86517,-11.54756 6.26959,-13.0602 11.07813,-5.78455 -7.03552,-12.99127 3.54834,-15.14206 -2.50145,-11.06806 4.92255,-11.71677 -1.32067,-10.15193 -8.01003,-12.03485 -1.81791,-14.98601 1.21753,-13.62358 -1.45163,-11.02839 -8.87007,-7.20273 4.9642,-13.56835 -7.2422,-12.66786 0.4879,-10.43715 -3.88124,-11.39652 -2.41163,-9.69089 -8.92067,-11.17822 -0.3836,-10.17945 -3.23725,-9.49471 -0.0914,-14.26852 2.29399,-8.57901 -2.87835,-9.49433 -1.85227,-1.83145 0.12214,-46.06262 83.9997,0.22274 -0.38184,143.99949 z"
         id="path3546" />
      <path
         style="fill:none;stroke:none;stroke-width:1"
         inkscape:connector-curvature="0"
         d="m -19.35804,675.12772 0.03566,-13.44737"
         id="path3548" />
      <path
         style="opacity:0;fill:none;stroke:#00bb31;stroke-width:6"
         inkscape:connector-curvature="0"
         d=""
         id="path3550" />
      <path
         style="fill:none;stroke:none;stroke-width:1"
         inkscape:connector-curvature="0"
         d="m 170.66544,510.49363 -2.41406,13.99633"
         id="path3552" />
      <path
         style="opacity:0;fill:none;stroke:#00bb31;stroke-width:6"
         inkscape:connector-curvature="0"
         d=""
         id="path3554" />
      <path
         style="fill:none;stroke:none;stroke-width:1"
         inkscape:connector-curvature="0"
         d="m 92.63161,454.00309 2.02978,-11.76836"
         id="path3556" />
      <path
         style="opacity:0;fill:none;stroke:#00bb31;stroke-width:6"
         inkscape:connector-curvature="0"
         d=""
         id="path3558" />
      <path
         style="fill:#d0d0ce;stroke:none;stroke-width:1"
         inkscape:connector-curvature="0"
         d="m 313.21086,703.34554 c -8.86454,17.07509 -19.91786,31.1512 -33.15996,42.2283 -13.2421,11.07711 -28.68428,18.73045 -46.32655,22.96004 -17.64226,4.22959 -37.27501,4.31049 -58.89825,0.2427 l -0.49272,-0.085 C 150.29745,764.88419 130.58304,757.59396 115.19014,746.8209 99.79724,736.04784 88.02068,722.93879 79.86044,707.49375 71.7002,692.0487 66.7683,675.04638 65.06472,656.48677 63.36114,637.92717 64.1807,618.95711 67.52341,599.5766 l 25.1082,-145.57353 11.85191,-5.72959 5.8555,-10.8685 11.65737,-4.59648 15.0212,-1.6495 13.84854,-8.56769 -13.16867,4.62589 -14.68126,-0.32139 -11.31744,2.62558 -5.51556,8.8976 -11.52181,3.81572 10.93489,-63.39881 85.24139,14.70225 -20.17222,116.95547 -1.35782,-0.22959 -6.06392,7.7131 -11.65737,4.59648 -14.81277,4.80491 -28.11328,13.31292 -9.05001,4.44773 8.37013,-0.50593 27.4334,-9.37113 14.47284,-2.83401 11.31744,-2.62558 5.72399,-5.7422 1.32331,0.42962 -14.3818,83.38347 c -1.52971,8.86905 -2.07111,17.40117 -1.6242,25.59638 0.44691,8.1952 2.13136,15.58909 5.05335,22.18166 2.92199,6.59257 7.04189,12.1233 12.3597,16.59218 1.26286,1.06126 2.60732,2.03644 4.0334,2.92555 l 3.01398,6.68202 6.38536,10.02816 4.50374,13.83072 -1.20667,9.42717 10.16171,5.58528 -0.54482,11.88952 4.42041,-10.89966 -8.22391,-5.09035 3.14446,-8.93224 -2.56594,-13.33579 -4.44756,-9.53323 -0.92238,-4.24678 c 0.83168,0.18273 1.67937,0.34859 2.54307,0.49755 8.21208,1.4164 15.57191,0.90997 22.0795,-1.51929 6.50759,-2.42926 12.16006,-6.27447 16.95743,-11.53563 4.79737,-5.26115 8.77925,-11.67772 11.94565,-19.24971 3.1664,-7.57199 5.51446,-15.79251 7.04417,-24.66155 l 36.96808,-214.33528 31.60425,5.45103 -4.4843,9.75983 -11.08403,11.29948 -1.75605,11.85979 -8.34697,6.38098 -1.60012,15.8283 -6.1444,14.12722 -1.28077,15.32911 -3.2963,14.87773 2.62881,14.42427 -7.59281,13.8765 5.09248,12.17024 0.93038,15.09165 -0.54703,12.30841 -1.42996,9.60276 0.0474,13.90015 6.56526,14.51321 9.91392,6.0585 2.49672,16.02588 3.88971,12.99422 13.91593,7.9805 9.57303,8.75522 1.48654,0.6387 c -3.32831,10.80624 -7.43462,20.91349 -12.31891,30.32175 z"
         id="path3560" />
      <path
         style="fill:none;stroke:none;stroke-width:1"
         inkscape:connector-curvature="0"
         d="m 173.69184,675.1692 13.71836,5.40482"
         id="path3562" />
      <path
         style="opacity:0;fill:none;stroke:#00bb31;stroke-width:6"
         inkscape:connector-curvature="0"
         d=""
         id="path3564" />
    </g>
  </g>
  <g
     id="g507"
     transform="matrix(0.27873233,0,0,0.27873233,-188.00623,-82.749919)">
    <g
       id="g502">
      <g
         id="g498">
        <path
           style="font-family:none;mix-blend-mode:normal;fill:#fe5000;fill-rule:nonzero;stroke:none;stroke-width:0.55000001;stroke-linecap:butt;stroke-linejoin:miter;stroke-miterlimit:10;stroke-dasharray:none;stroke-dashoffset:0"
           inkscape:connector-curvature="0"
           id="path272"
           d="m 1241.3206,648.181 c -1.8598,-0.24434 -3.3213,-1.08281 -4.3844,-2.51541 -1.0632,-1.4326 -1.542,-3.15586 -1.4364,-5.16976 l 0.4173,-7.96407 c 0.1056,-2.0139 0.7518,-3.65984 1.9386,-4.93781 1.1869,-1.27797 2.7179,-1.94126 4.593,-1.98985 0.7709,0.004 1.4955,0.18852 2.1739,0.55453 0.6785,0.36601 1.2779,0.83803 1.7984,1.41606 0.5205,0.57803 0.9547,1.22498 1.3027,1.94084 0.348,0.71586 0.6146,1.40909 0.7997,2.0797 l 8.1973,-4.03151 c -0.3376,-1.26607 -0.8307,-2.54029 -1.4795,-3.82267 -0.6488,-1.28238 -1.524,-2.44811 -2.6256,-3.49721 -1.1016,-1.04909 -2.4416,-1.92709 -4.0201,-2.63401 -1.5785,-0.70691 -3.4846,-1.11889 -5.7182,-1.23596 l -0.055,-0.003 c -2.5265,-0.13241 -4.7663,0.21835 -6.7193,1.05229 -1.9529,0.83393 -3.6014,1.98673 -4.9452,3.45842 -1.3439,1.47168 -2.3875,3.17023 -3.131,5.09562 -0.7434,1.9254 -1.1863,3.89409 -1.3284,5.90607 l -0.4433,8.45839 c 0,2.12951 0.2211,4.18815 0.6677,6.17591 0.4466,1.98776 1.226,3.75431 2.3384,5.29964 1.1123,1.54533 2.5883,2.80681 4.428,3.78443 1.8396,0.97762 4.1509,1.53935 6.9337,1.68519 l 0.055,0.003 c 2.49,0.13049 4.605,-0.11665 6.345,-0.74144 1.7401,-0.62479 3.1853,-1.40272 4.3356,-2.3338 1.1503,-0.93107 2.0544,-1.8934 2.7123,-2.887 0.6579,-0.9936 1.1689,-1.81131 1.533,-2.45313 l -7.7309,-4.86628 c -0.6164,1.25279 -1.4704,2.30955 -2.5619,3.17027 -1.0915,0.86072 -2.4217,1.1949 -3.9904,1.00253 z m -19.2111,16.61734 3.0109,-57.45115 254.2461,13.32447 -3.0109,57.45115 z m 71.7181,-30.66359 c 0.061,-1.86935 -0.1916,-3.70009 -0.7586,-5.49222 -0.567,-1.79213 -1.4731,-3.41845 -2.7184,-4.87896 -1.4187,-1.65318 -3.0672,-2.95124 -4.9454,-3.89417 -1.8782,-0.94292 -3.8976,-1.47099 -6.0579,-1.58421 l -0.055,-0.003 c -2.1604,-0.11322 -4.2147,0.20137 -6.1628,0.94376 -1.9482,0.74239 -3.7325,1.86054 -5.3529,3.35445 -1.3545,1.32425 -2.4271,2.87441 -3.2178,4.65046 -0.7908,1.77606 -1.2321,3.54288 -1.3243,5.30046 l -0.5008,9.55688 c -0.079,2.19891 0.1334,4.28453 0.6359,6.25686 0.5025,1.97233 1.4274,3.76486 2.7749,5.3776 1.4553,1.6551 3.1222,2.95411 5.0004,3.89704 1.8782,0.94292 3.8792,1.47003 6.0029,1.58134 l 0.055,0.003 c 2.1604,0.11321 4.2239,-0.20089 6.1903,-0.94232 1.9666,-0.74143 3.7427,-1.87837 5.3284,-3.41081 1.5452,-1.46113 2.6732,-3.19197 3.3839,-5.19252 0.7106,-2.00055 1.1178,-3.98946 1.2214,-5.96675 z m 33.3867,7.14712 c 0.1516,-2.89269 -0.1096,-5.61427 -0.7838,-8.1647 -0.674,-2.55045 -1.7691,-4.77414 -3.2853,-6.67109 -1.5161,-1.89695 -3.4552,-3.43053 -5.8172,-4.60076 -2.362,-1.17021 -5.1358,-1.83881 -8.3214,-2.00575 l -8.2387,-0.43177 -2.1416,40.86392 9.4471,0.4951 c 3.332,0.17462 6.1803,-0.22686 8.5447,-1.20445 2.3644,-0.9776 4.3095,-2.3627 5.8354,-4.15529 1.526,-1.7926 2.6649,-3.90839 3.4169,-6.34738 0.752,-2.43898 1.2,-5.03159 1.3439,-7.77782 z m 33.2125,-9.4948 0.4836,-9.22734 -25.0457,-1.31259 -2.1416,40.86393 25.0456,1.31258 0.4836,-9.22734 -15.8182,-0.829 0.3454,-6.59095 11.644,0.61023 0.4836,-9.22734 -11.6441,-0.61023 0.3455,-6.59096 z m 45.7419,34.12071 -7.4387,-16.74727 c 0.476,0.025 1.1481,-0.18767 2.0162,-0.63785 0.868,-0.45019 1.7394,-1.13886 2.6142,-2.06602 0.8747,-0.92716 1.6516,-2.08893 2.3306,-3.4853 0.679,-1.39638 1.0664,-3.00997 1.1624,-4.8408 0.092,-1.75758 -0.021,-3.44334 -0.3408,-5.05726 -0.3193,-1.61393 -0.9146,-3.04037 -1.786,-4.27934 -0.8714,-1.23897 -2.0664,-2.25624 -3.5852,-3.05182 -1.5187,-0.79557 -3.4498,-1.25477 -5.7933,-1.37759 l -12.4679,-0.65341 -2.1416,40.86392 9.2273,0.48358 0.6967,-13.29176 0.1098,0.006 4.7959,13.5796 z m 33.2396,-29.98146 0.4837,-9.22734 -25.0457,-1.31259 -2.1416,40.86393 25.0457,1.31258 0.4835,-9.22734 -15.8182,-0.829 0.3454,-6.59095 11.644,0.61023 0.4836,-9.22734 -11.644,-0.61023 0.3454,-6.59096 z m 33.7957,13.00655 c 0.1516,-2.8927 -0.1097,-5.61427 -0.7838,-8.16471 -0.6741,-2.55044 -1.7692,-4.77414 -3.2853,-6.67109 -1.5162,-1.89695 -3.4553,-3.43053 -5.8172,-4.60075 -2.3621,-1.17022 -5.1358,-1.83881 -8.3215,-2.00576 l -8.2386,-0.43177 -2.1416,40.86392 9.447,0.4951 c 3.3321,0.17463 6.1803,-0.22686 8.5447,-1.20445 2.3644,-0.9776 4.3096,-2.36269 5.8355,-4.15529 1.5259,-1.7926 2.6648,-3.90839 3.4169,-6.34737 0.752,-2.43899 1.1999,-5.03159 1.3439,-7.77783 z" />
      </g>
    </g>
  </g>
  <rect
     style="color:#000000;clip-rule:nonzero;display:inline;overflow:visible;visibility:visible;opacity:0.906;isolation:auto;mix-blend-mode:normal;color-interpolation:sRGB;color-interpolation-filters:linearRGB;solid-color:#000000;solid-opacity:1;vector-effect:none;fill:none;fill-opacity:1;fill-rule:nonzero;stroke:#ff00ff;stroke-width:0.37795275;stroke-linecap:butt;stroke-linejoin:miter;stroke-miterlimit:4;stroke-dasharray:none;stroke-dashoffset:0;stroke-opacity:1;color-rendering:auto;image-rendering:auto;shape-rendering:auto;text-rendering:auto;enable-background:accumulate"
     id="rect619"
     width="257.00787"
     height="79.370079"
     x="11.338583"
     y="35.90551"
     ry="0" />
  <rect
     style="color:#000000;clip-rule:nonzero;display:inline;overflow:visible;visibility:visible;opacity:0.906;isolation:auto;mix-blend-mode:normal;color-interpolation:sRGB;color-interpolation-filters:linearRGB;solid-color:#000000;solid-opacity:1;vector-effect:none;fill:none;fill-opacity:1;fill-rule:nonzero;stroke:#0000ff;stroke-width:0.35305667;stroke-linecap:butt;stroke-linejoin:miter;stroke-miterlimit:4;stroke-dasharray:none;stroke-dashoffset:0;stroke-opacity:1;color-rendering:auto;image-rendering:auto;shape-rendering:auto;text-rendering:auto;enable-background:accumulate"
     id="rect619-5"
     width="249.09576"
     height="71.45797"
     x="15.294638"
     y="39.861565"
     ry="0" />
</svg>
