<?xml version="1.0" encoding="UTF-8" standalone="no"?>
<svg
   xmlns:dc="http://purl.org/dc/elements/1.1/"
   xmlns:cc="http://creativecommons.org/ns#"
   xmlns:rdf="http://www.w3.org/1999/02/22-rdf-syntax-ns#"
   xmlns:svg="http://www.w3.org/2000/svg"
   xmlns="http://www.w3.org/2000/svg"
   xmlns:sodipodi="http://sodipodi.sourceforge.net/DTD/sodipodi-0.dtd"
   xmlns:inkscape="http://www.inkscape.org/namespaces/inkscape"
   inkscape:export-ydpi="600"
   inkscape:export-xdpi="600"
   inkscape:export-filename="/home/mgr/brokencomputers.png"
   sodipodi:docname="all_computers_are_broken.svg"
   inkscape:version="1.0 (4035a4fb49, 2020-05-01)"
   id="svg8"
   version="1.1"
   viewBox="0 0 107.95 35.052001"
   height="1.38in"
   width="4.25in">
  <defs
     id="defs2" />
  <sodipodi:namedview
     inkscape:document-rotation="0"
     units="in"
     inkscape:window-maximized="1"
     inkscape:window-y="0"
     inkscape:window-x="0"
     inkscape:window-height="1031"
     inkscape:window-width="1916"
     showgrid="false"
     inkscape:current-layer="layer1"
     inkscape:document-units="mm"
     inkscape:cy="43.91416"
     inkscape:cx="228.66187"
     inkscape:zoom="1.4859432"
     inkscape:pageshadow="2"
     inkscape:pageopacity="0.0"
     borderopacity="1.0"
     bordercolor="#666666"
     pagecolor="#ffffff"
     id="base" />
  <metadata
     id="metadata5">
    <rdf:RDF>
      <cc:Work
         rdf:about="">
        <dc:format>image/svg+xml</dc:format>
        <dc:type
           rdf:resource="http://purl.org/dc/dcmitype/StillImage" />
        <dc:title></dc:title>
      </cc:Work>
    </rdf:RDF>
  </metadata>
  <g
     transform="translate(0,-261.94798)"
     id="layer1"
     inkscape:groupmode="layer"
     inkscape:label="Layer 1">
    <path
       inkscape:connector-curvature="0"
       id="path851"
       d="m 24.247502,277.745 c -0.302033,-0.0208 -1.394236,0.23447 -7.053759,1.50722 -7.5645553,1.70118 -6.981856,1.55268 -7.149002,1.81921 -0.04525,0.0722 -0.09547,0.18602 -0.1120391,0.25358 -0.02861,0.11678 0.01789,0.34634 0.9488601,4.66625 l 0.978969,4.54303 -0.614833,1.20664 -0.614831,1.20591 0.05252,0.14389 c 0.06456,0.17754 0.219137,0.36758 0.397054,0.48792 0.177894,0.12033 0.306899,0.16415 0.513992,0.1738 h 6.98e-4 c 0.14843,0.007 1.264107,-0.23901 8.410176,-1.85126 7.925614,-1.78814 8.245231,-1.8624 8.369561,-1.9467 0.157343,-0.10669 0.347505,-0.36983 0.410358,-0.56771 0.02554,-0.0804 0.0456,-0.23182 0.04411,-0.3362 l -0.0028,-0.18947 -1.060904,-0.83268 -1.060198,-0.83267 -0.995076,-4.53947 c -0.965808,-4.40597 -0.997471,-4.5422 -1.077708,-4.64346 -0.04546,-0.0573 -0.138509,-0.13959 -0.206577,-0.18235 -0.06485,-0.0408 -0.07789,-0.0786 -0.178569,-0.0855 z m -0.895634,0.79849 c 0.06181,-0.006 0.09198,-0.004 0.115535,0.004 0.146301,0.0433 0.325394,0.18428 0.392851,0.30985 0.04067,0.0754 0.290949,1.19541 0.85222,3.80794 l 0.795502,3.70038 -0.06022,0.15457 c -0.03497,0.0895 -0.109112,0.19626 -0.176468,0.25429 l -0.11624,0.0997 -6.011073,1.35195 -6.011071,1.35193 -0.146354,-0.0413 c -0.09633,-0.0269 -0.188521,-0.0842 -0.268199,-0.16738 l -0.121145,-0.12679 -0.810205,-3.68399 c -0.570799,-2.59619 -0.807923,-3.72019 -0.802502,-3.80581 0.0091,-0.14275 0.112851,-0.34738 0.227584,-0.44946 0.07402,-0.0658 0.27562,-0.11669 2.270256,-0.57269 l 2.189027,-0.50003 1.272381,0.3476 c 0.700083,0.19153 1.301122,0.35085 1.335404,0.35401 0.03426,0.003 0.06435,0.0157 0.06652,0.0271 0.0022,0.0114 -0.171606,0.3249 -0.385846,0.69663 -0.805703,1.39797 -1.233532,2.14487 -1.520275,2.65473 -0.0044,0.0894 -0.0049,0.18102 0.0028,0.2721 0.0137,0.16413 0.03166,0.22534 0.180669,0.61898 0.05487,0.14498 0.08388,0.21451 0.115549,0.28919 0.281773,0.13461 0.643721,0.30718 1.021685,0.4865 0.475154,0.22544 1.288481,0.61169 1.807382,0.85832 0.5189,0.24664 0.947479,0.44236 0.952359,0.4345 0.0049,-0.007 -0.264165,-0.42366 -0.598026,-0.92385 -0.252079,-0.37765 -0.620062,-0.92885 -0.945357,-1.41605 -0.04857,0.0858 -0.100874,0.17186 -0.16246,0.25928 -0.116321,0.1651 -0.461013,0.54174 -0.514696,0.56272 -0.01166,0.005 -0.04685,-0.0191 -0.07843,-0.0527 -0.03159,-0.0337 -0.09415,-0.0842 -0.139353,-0.11254 -0.06106,-0.0383 -0.0747,-0.0551 -0.05182,-0.0641 0.05565,-0.0218 0.309094,-0.24425 0.42716,-0.37537 0.130116,-0.14449 0.242197,-0.31992 0.329124,-0.50218 -0.03625,-0.0543 -0.08324,-0.12508 -0.11624,-0.1745 -0.140176,-0.20992 -0.252362,-0.38341 -0.356435,-0.54562 -8.38e-4,7.4e-4 -0.0013,9.2e-4 -0.002,0.002 l -0.106443,0.094 -0.08544,-0.0919 c -0.06471,-0.0695 -0.385579,-0.3759 -0.456573,-0.43593 -0.01139,-0.01 0.196265,-0.20555 0.210779,-0.19873 0.0092,0.005 0.100711,0.0978 0.179967,0.17238 0.01964,-0.0232 0.544959,-0.44979 1.190452,-0.96587 1.053858,-0.84259 1.182338,-0.95442 1.163139,-1.01147 -0.01193,-0.0353 -0.0845,-0.16028 -0.16176,-0.27779 -0.68842,-1.04698 -1.11089,-1.7165 -1.098015,-1.74014 0.0085,-0.0156 0.960868,-0.23734 2.116198,-0.4922 1.432868,-0.31615 1.902765,-0.41695 2.088189,-0.43593 z m -5.298204,4.9234 c -1.9e-4,2.3e-4 -0.01178,0.009 -0.01192,0.009 -0.0057,0.009 0.11227,0.20024 0.271702,0.44875 0.0575,-0.0509 0.101009,-0.10351 0.09594,-0.11682 -0.0053,-0.014 -0.19898,-0.19367 -0.355736,-0.3412 z m 0.732477,1.17813 c 0.05927,0.0888 0.124994,0.18686 0.190473,0.28492 0.254842,-0.45026 0.338277,-0.90033 0.305317,-1.58486 -0.0084,-0.17533 -0.02332,-0.32833 -0.03362,-0.33976 -0.01742,-0.0196 -0.315595,-5.2e-4 -0.321422,0.0206 -0.0016,0.006 0.0095,0.11843 0.0238,0.25074 0.03286,0.30262 0.03127,0.66999 -0.0035,0.88182 -0.02574,0.15672 -0.08379,0.32449 -0.161061,0.4865 z m -2.04757,0.8455 c -0.07246,-0.0346 -0.215311,-0.10267 -0.262603,-0.12537 -0.06479,-0.0311 -0.07303,-0.0332 -0.130942,-0.0606 5.77e-4,0.002 8.21e-4,0.003 0.0014,0.005 0.122513,0.32433 0.214848,0.48814 0.386544,0.68452 0.187893,0.21492 0.496317,0.42944 0.693963,0.48294 0.123516,0.0335 0.144546,0.024 0.140754,-0.062 -0.0023,-0.0529 -0.0226,-0.0734 -0.15056,-0.14887 -0.178472,-0.10531 -0.378327,-0.29059 -0.522397,-0.48436 -0.05942,-0.08 -0.102784,-0.16473 -0.156157,-0.29062 z m -0.39355,-0.18591 c -0.07927,-0.21053 -0.126551,-0.38712 -0.148455,-0.5563 -0.143587,0.26526 -0.205447,0.39462 -0.187672,0.40031 0.01867,0.006 0.187356,0.0858 0.336127,0.15599 z m -0.148455,-0.5563 c 0.05468,-0.10102 0.150632,-0.27384 0.24299,-0.43807 0.008,-0.16369 0.03355,-0.31816 0.07702,-0.43094 0.05705,-0.14826 0.05737,-0.14994 0.0035,-0.22508 -0.05063,-0.0706 -0.05696,-0.0728 -0.09033,-0.0335 -0.06837,0.0805 -0.175264,0.3641 -0.212882,0.56486 -0.03757,0.20049 -0.04435,0.37708 -0.02031,0.56272 z m 7.765231,-3.80082 -0.488085,0.18449 -0.488084,0.18448 0.03992,0.104 0.03921,0.1047 0.491584,-0.19233 0.492286,-0.19231 -0.04342,-0.0969 z m -1.275881,0.50502 c -0.05618,-8.1e-4 -0.163692,0.0402 -0.175768,0.079 -0.01057,0.0343 -0.01616,2.46178 -0.0055,2.48949 0.0028,0.007 0.05425,-0.006 0.11414,-0.0292 l 0.109235,-0.042 -0.0014,-1.22372 c -6.78e-4,-0.673 -0.0041,-1.23866 -0.0071,-1.25721 -0.002,-0.0112 -0.01489,-0.0161 -0.03362,-0.0163 z m -3.248527,0.98653 c -0.03344,-0.005 -0.04023,0.0105 -0.03711,0.0755 0.0036,0.0773 0.0096,0.0835 0.146359,0.16311 0.166442,0.0969 0.417342,0.33508 0.549706,0.52141 0.07686,0.10782 0.121065,0.20546 0.252796,0.55773 0.139295,0.37163 0.162617,0.45108 0.178565,0.61114 0.02363,0.2378 -0.0072,0.54516 -0.07213,0.72512 -0.05767,0.15966 -0.05717,0.14832 -0.0028,0.21013 0.02207,0.0251 0.04576,0.0428 0.05323,0.0399 0.04097,-0.016 0.127718,-0.16857 0.173664,-0.30628 0.158745,-0.47571 0.140553,-0.90287 -0.05951,-1.42175 -0.165326,-0.4283 -0.369958,-0.7039 -0.699563,-0.94165 -0.164854,-0.11892 -0.374669,-0.22047 -0.483183,-0.23435 z m -2.223338,1.31989 c 0.01084,0.008 0.110169,0.0801 0.22058,0.16026 0.110414,0.0802 0.244077,0.19017 0.296915,0.24432 l 0.09594,0.0983 -0.09384,0.0983 c -0.05176,0.0538 -0.102269,0.10088 -0.112039,0.1047 -0.0098,0.004 -0.08256,-0.0535 -0.161764,-0.12679 -0.0792,-0.0732 -0.211615,-0.1871 -0.29411,-0.25358 l -0.149857,-0.12109 0.08894,-0.10969 c 0.04968,-0.0612 0.09808,-0.103 0.109248,-0.0947 z m 5.19176,0.12536 -0.633741,0.24788 -0.634439,0.24788 0.03922,0.104 0.03921,0.10399 0.634439,-0.24787 0.634439,-0.24788 -0.03921,-0.10401 z m -8.826832,1.13896 c -0.03462,-0.0214 -0.253543,0.0585 -0.242296,0.0883 0.0063,0.0165 0.866932,0.99165 1.485261,1.68315 l 0.16176,0.18164 0.121146,-0.0477 c 0.06666,-0.0261 0.119384,-0.0526 0.116945,-0.0591 -0.0094,-0.0246 -1.614728,-1.82888 -1.642819,-1.84628 z m -0.460776,0.16241 -0.488086,0.18448 -0.488085,0.18448 0.03922,0.104 0.03992,0.10471 0.491585,-0.19232 0.492287,-0.19233 -0.04342,-0.0969 z m 3.333959,1.0257 -0.623936,0.24361 -0.623935,0.24432 0.03922,0.10399 0.03922,0.104 0.623934,-0.24431 0.624638,-0.2436 -0.03992,-0.10401 z m 5.388533,3.53799 0.327726,0.2607 0.327023,0.25999 -2.771647,0.62326 -2.771647,0.62325 0.189071,-0.37609 0.189073,-0.37681 2.25555,-0.50715 z m -0.610628,1.19807 c 0.03385,9.2e-4 0.04691,0.01 0.06022,0.0214 0.07638,0.0683 0.08688,0.14577 0.03221,0.23292 -0.04511,0.0719 -0.08639,0.0828 -1.447447,0.38892 -1.38044,0.31044 -1.401329,0.31424 -1.476159,0.26568 -0.07743,-0.0503 -0.101334,-0.17218 -0.04972,-0.25643 0.01444,-0.0236 0.539434,-0.15322 1.454448,-0.359 1.036982,-0.2332 1.324907,-0.29637 1.426442,-0.29346 z"
       style="fill:#000000;stroke-width:0.030785" />
    <text
       xml:space="preserve"
       style="font-style:normal;font-variant:normal;font-weight:normal;font-stretch:normal;font-size:12.7px;line-height:125%;font-family:Hack;-inkscape-font-specification:Hack;text-align:start;letter-spacing:0.484188px;word-spacing:0px;writing-mode:lr-tb;text-anchor:start;fill:#000000;fill-opacity:1;stroke:none;stroke-width:0.264583px;stroke-linecap:butt;stroke-linejoin:miter;stroke-opacity:1"
       x="98.111839"
       y="275.14359"
       id="text1699"><tspan
         sodipodi:role="line"
         id="tspan1697"
         x="98.111839"
         y="275.14359"
         style="font-style:normal;font-variant:normal;font-weight:normal;font-stretch:normal;font-size:12.7px;font-family:'Alike Angular';-inkscape-font-specification:'Alike Angular';text-align:end;text-anchor:end;stroke-width:0.264583px">all computers</tspan><tspan
         sodipodi:role="line"
         x="98.596031"
         y="291.33511"
         style="font-style:normal;font-variant:normal;font-weight:normal;font-stretch:normal;font-size:12.7px;font-family:'Alike Angular';-inkscape-font-specification:'Alike Angular';text-align:end;text-anchor:end;stroke-width:0.264583px"
         id="tspan1701">are broken</tspan></text>
  </g>
</svg>
