<?xml version="1.0" encoding="UTF-8" standalone="no"?>
<svg
   xmlns:dc="http://purl.org/dc/elements/1.1/"
   xmlns:cc="http://creativecommons.org/ns#"
   xmlns:rdf="http://www.w3.org/1999/02/22-rdf-syntax-ns#"
   xmlns:svg="http://www.w3.org/2000/svg"
   xmlns="http://www.w3.org/2000/svg"
   xmlns:sodipodi="http://sodipodi.sourceforge.net/DTD/sodipodi-0.dtd"
   xmlns:inkscape="http://www.inkscape.org/namespaces/inkscape"
   sodipodi:docname="proprietary-bullshit-round-de.svg"
   inkscape:version="1.0 (4035a4fb49, 2020-05-01)"
   id="svg8"
   version="1.1"
   viewBox="0 0 40 40"
   height="40mm"
   width="40mm">
  <defs
     id="defs2" />
  <sodipodi:namedview
     inkscape:window-maximized="1"
     inkscape:window-y="0"
     inkscape:window-x="0"
     inkscape:window-height="1031"
     inkscape:window-width="1916"
     showgrid="false"
     inkscape:document-rotation="0"
     inkscape:current-layer="layer1"
     inkscape:document-units="mm"
     inkscape:cy="52.860222"
     inkscape:cx="137.87414"
     inkscape:zoom="3.959798"
     inkscape:pageshadow="2"
     inkscape:pageopacity="0.0"
     borderopacity="1.0"
     bordercolor="#666666"
     pagecolor="#ffffff"
     id="base" />
  <metadata
     id="metadata5">
    <rdf:RDF>
      <cc:Work
         rdf:about="">
        <dc:format>image/svg+xml</dc:format>
        <dc:type
           rdf:resource="http://purl.org/dc/dcmitype/StillImage" />
        <dc:title></dc:title>
      </cc:Work>
    </rdf:RDF>
  </metadata>
  <g
     id="layer1"
     inkscape:groupmode="layer"
     inkscape:label="Layer 1">
    <rect
       y="0"
       x="0"
       height="40"
       width="40"
       id="rect1647"
       style="color:#000000;overflow:visible;fill:#f4e3d7;fill-opacity:0.38192689;stroke-width:3.41398;stroke-linejoin:bevel;paint-order:markers stroke fill" />
    <g
       transform="matrix(0.16308313,0,0,0.16308313,9.5631742,9.561972)"
       id="g1014">
      <g
         id="g990">
        <path
           fill="#2f2f2f"
           d="m 95.65,87.06 c -3,-1.87 -5.63,-2.18 -5.63,-2.18 0,0 -2.91,0.31 -7.15,0.77 l 5.71,-10.26 c -3.3,-3.56 -6.76,-4.08 -6.76,-4.08 L 69.47,72.6 69.6,71.76 44.76,64.32 c -3.37,0.28 -6,1.58 -6,1.58 l -0.67,16.59 0.74,0.92 c -6.97,-0.05 -11.36,2.77 -11.36,2.77 0,0 -1.23,14.84 -1.31,15.05 -0.05,0.14 17.38,5.92 28.4,9.57 0.49,1.7 0.83,2.82 0.83,2.82 l 7.02,-0.23 c 0.17,0.06 0.39,0.13 0.52,0.17 l 0.08,0.09 0.01,-0.07 c 0.26,0.09 0.41,0.14 0.41,0.14 v -0.36 l 14.8,-0.48 z"
           id="path982" />
        <path
           fill="#855c52"
           d="m 61.88,78.03 c 5,0.83 10.49,0.82 15.04,-1.68 4.31,-2.37 7.01,-7.43 5.88,-12.34 -0.73,-3.11 -2.4,-5.06 -4.6,-6.37 -2.25,-1.34 -5.04,-1.99 -7.9,-2.5 -1.37,-0.25 -7.16,-1.06 -9.55,-4.38 -1.93,-2.69 -1.99,-7.54 -2.52,-8.98 -0.56,-1.5 -2.46,-0.84 -4.55,0.55 -2.43,1.62 -7.46,6.82 -9.4,12.02 -2.62,7.07 -0.71,12.46 1.14,14.86 3.78,4.91 10.89,7.88 16.46,8.82 z"
           id="path984" />
        <path
           fill="#855c52"
           d="m 55.08,99.49 c 4.21,0.54 6.91,0.75 11.15,0.44 10.39,-0.75 18.8,-4.11 23.15,-10.74 3.94,-6.04 2.11,-10.63 -0.81,-13.81 -0.37,-0.42 -0.96,-0.85 -1.59,-1.13 -1.06,-0.46 -2.27,-0.49 -3.02,0.6 -4.49,6.45 -15.73,8.2 -25.17,6.22 -3.81,-0.8 -12.26,-3.39 -15.83,-9.08 -0.86,-1.38 -1.21,-2.87 -1.45,-4.04 -0.25,-1.19 -0.99,-2.82 -3.05,-1.96 -2.19,0.91 -6.88,5.12 -7.3,11.56 -0.28,4.29 0.97,8.69 3.76,11.9 4.97,5.73 12.8,9.1 20.16,10.04 z"
           id="path986" />
        <path
           fill="#855c52"
           d="m 95.65,87.06 c -1.46,-0.75 -2.33,0.92 -2.95,2.04 -4.68,8.62 -13.75,12.88 -23.43,13.97 -8.85,0.98 -16.48,1.31 -26.58,-3.32 C 37.46,97.34 32.25,94.31 29.61,87.63 29.25,86.71 29.16,85.84 28.08,86 c -1.31,0.2 -4.28,2.19 -5.1,3.18 -1.44,1.73 -2.44,3.8 -3.03,5.97 -1.29,4.71 -0.82,10.08 1.47,14.42 1.27,2.41 3,4.98 4.91,6.94 6.24,6.41 17,8.83 25.5,10.23 10.35,1.71 21.19,1.11 30.88,-2.89 14.53,-6 18.39,-15.64 18.97,-18.36 1.27,-6.05 -0.28,-11.72 -0.94,-13.08 -0.97,-1.98 -2.53,-4.03 -5.09,-5.35 z"
           id="path988" />
      </g>
      <g
         id="g998">
        <path
           fill="#78a3ad"
           d="m 117.76,66.3 c -0.38,1.3 -1.95,1.97 -3.5,1.52 -2.09,-0.62 -5.01,-4.04 -5.01,-4.04 0,0 4.39,-1.25 6.39,-0.66 1.55,0.47 2.5,1.89 2.12,3.18 z"
           id="path992" />
        <path
           fill="#78a3ad"
           d="m 101.73,55.72 c -1.05,0.84 -1.1,2.55 -0.09,3.81 1.36,1.7 5.62,3.13 5.62,3.13 0,0 -0.49,-4.54 -1.79,-6.17 -1.01,-1.27 -2.69,-1.61 -3.74,-0.77 z"
           id="path994" />
        <path
           fill="#2f2f2f"
           d="m 110.42,65.59 c -0.95,1.4 -2.86,1.78 -4.27,0.83 -1.4,-0.95 -1.78,-2.86 -0.84,-4.27 0.95,-1.41 2.86,-1.78 4.27,-0.83 1.41,0.95 1.79,2.86 0.84,4.27 z"
           id="path996" />
      </g>
      <g
         id="g1006">
        <path
           fill="#78a3ad"
           d="m 29.05,41.94 c -0.94,-0.97 -2.64,-0.85 -3.82,0.28 -1.56,1.5 -2.58,5.88 -2.58,5.88 0,0 4.47,-0.91 5.97,-2.36 1.17,-1.12 1.36,-2.82 0.43,-3.8 z"
           id="path1000" />
        <path
           fill="#78a3ad"
           d="m 13.18,52.55 c -0.52,-1.24 0.26,-2.76 1.75,-3.38 2,-0.85 6.43,-0.05 6.43,-0.05 0,0 -2.6,3.74 -4.53,4.55 -1.49,0.62 -3.12,0.12 -3.65,-1.12 z"
           id="path1002" />
        <path
           fill="#2f2f2f"
           d="m 24.63,47.03 c 1.01,1.36 0.72,3.29 -0.64,4.3 -1.37,1.01 -3.29,0.72 -4.3,-0.64 -1.02,-1.36 -0.73,-3.29 0.64,-4.3 1.37,-1.01 3.29,-0.72 4.3,0.64 z"
           id="path1004" />
      </g>
      <path
         fill="#fcc21b"
         d="m 38.59,34.14 c -0.07,0.16 -0.21,0.33 -0.42,0.53 -1.69,1.6 -7.53,0.51 -9.48,0 C 24.56,33.59 19.62,31.99 17.7,27.5 14.91,20.98 20.44,14.67 25.07,11.39 35.4,4.06 48.68,3.4 60.62,5.36 c 4.83,0.79 9.59,2.26 14.47,2.62 2.86,0.21 5.69,0.55 8.57,0.32 0.98,-0.08 4.01,-0.57 4.02,-2.01 0.01,-1.87 -3.51,-1.7 -4.14,-3.25 -1.32,-3.27 8.67,-2.65 9.58,-2.58 4.77,0.35 10.57,1.41 14.78,3.88 5.21,3.06 5.5,9 0.31,12.3 -3.04,1.94 -6.58,2.54 -10.03,2.66 C 88.98,19.63 79.11,17.29 72.24,15.61 61.8,13.04 53.67,6.73 40.83,10.73 33.39,13.05 27.46,19.14 29.36,26.6 c 1.17,4.59 6.45,5.7 7.7,6.09 0.94,0.29 1.9,0.69 1.53,1.45 z"
         id="path1008" />
      <path
         fill="#fcc21b"
         d="m 104.62,46.89 c -4.09,2.49 -9.45,3.46 -14.06,2.3 -0.97,-0.25 -0.96,-1.13 -0.25,-1.58 2.87,-1.81 9.15,-3.77 8.06,-8.36 -0.79,-3.35 -5.27,-3.69 -8.06,-3.62 -1.53,0.04 -3.04,0.28 -4.54,0.55 -0.42,0.08 -0.84,0.15 -1.26,0.23 -4.72,0.88 -8.85,1.27 -13.65,0.89 -1.42,-0.11 -4.25,-0.29 -5.14,-1.6 -1.23,-1.83 4.93,-1.61 5.68,-1.69 4.44,-0.47 8.92,-1.44 13.23,-2.57 3.82,-1 7.66,-2.09 11.62,-2.32 4.39,-0.26 10.32,0.51 13.4,3.96 4,4.49 0.15,9.99 -3.67,12.88 -0.43,0.33 -0.89,0.64 -1.36,0.93 z"
         id="path1010" />
      <path
         fill="#fcc21b"
         d="m 17.29,66.78 c 0.41,-4.46 6,-4.23 8.63,-6.67 0.37,-0.34 0.49,-0.78 0.17,-1.17 -0.9,-1.11 -4.33,-0.2 -5.47,0.04 -4.22,0.85 -12.64,4.33 -9.95,10.21 0.84,1.83 2.66,2.91 4.51,3.49 1.28,0.4 4.28,1.25 5.17,-0.28 0.83,-1.43 -1.37,-2.16 -2.11,-2.96 -0.76,-0.85 -1.03,-1.77 -0.95,-2.66 z"
         id="path1012" />
    </g>
    <g
       style="font-style:normal;font-variant:normal;font-weight:normal;font-stretch:normal;font-size:4.93889px;line-height:125%;font-family:Hack;-inkscape-font-specification:Hack;text-align:start;letter-spacing:0px;word-spacing:0px;writing-mode:lr-tb;text-anchor:start;fill:#000000;fill-opacity:1;stroke:none;stroke-width:0.264583px;stroke-linecap:butt;stroke-linejoin:miter;stroke-opacity:1"
       id="text1703"
       aria-label="PROPRIETÄRE">
      <path
         id="path3042"
         style="font-style:normal;font-variant:normal;font-weight:normal;font-stretch:normal;font-family:Ubuntu;-inkscape-font-specification:Ubuntu"
         d="m 4.995202,11.218099 q 0.369736,-0.619071 0.804718,-0.80799 0.4332742,-0.195693 0.8996974,0.08287 0.2544127,0.151946 0.3810281,0.354126 0.1249077,0.195407 0.1355635,0.437631 0.00895,0.235452 -0.087051,0.511774 -0.095999,0.276321 -0.2808668,0.585857 L 6.6532935,12.708868 7.7430277,13.359704 7.4973812,13.771005 4.601317,12.04135 q 0.061428,-0.199173 0.1753291,-0.418781 0.1121935,-0.226381 0.2185559,-0.40447 z m 0.3806775,0.181336 q -0.1570112,0.262893 -0.227861,0.410417 l 1.1533374,0.688823 0.184868,-0.309535 q 0.1266219,-0.212011 0.2024782,-0.396814 0.071616,-0.187335 0.076389,-0.339807 0.00306,-0.159245 -0.073434,-0.291224 -0.076499,-0.131979 -0.254588,-0.238342 -0.1696084,-0.101297 -0.3203729,-0.0993 -0.1482321,-0.0022 -0.2802111,0.07426 -0.1336868,0.06973 -0.2477634,0.202939 -0.1140766,0.133213 -0.2128416,0.298581 z" />
      <path
         id="path3044"
         style="font-style:normal;font-variant:normal;font-weight:normal;font-stretch:normal;font-family:Ubuntu;-inkscape-font-specification:Ubuntu"
         d="m 9.2229907,9.036358 q 0.1260738,0.010343 0.3259588,0.036028 0.1996839,0.018703 0.4314896,0.060937 0.2282139,0.038844 0.4674039,0.09484 0.24258,0.052405 0.447264,0.1233708 L 10.535735,9.7322282 Q 10.331454,9.6752259 10.11002,9.6291991 9.891977,9.5795809 9.6849091,9.5471153 9.4742497,9.5112594 9.2815476,9.492355 9.0922358,9.4698592 8.9452168,9.4601199 q -0.040482,0.050079 -0.087947,0.1003595 -0.044074,0.046689 -0.091538,0.096969 L 8.4707763,9.9699048 9.4440595,10.888675 9.1152007,11.237046 6.6622398,8.921473 Q 6.7653275,8.7403206 6.924068,8.5505771 7.0826073,8.353852 7.2249998,8.203011 7.7199832,7.6786592 8.1751756,7.5921753 8.6337583,7.5021 9.0252264,7.8716424 9.2730365,8.1055729 9.3235766,8.4045811 9.377507,8.6999979 9.2229907,9.036358 Z M 7.5573955,8.4624547 Q 7.3471971,8.6851246 7.2460916,8.8138134 L 8.1834603,9.698681 8.4173908,9.4508709 Q 8.5869057,9.2712984 8.7045603,9.1106888 8.8222149,8.9500793 8.8634726,8.805646 8.9081207,8.6576212 8.8691888,8.518992 8.8266656,8.3769725 8.6758247,8.23458 8.5357581,8.1023584 8.3915259,8.0680825 8.2472937,8.0338065 8.1052742,8.0763298 7.966645,8.1152616 7.8264359,8.2206206 7.6896171,8.3223881 7.5573955,8.4624547 Z" />
      <path
         id="path3046"
         style="font-style:normal;font-variant:normal;font-weight:normal;font-stretch:normal;font-family:Ubuntu;-inkscape-font-specification:Ubuntu"
         d="M 10.225059,7.6777435 Q 9.989421,7.306679 9.917784,6.954331 9.8503163,6.5993354 9.9187905,6.2925758 9.9887863,5.9789993 10.178047,5.7242493 q 0.19343,-0.2573977 0.47694,-0.4374355 0.279341,-0.1773903 0.586222,-0.2377065 0.311051,-0.062964 0.620459,0.00968 0.306759,0.068474 0.595198,0.2831462 0.292608,0.2120243 0.528246,0.5830888 0.235638,0.3710646 0.303105,0.7260602 0.07164,0.3523479 0.0058,0.6632768 -0.06847,0.3067596 -0.257735,0.5615096 -0.185092,0.2521025 -0.464432,0.4294927 -0.28351,0.1800379 -0.59873,0.2456494 -0.311052,0.062964 -0.62198,-0.00286 Q 11.041743,8.4755043 10.749135,8.26348 10.460697,8.048808 10.225059,7.6777435 Z m 0.425265,-0.2700568 q 0.1668,0.2626636 0.371184,0.4371035 0.201736,0.1702707 0.417959,0.2435833 0.220392,0.070665 0.448454,0.042851 0.229583,-0.034631 0.450554,-0.1749551 0.220971,-0.1403237 0.345775,-0.3307395 0.122157,-0.1945852 0.147752,-0.4214596 0.02976,-0.229522 -0.03856,-0.4845163 -0.07097,-0.2591636 -0.237767,-0.5218272 -0.1668,-0.2626637 -0.368537,-0.4329343 -0.204384,-0.1744399 -0.424776,-0.2451049 -0.216223,-0.073313 -0.441637,-0.041329 -0.228061,0.027815 -0.449032,0.1681383 -0.220971,0.1403236 -0.347297,0.3375564 -0.124805,0.1904159 -0.154568,0.4199378 -0.02559,0.2268744 0.04537,0.486038 0.06832,0.2549943 0.23512,0.517658 z" />
      <path
         id="path3048"
         style="font-style:normal;font-variant:normal;font-weight:normal;font-stretch:normal;font-family:Ubuntu;-inkscape-font-specification:Ubuntu"
         d="m 14.357837,3.5562619 q 0.68424,-0.2275275 1.137064,-0.086635 0.455952,0.1346475 0.627377,0.6501709 0.0935,0.2811946 0.05741,0.5170024 -0.03297,0.2295628 -0.183037,0.419995 -0.146945,0.1841873 -0.400065,0.3308139 -0.253121,0.1466266 -0.595241,0.2603903 L 14.640479,5.7679968 15.04099,6.972447 14.586392,7.1236125 13.522,3.9226808 q 0.176565,-0.1107605 0.406219,-0.2027406 0.232782,-0.098225 0.429618,-0.1636783 z m 0.169957,0.3858918 q -0.290567,0.096621 -0.440549,0.1621084 l 0.423887,1.2747489 0.34212,-0.1137638 q 0.234329,-0.07792 0.412441,-0.1683762 0.176554,-0.095142 0.279716,-0.207518 0.106289,-0.1186206 0.134511,-0.2685343 0.02822,-0.1499137 -0.03723,-0.3467499 -0.06234,-0.187463 -0.177841,-0.2843795 -0.110817,-0.098475 -0.26073,-0.1266965 -0.146786,-0.034467 -0.320167,-0.00804 -0.17338,0.026425 -0.356157,0.087203 z" />
      <path
         id="path3050"
         style="font-style:normal;font-variant:normal;font-weight:normal;font-stretch:normal;font-family:Ubuntu;-inkscape-font-specification:Ubuntu"
         d="m 18.985091,4.6622334 q 0.0887,0.090186 0.223269,0.2402052 0.138974,0.144601 0.286899,0.3280017 0.147421,0.1784877 0.291947,0.3771321 0.149439,0.1981399 0.258059,0.3855778 l -0.520782,0.053493 Q 19.407046,5.8700405 19.269451,5.6905436 19.13677,5.5105419 19.001194,5.3506971 18.865114,5.1859393 18.731557,5.0457467 18.602913,4.9050494 18.497958,4.8016378 q -0.06337,0.011474 -0.132147,0.018539 -0.06387,0.00656 -0.132652,0.013625 l -0.427435,0.043905 0.13676,1.3314338 -0.476565,0.048951 -0.344676,-3.3556064 q 0.196389,-0.069821 0.440527,-0.1097927 0.248546,-0.045389 0.454894,-0.066585 0.717304,-0.073679 1.11845,0.158185 0.40606,0.2313591 0.461067,0.7668805 0.03482,0.3389997 -0.122234,0.5984108 -0.152141,0.2589063 -0.488856,0.4126494 z M 18.098863,3.1396789 q -0.304608,0.031288 -0.465225,0.062681 l 0.131714,1.2823035 0.339,-0.034821 q 0.245652,-0.025232 0.43965,-0.069984 0.193999,-0.044751 0.319586,-0.1271593 0.1305,-0.082913 0.191579,-0.2133085 0.06058,-0.1353088 0.03938,-0.3416565 -0.01968,-0.1916085 -0.106497,-0.3117778 -0.08682,-0.1201693 -0.222126,-0.180744 -0.130396,-0.061079 -0.30538,-0.072895 -0.170071,-0.01232 -0.36168,0.00736 z" />
      <path
         id="path3052"
         style="font-style:normal;font-variant:normal;font-weight:normal;font-stretch:normal;font-family:Ubuntu;-inkscape-font-specification:Ubuntu"
         d="m 20.760614,2.6619676 0.478283,0.027503 -0.196489,3.417006 -0.478283,-0.027503 z" />
      <path
         id="path3054"
         style="font-style:normal;font-variant:normal;font-weight:normal;font-stretch:normal;font-family:Ubuntu;-inkscape-font-specification:Ubuntu"
         d="m 21.893319,6.163533 0.704898,-3.3492772 2.044364,0.4302622 -0.08442,0.4011399 -1.575562,-0.3315968 -0.209537,0.9956004 1.401574,0.2949788 -0.08239,0.391474 -1.401573,-0.2949788 -0.244121,1.1599228 1.696387,0.3570261 -0.08442,0.4011399 z" />
      <path
         id="path3056"
         style="font-style:normal;font-variant:normal;font-weight:normal;font-stretch:normal;font-family:Ubuntu;-inkscape-font-specification:Ubuntu"
         d="M 28.063759,4.5683138 27.903306,4.9508963 26.910413,4.5344835 25.747132,7.3082066 25.30534,7.122922 26.468622,4.3491988 25.475729,3.932786 25.636182,3.5502035 Z" />
      <path
         id="path3058"
         style="font-style:normal;font-variant:normal;font-weight:normal;font-stretch:normal;font-family:Ubuntu;-inkscape-font-specification:Ubuntu"
         d="m 28.785537,9.1365125 q 0.05667,-0.2307224 0.115891,-0.4477097 0.06202,-0.2210578 0.122758,-0.4489831 L 27.746055,7.3615266 26.994526,7.9057834 26.583408,7.6232752 q 0.470501,-0.3358683 0.8731,-0.6165239 0.405395,-0.2847262 0.774678,-0.5343418 0.373354,-0.2468184 0.72026,-0.4638701 0.349703,-0.2211223 0.706024,-0.4257122 l 0.362273,0.248943 q -0.06325,0.4059819 -0.144298,0.8117135 -0.07825,0.4016611 -0.178886,0.835886 -0.09656,0.4370221 -0.217023,0.917546 -0.117665,0.4764535 -0.262528,1.0360907 z m 0.348444,-1.3006503 q 0.113094,-0.4436392 0.209404,-0.8628556 0.103179,-0.4204898 0.174566,-0.8208775 -0.35225,0.207387 -0.711869,0.4516588 -0.352751,0.2429983 -0.722284,0.5104195 z m 0.536866,-2.7172555 q -0.09362,-0.064334 -0.122135,-0.1798093 -0.02165,-0.116749 0.05108,-0.2225815 0.07272,-0.1058324 0.186677,-0.1234092 0.12082,-0.01885 0.214441,0.045483 0.09362,0.064334 0.115268,0.1810826 0.02852,0.1154757 -0.04421,0.2213082 -0.07272,0.1058324 -0.193545,0.1246826 -0.113952,0.017577 -0.207573,-0.046757 z m 0.773391,0.5314512 q -0.09362,-0.064334 -0.122135,-0.1798093 -0.02165,-0.116749 0.05108,-0.2225815 0.07272,-0.1058324 0.186677,-0.1234092 0.12082,-0.01885 0.214441,0.045483 0.09362,0.064334 0.115268,0.1810826 0.02852,0.1154757 -0.04421,0.2213082 -0.07272,0.1058324 -0.193545,0.1246826 -0.113951,0.017577 -0.207573,-0.046757 z" />
      <path
         id="path3060"
         style="font-style:normal;font-variant:normal;font-weight:normal;font-stretch:normal;font-family:Ubuntu;-inkscape-font-specification:Ubuntu"
         d="m 31.726058,10.060133 q -0.01987,0.124927 -0.06064,0.322289 -0.03379,0.19769 -0.09348,0.425626 -0.05604,0.224612 -0.13001,0.458867 -0.07065,0.237908 -0.156931,0.436621 l -0.352347,-0.387205 q 0.07233,-0.19937 0.135014,-0.416676 0.06601,-0.213653 0.114083,-0.417663 0.05173,-0.207334 0.08519,-0.398048 0.03679,-0.1870609 0.05765,-0.3329182 -0.04687,-0.044163 -0.0934,-0.095303 -0.04321,-0.047487 -0.08975,-0.098628 L 30.852238,9.2392952 29.862311,10.140107 29.53988,9.7857788 32.03479,7.5154665 q 0.172814,0.1165274 0.349974,0.2891988 0.184137,0.1730003 0.323746,0.3264208 0.485309,0.5333191 0.537027,0.9937588 0.05504,0.4640927 -0.34312,0.8264119 -0.252049,0.2293582 -0.554028,0.2570792 -0.298656,0.03137 -0.622331,-0.148203 z m 0.69855,-1.6172814 Q 32.218519,8.2163737 32.097867,8.105801 l -0.953399,0.8675718 0.229358,0.252048 q 0.166201,0.1826435 0.317427,0.3121382 0.151226,0.1294947 0.292115,0.1815857 0.144213,0.055744 0.285395,0.027436 0.144835,-0.031632 0.298255,-0.171241 0.142462,-0.1296371 0.187576,-0.270855 0.04512,-0.1412178 0.01348,-0.2860529 -0.02831,-0.1411822 -0.122732,-0.2889768 -0.0911,-0.1441418 -0.220737,-0.2866037 z" />
      <path
         id="path3062"
         style="font-style:normal;font-variant:normal;font-weight:normal;font-stretch:normal;font-family:Ubuntu;-inkscape-font-specification:Ubuntu"
         d="m 31.551598,12.1553 2.961464,-1.715888 1.047359,1.807647 -0.354691,0.20551 -0.807186,-1.393127 -0.880319,0.510062 0.718048,1.239285 -0.346145,0.200558 -0.718048,-1.239285 -1.025616,0.594247 0.869086,1.499962 -0.354692,0.20551 z" />
    </g>
    <g
       style="font-style:normal;font-variant:normal;font-weight:normal;font-stretch:normal;font-size:4.9389px;line-height:125%;font-family:Hack;-inkscape-font-specification:Hack;text-align:start;letter-spacing:0.550333px;word-spacing:0px;writing-mode:lr-tb;text-anchor:start;fill:#000000;fill-opacity:1;stroke:none;stroke-width:0.264583px;stroke-linecap:butt;stroke-linejoin:miter;stroke-opacity:1"
       id="text1703-1"
       aria-label="KACKSCHEISSE">
      <path
         id="path3065"
         style="font-style:normal;font-variant:normal;font-weight:normal;font-stretch:normal;font-family:Ubuntu;-inkscape-font-specification:Ubuntu"
         d="M 8.8347009,28.185734 Q 8.6121446,28.13982 8.3354422,28.080105 8.0629864,28.017868 7.7677043,27.946209 7.4791904,27.876276 7.1949233,27.803821 6.9106561,27.731366 6.6644769,27.665015 6.6455037,27.92327 6.5796847,28.23806 6.5138657,28.552851 6.4175233,28.874277 6.321181,29.195704 6.2012158,29.496693 6.0837722,29.801929 5.95226,30.035104 L 5.6648008,29.550981 q 0.1239474,-0.245915 0.2252007,-0.53005 0.1055,-0.286656 0.1771586,-0.581938 0.078427,-0.293557 0.1220838,-0.577957 0.046178,-0.280153 0.050687,-0.524075 L 4.8427682,28.166559 4.5981757,27.754629 7.5411343,26.00718 7.7857268,26.419109 6.4862386,27.19071 q 0.2283959,0.06542 0.5084164,0.140399 0.2842672,0.07245 0.5660128,0.140664 0.2817456,0.06821 0.5338965,0.125269 0.2589193,0.05879 0.4451127,0.09183 z" />
      <path
         id="path3067"
         style="font-style:normal;font-variant:normal;font-weight:normal;font-stretch:normal;font-family:Ubuntu;-inkscape-font-specification:Ubuntu"
         d="M 8.2552373,32.624019 Q 8.3593046,32.410442 8.4629638,32.21083 8.5702159,32.007828 8.6776719,31.797845 L 7.6135747,30.669694 6.7641456,31.043171 6.4218723,30.680295 Q 6.952638,30.451235 7.4053812,30.261822 7.8617173,30.06902 8.2753473,29.90292 8.6923662,29.740414 9.0772535,29.601425 9.4657337,29.459048 9.8571948,29.334226 l 0.3016072,0.319763 Q 10.011338,30.037494 9.8465213,30.416999 9.6852977,30.793115 9.4953314,31.196341 9.308754,31.60316 9.0896371,32.047461 8.874113,32.488373 8.6144549,33.004859 Z M 8.8702111,31.426138 Q 9.0743447,31.016337 9.2569213,30.62687 9.4464796,30.237607 9.6007215,29.861287 9.2126493,29.989701 8.8095938,30.152616 8.41352,30.315735 7.9958891,30.499186 Z" />
      <path
         id="path3069"
         style="font-style:normal;font-variant:normal;font-weight:normal;font-stretch:normal;font-family:Ubuntu;-inkscape-font-specification:Ubuntu"
         d="m 10.531589,34.456927 q -0.297544,-0.20361 -0.47516,-0.468783 -0.1776154,-0.265172 -0.2245786,-0.5726 -0.046963,-0.307427 0.042089,-0.647455 0.095917,-0.341315 0.3385755,-0.695921 0.242658,-0.354606 0.535507,-0.555175 0.299714,-0.201856 0.611433,-0.263836 0.311719,-0.06198 0.623216,0.0075 0.311496,0.06953 0.588659,0.259192 0.175266,0.119934 0.297112,0.239222 0.125923,0.122076 0.205508,0.224413 0.08366,0.105126 0.126562,0.18236 0.0429,0.07724 0.0562,0.110273 l -0.33726,0.247978 q -0.01995,-0.04956 -0.06972,-0.125505 -0.04977,-0.07595 -0.119913,-0.165841 -0.06607,-0.08711 -0.160888,-0.175927 -0.08795,-0.09011 -0.193927,-0.162627 -0.224177,-0.153405 -0.456512,-0.198686 -0.232335,-0.04528 -0.4591,0.01499 -0.226764,0.06027 -0.441092,0.224802 -0.207463,0.163246 -0.38597,0.424106 -0.172929,0.252708 -0.258113,0.499629 -0.08111,0.24971 -0.06611,0.481406 0.01779,0.22762 0.137274,0.429073 0.123558,0.204242 0.359962,0.366014 0.273087,0.186875 0.491477,0.252535 0.218389,0.06566 0.338741,0.08219 l -0.121236,0.395804 q -0.04248,8.55e-4 -0.138157,-0.01674 -0.09289,-0.02167 -0.222466,-0.06845 -0.129574,-0.04678 -0.290254,-0.126807 -0.160679,-0.08003 -0.331868,-0.197176 z" />
      <path
         id="path3071"
         style="font-style:normal;font-variant:normal;font-weight:normal;font-stretch:normal;font-family:Ubuntu;-inkscape-font-specification:Ubuntu"
         d="m 16.064367,33.278663 q -0.205397,0.09722 -0.462347,0.215991 -0.255075,0.114203 -0.534052,0.234612 -0.272533,0.117716 -0.54319,0.230862 -0.270658,0.113146 -0.507219,0.208253 0.140217,0.217704 0.277028,0.508751 0.13681,0.291046 0.253232,0.605757 0.116421,0.314711 0.201678,0.627309 0.08983,0.314473 0.12506,0.579849 L 14.35368,36.276282 q -0.04894,-0.271002 -0.139004,-0.558879 -0.08819,-0.292447 -0.208598,-0.571424 -0.113965,-0.281671 -0.250194,-0.535108 -0.13166,-0.251562 -0.274809,-0.449114 l -0.616919,1.503231 -0.443202,-0.181888 1.299468,-3.166381 0.443202,0.181888 -0.573791,1.398142 q 0.221798,-0.08515 0.49058,-0.193727 0.270658,-0.113146 0.536746,-0.228168 0.266089,-0.115021 0.501831,-0.221142 0.242187,-0.108815 0.410793,-0.19444 z" />
      <path
         id="path3073"
         style="font-style:normal;font-variant:normal;font-weight:normal;font-stretch:normal;font-family:Ubuntu;-inkscape-font-specification:Ubuntu"
         d="m 16.706568,36.536969 q 0.736946,0.14311 0.834864,-0.361116 0.03013,-0.155147 -0.01703,-0.274991 -0.04137,-0.123752 -0.137821,-0.22298 -0.09551,-0.104076 -0.229658,-0.190501 -0.129303,-0.08548 -0.278,-0.174734 -0.171997,-0.0988 -0.321776,-0.20839 -0.148837,-0.114433 -0.249332,-0.244634 -0.09955,-0.135049 -0.143092,-0.29947 -0.03869,-0.16348 0.0027,-0.376806 0.08568,-0.441198 0.434291,-0.630089 0.348613,-0.188891 0.877081,-0.08627 0.305445,0.05932 0.539529,0.175209 0.239873,0.111986 0.341169,0.212156 l -0.224678,0.353831 q -0.08957,-0.0828 -0.281907,-0.180523 -0.186542,-0.101631 -0.4532,-0.153414 -0.135753,-0.02636 -0.257762,-0.01987 -0.122009,0.0065 -0.220577,0.04773 -0.09857,0.04123 -0.169788,0.122994 -0.06543,0.07785 -0.08897,0.199063 -0.02636,0.135754 0.0091,0.238228 0.03544,0.102475 0.118287,0.194031 0.08378,0.08671 0.198544,0.169366 0.119606,0.0836 0.263455,0.171909 0.201227,0.129638 0.363668,0.251743 0.16729,0.123048 0.274657,0.269677 0.112215,0.14757 0.151987,0.331384 0.04071,0.178966 -0.0054,0.416534 -0.08568,0.441198 -0.45665,0.615685 -0.366124,0.175428 -0.952772,0.06151 -0.198781,-0.0386 -0.362823,-0.100645 -0.160136,-0.05625 -0.28445,-0.115612 -0.123373,-0.06421 -0.212808,-0.121825 -0.08364,-0.06152 -0.131327,-0.10097 l 0.215923,-0.360562 q 0.09927,0.08468 0.312079,0.206507 0.212807,0.121824 0.542493,0.185847 z" />
      <path
         id="path3075"
         style="font-style:normal;font-variant:normal;font-weight:normal;font-stretch:normal;font-family:Ubuntu;-inkscape-font-specification:Ubuntu"
         d="m 20.474542,37.276937 q -0.360534,0.0021 -0.657541,-0.114776 -0.297007,-0.116837 -0.510675,-0.342808 -0.213668,-0.225971 -0.334092,-0.556194 -0.115513,-0.335191 -0.11797,-0.764868 -0.0025,-0.429677 0.12406,-0.761312 0.131428,-0.336603 0.352376,-0.565059 0.220947,-0.228457 0.516599,-0.348683 0.295651,-0.120226 0.631491,-0.122146 0.212369,-0.0012 0.380458,0.02746 0.173028,0.02864 0.296725,0.06745 0.128635,0.03878 0.207882,0.07784 0.07925,0.03906 0.108993,0.05865 l -0.136028,0.395896 q -0.04462,-0.02938 -0.128776,-0.06347 -0.08416,-0.03409 -0.193009,-0.06804 -0.103913,-0.03398 -0.232436,-0.053 -0.123611,-0.02399 -0.252021,-0.02325 -0.271635,0.0016 -0.488406,0.09663 -0.216772,0.09508 -0.368858,0.273754 -0.152087,0.178673 -0.234578,0.435971 -0.07758,0.252332 -0.07577,0.568416 0.0018,0.306207 0.07233,0.557691 0.07552,0.251457 0.219793,0.433374 0.144243,0.176978 0.357177,0.27454 0.217873,0.09753 0.504324,0.0959 0.330901,-0.0019 0.547814,-0.07228 0.216912,-0.07039 0.325256,-0.125334 l 0.125729,0.394399 q -0.03443,0.02489 -0.123103,0.06491 -0.0887,0.03508 -0.221851,0.07041 -0.133151,0.03533 -0.310807,0.06105 -0.177656,0.02571 -0.385087,0.0269 z" />
      <path
         id="path3077"
         style="font-style:normal;font-variant:normal;font-weight:normal;font-stretch:normal;font-family:Ubuntu;-inkscape-font-specification:Ubuntu"
         d="m 23.933743,33.234316 0.466527,-0.108923 0.778184,3.333019 -0.466527,0.108923 -0.359334,-1.539056 -1.630438,0.38067 0.359334,1.539056 -0.466526,0.108923 -0.778184,-3.333019 0.466526,-0.108923 0.324525,1.38996 1.630437,-0.38067 z" />
      <path
         id="path3079"
         style="font-style:normal;font-variant:normal;font-weight:normal;font-stretch:normal;font-family:Ubuntu;-inkscape-font-specification:Ubuntu"
         d="m 26.49357,35.958817 -1.469062,-3.091349 1.886927,-0.896701 0.175948,0.370248 -1.454227,0.691074 0.436691,0.91893 1.293638,-0.61476 0.171708,0.361327 -1.293638,0.614759 0.508767,1.070597 1.565748,-0.74407 0.175948,0.370248 z" />
      <path
         id="path3081"
         style="font-style:normal;font-variant:normal;font-weight:normal;font-stretch:normal;font-family:Ubuntu;-inkscape-font-specification:Ubuntu"
         d="m 27.543492,31.535093 0.396735,-0.268538 1.918519,2.834409 -0.396735,0.268537 z" />
      <path
         id="path3083"
         style="font-style:normal;font-variant:normal;font-weight:normal;font-stretch:normal;font-family:Ubuntu;-inkscape-font-specification:Ubuntu"
         d="m 31.34251,32.4813 q 0.552914,-0.507795 0.205476,-0.886105 -0.106905,-0.116403 -0.231328,-0.149659 -0.124126,-0.04023 -0.261242,-0.0216 -0.140458,0.015 -0.289675,0.07157 -0.145579,0.05323 -0.305709,0.119825 -0.181658,0.07966 -0.358788,0.135044 -0.180471,0.05175 -0.344908,0.05524 -0.167777,-1.46e-4 -0.325904,-0.0628 -0.15449,-0.066 -0.301483,-0.226049 -0.304009,-0.33102 -0.248857,-0.723665 0.05515,-0.392644 0.451649,-0.756786 0.229169,-0.210468 0.461456,-0.32992 0.232585,-0.126431 0.373339,-0.148408 l 0.151155,0.390933 q -0.119819,0.02287 -0.312687,0.119528 -0.192571,0.08968 -0.392639,0.273424 -0.101853,0.09354 -0.16911,0.195545 -0.06726,0.102004 -0.09265,0.205789 -0.02539,0.103785 -0.0019,0.209647 0.02376,0.09888 0.107277,0.189824 0.09354,0.101853 0.197029,0.134219 0.103488,0.03237 0.226351,0.02011 0.119522,-0.01589 0.254189,-0.0591 0.138304,-0.04655 0.294796,-0.109803 0.223825,-0.08486 0.41855,-0.142989 0.198362,-0.06147 0.380096,-0.06073 0.185371,-0.0026 0.356861,0.0746 0.16815,0.07357 0.331847,0.251808 0.304009,0.331021 0.223988,0.733094 -0.07638,0.398732 -0.516533,0.802964 -0.149141,0.136971 -0.296501,0.232072 -0.140382,0.0954 -0.261983,0.160135 -0.124941,0.0611 -0.224418,0.09881 -0.09918,0.03074 -0.15924,0.04566 l -0.16177,-0.38789 q 0.127094,-0.02955 0.351513,-0.128362 0.224419,-0.09881 0.471775,-0.325986 z" />
      <path
         id="path3085"
         style="font-style:normal;font-variant:normal;font-weight:normal;font-stretch:normal;font-family:Ubuntu;-inkscape-font-specification:Ubuntu"
         d="m 33.44081,30.18553 q 0.449575,-0.601208 0.03822,-0.908813 -0.12657,-0.09465 -0.254995,-0.104343 -0.129423,-0.01661 -0.260736,0.02704 -0.135268,0.04069 -0.271464,0.123857 -0.133238,0.07921 -0.278307,0.174244 -0.163813,0.111852 -0.327661,0.199009 -0.167804,0.0842 -0.328764,0.118012 -0.164916,0.03085 -0.331897,-0.0015 -0.164023,-0.03632 -0.338057,-0.166456 -0.359934,-0.269154 -0.378275,-0.665228 -0.01834,-0.396074 0.304052,-0.827204 0.186337,-0.249185 0.392556,-0.409498 0.205221,-0.167226 0.339492,-0.214829 l 0.22078,0.356275 q -0.113531,0.04461 -0.28522,0.175242 -0.172686,0.123717 -0.335362,0.34126 -0.08282,0.110749 -0.13007,0.223423 -0.04725,0.112674 -0.05303,0.219362 -0.0058,0.106689 0.03684,0.206394 0.04162,0.09279 0.140501,0.166736 0.110749,0.08282 0.218435,0.0955 0.107686,0.01269 0.226171,-0.02205 0.114529,-0.0377 0.238894,-0.105043 0.127323,-0.0713 0.269434,-0.162378 0.204294,-0.12475 0.384926,-0.217858 0.183589,-0.09706 0.362331,-0.129913 0.1817,-0.03681 0.364502,0.0074 0.178847,0.04123 0.372657,0.186162 0.359934,0.269154 0.355576,0.67909 -0.0014,0.40598 -0.359286,0.884573 -0.121267,0.162168 -0.24852,0.282858 -0.120339,0.119692 -0.227885,0.205781 -0.111502,0.08313 -0.202299,0.138576 -0.09179,0.04853 -0.148062,0.07429 l -0.230651,-0.351323 q 0.119447,-0.05252 0.321746,-0.191098 0.202299,-0.138576 0.403425,-0.407538 z" />
      <path
         id="path3087"
         style="font-style:normal;font-variant:normal;font-weight:normal;font-stretch:normal;font-family:Ubuntu;-inkscape-font-specification:Ubuntu"
         d="m 35.039655,28.408401 -3.078969,-1.494837 0.912433,-1.87937 0.368765,0.179035 -0.703199,1.448404 0.91525,0.444352 0.625544,-1.288457 0.35988,0.174721 -0.625545,1.288457 1.06631,0.517693 0.757125,-1.559478 0.368765,0.179035 z" />
    </g>
  </g>
</svg>
