<?xml version="1.0" encoding="UTF-8" standalone="no"?>
<svg
   xmlns:dc="http://purl.org/dc/elements/1.1/"
   xmlns:cc="http://creativecommons.org/ns#"
   xmlns:rdf="http://www.w3.org/1999/02/22-rdf-syntax-ns#"
   xmlns:svg="http://www.w3.org/2000/svg"
   xmlns="http://www.w3.org/2000/svg"
   xmlns:sodipodi="http://sodipodi.sourceforge.net/DTD/sodipodi-0.dtd"
   xmlns:inkscape="http://www.inkscape.org/namespaces/inkscape"
   sodipodi:docname="proprietary-bullshit-round-en_flyeralarm.svg"
   inkscape:version="1.0.1 (3bc2e813f5, 2020-09-07)"
   id="svg8"
   version="1.1"
   viewBox="0 0 34 34"
   height="34mm"
   width="34mm">
  <defs
     id="defs2" />
  <sodipodi:namedview
     inkscape:window-maximized="1"
     inkscape:window-y="0"
     inkscape:window-x="0"
     inkscape:window-height="1031"
     inkscape:window-width="1916"
     showgrid="false"
     inkscape:document-rotation="0"
     inkscape:current-layer="layer1"
     inkscape:document-units="mm"
     inkscape:cy="52.860222"
     inkscape:cx="77.264988"
     inkscape:zoom="3.959798"
     inkscape:pageshadow="2"
     inkscape:pageopacity="0.0"
     borderopacity="1.0"
     bordercolor="#666666"
     pagecolor="#ffffff"
     id="base" />
  <metadata
     id="metadata5">
    <rdf:RDF>
      <cc:Work
         rdf:about="">
        <dc:format>image/svg+xml</dc:format>
        <dc:type
           rdf:resource="http://purl.org/dc/dcmitype/StillImage" />
        <dc:title></dc:title>
      </cc:Work>
    </rdf:RDF>
  </metadata>
  <g
     id="layer1"
     inkscape:groupmode="layer"
     inkscape:label="Layer 1">
    <rect
       y="0"
       x="0"
       height="34"
       width="34"
       id="rect1647"
       style="color:#000000;overflow:visible;fill:#f4e3d7;fill-opacity:0.381927;stroke-width:2.90188;stroke-linejoin:bevel;paint-order:markers stroke fill" />
    <g
       transform="matrix(0.10169997,0,0,0.10169997,10.326036,10.518281)"
       id="g1014">
      <g
         id="g990">
        <path
           fill="#2f2f2f"
           d="m 95.65,87.06 c -3,-1.87 -5.63,-2.18 -5.63,-2.18 0,0 -2.91,0.31 -7.15,0.77 l 5.71,-10.26 c -3.3,-3.56 -6.76,-4.08 -6.76,-4.08 L 69.47,72.6 69.6,71.76 44.76,64.32 c -3.37,0.28 -6,1.58 -6,1.58 l -0.67,16.59 0.74,0.92 c -6.97,-0.05 -11.36,2.77 -11.36,2.77 0,0 -1.23,14.84 -1.31,15.05 -0.05,0.14 17.38,5.92 28.4,9.57 0.49,1.7 0.83,2.82 0.83,2.82 l 7.02,-0.23 c 0.17,0.06 0.39,0.13 0.52,0.17 l 0.08,0.09 0.01,-0.07 c 0.26,0.09 0.41,0.14 0.41,0.14 v -0.36 l 14.8,-0.48 z"
           id="path982" />
        <path
           fill="#855c52"
           d="m 61.88,78.03 c 5,0.83 10.49,0.82 15.04,-1.68 4.31,-2.37 7.01,-7.43 5.88,-12.34 -0.73,-3.11 -2.4,-5.06 -4.6,-6.37 -2.25,-1.34 -5.04,-1.99 -7.9,-2.5 -1.37,-0.25 -7.16,-1.06 -9.55,-4.38 -1.93,-2.69 -1.99,-7.54 -2.52,-8.98 -0.56,-1.5 -2.46,-0.84 -4.55,0.55 -2.43,1.62 -7.46,6.82 -9.4,12.02 -2.62,7.07 -0.71,12.46 1.14,14.86 3.78,4.91 10.89,7.88 16.46,8.82 z"
           id="path984" />
        <path
           fill="#855c52"
           d="m 55.08,99.49 c 4.21,0.54 6.91,0.75 11.15,0.44 10.39,-0.75 18.8,-4.11 23.15,-10.74 3.94,-6.04 2.11,-10.63 -0.81,-13.81 -0.37,-0.42 -0.96,-0.85 -1.59,-1.13 -1.06,-0.46 -2.27,-0.49 -3.02,0.6 -4.49,6.45 -15.73,8.2 -25.17,6.22 -3.81,-0.8 -12.26,-3.39 -15.83,-9.08 -0.86,-1.38 -1.21,-2.87 -1.45,-4.04 -0.25,-1.19 -0.99,-2.82 -3.05,-1.96 -2.19,0.91 -6.88,5.12 -7.3,11.56 -0.28,4.29 0.97,8.69 3.76,11.9 4.97,5.73 12.8,9.1 20.16,10.04 z"
           id="path986" />
        <path
           fill="#855c52"
           d="m 95.65,87.06 c -1.46,-0.75 -2.33,0.92 -2.95,2.04 -4.68,8.62 -13.75,12.88 -23.43,13.97 -8.85,0.98 -16.48,1.31 -26.58,-3.32 C 37.46,97.34 32.25,94.31 29.61,87.63 29.25,86.71 29.16,85.84 28.08,86 c -1.31,0.2 -4.28,2.19 -5.1,3.18 -1.44,1.73 -2.44,3.8 -3.03,5.97 -1.29,4.71 -0.82,10.08 1.47,14.42 1.27,2.41 3,4.98 4.91,6.94 6.24,6.41 17,8.83 25.5,10.23 10.35,1.71 21.19,1.11 30.88,-2.89 14.53,-6 18.39,-15.64 18.97,-18.36 1.27,-6.05 -0.28,-11.72 -0.94,-13.08 -0.97,-1.98 -2.53,-4.03 -5.09,-5.35 z"
           id="path988" />
      </g>
      <g
         id="g998">
        <path
           fill="#78a3ad"
           d="m 117.76,66.3 c -0.38,1.3 -1.95,1.97 -3.5,1.52 -2.09,-0.62 -5.01,-4.04 -5.01,-4.04 0,0 4.39,-1.25 6.39,-0.66 1.55,0.47 2.5,1.89 2.12,3.18 z"
           id="path992" />
        <path
           fill="#78a3ad"
           d="m 101.73,55.72 c -1.05,0.84 -1.1,2.55 -0.09,3.81 1.36,1.7 5.62,3.13 5.62,3.13 0,0 -0.49,-4.54 -1.79,-6.17 -1.01,-1.27 -2.69,-1.61 -3.74,-0.77 z"
           id="path994" />
        <path
           fill="#2f2f2f"
           d="m 110.42,65.59 c -0.95,1.4 -2.86,1.78 -4.27,0.83 -1.4,-0.95 -1.78,-2.86 -0.84,-4.27 0.95,-1.41 2.86,-1.78 4.27,-0.83 1.41,0.95 1.79,2.86 0.84,4.27 z"
           id="path996" />
      </g>
      <g
         id="g1006">
        <path
           fill="#78a3ad"
           d="m 29.05,41.94 c -0.94,-0.97 -2.64,-0.85 -3.82,0.28 -1.56,1.5 -2.58,5.88 -2.58,5.88 0,0 4.47,-0.91 5.97,-2.36 1.17,-1.12 1.36,-2.82 0.43,-3.8 z"
           id="path1000" />
        <path
           fill="#78a3ad"
           d="m 13.18,52.55 c -0.52,-1.24 0.26,-2.76 1.75,-3.38 2,-0.85 6.43,-0.05 6.43,-0.05 0,0 -2.6,3.74 -4.53,4.55 -1.49,0.62 -3.12,0.12 -3.65,-1.12 z"
           id="path1002" />
        <path
           fill="#2f2f2f"
           d="m 24.63,47.03 c 1.01,1.36 0.72,3.29 -0.64,4.3 -1.37,1.01 -3.29,0.72 -4.3,-0.64 -1.02,-1.36 -0.73,-3.29 0.64,-4.3 1.37,-1.01 3.29,-0.72 4.3,0.64 z"
           id="path1004" />
      </g>
      <path
         fill="#fcc21b"
         d="m 38.59,34.14 c -0.07,0.16 -0.21,0.33 -0.42,0.53 -1.69,1.6 -7.53,0.51 -9.48,0 C 24.56,33.59 19.62,31.99 17.7,27.5 14.91,20.98 20.44,14.67 25.07,11.39 35.4,4.06 48.68,3.4 60.62,5.36 c 4.83,0.79 9.59,2.26 14.47,2.62 2.86,0.21 5.69,0.55 8.57,0.32 0.98,-0.08 4.01,-0.57 4.02,-2.01 0.01,-1.87 -3.51,-1.7 -4.14,-3.25 -1.32,-3.27 8.67,-2.65 9.58,-2.58 4.77,0.35 10.57,1.41 14.78,3.88 5.21,3.06 5.5,9 0.31,12.3 -3.04,1.94 -6.58,2.54 -10.03,2.66 C 88.98,19.63 79.11,17.29 72.24,15.61 61.8,13.04 53.67,6.73 40.83,10.73 33.39,13.05 27.46,19.14 29.36,26.6 c 1.17,4.59 6.45,5.7 7.7,6.09 0.94,0.29 1.9,0.69 1.53,1.45 z"
         id="path1008" />
      <path
         fill="#fcc21b"
         d="m 104.62,46.89 c -4.09,2.49 -9.45,3.46 -14.06,2.3 -0.97,-0.25 -0.96,-1.13 -0.25,-1.58 2.87,-1.81 9.15,-3.77 8.06,-8.36 -0.79,-3.35 -5.27,-3.69 -8.06,-3.62 -1.53,0.04 -3.04,0.28 -4.54,0.55 -0.42,0.08 -0.84,0.15 -1.26,0.23 -4.72,0.88 -8.85,1.27 -13.65,0.89 -1.42,-0.11 -4.25,-0.29 -5.14,-1.6 -1.23,-1.83 4.93,-1.61 5.68,-1.69 4.44,-0.47 8.92,-1.44 13.23,-2.57 3.82,-1 7.66,-2.09 11.62,-2.32 4.39,-0.26 10.32,0.51 13.4,3.96 4,4.49 0.15,9.99 -3.67,12.88 -0.43,0.33 -0.89,0.64 -1.36,0.93 z"
         id="path1010" />
      <path
         fill="#fcc21b"
         d="m 17.29,66.78 c 0.41,-4.46 6,-4.23 8.63,-6.67 0.37,-0.34 0.49,-0.78 0.17,-1.17 -0.9,-1.11 -4.33,-0.2 -5.47,0.04 -4.22,0.85 -12.64,4.33 -9.95,10.21 0.84,1.83 2.66,2.91 4.51,3.49 1.28,0.4 4.28,1.25 5.17,-0.28 0.83,-1.43 -1.37,-2.16 -2.11,-2.96 -0.76,-0.85 -1.03,-1.77 -0.95,-2.66 z"
         id="path1012" />
    </g>
    <g
       style="font-style:normal;font-variant:normal;font-weight:normal;font-stretch:normal;font-size:4.93889px;line-height:125%;font-family:Hack;-inkscape-font-specification:Hack;text-align:start;letter-spacing:0px;word-spacing:0px;writing-mode:lr-tb;text-anchor:start;fill:#000000;fill-opacity:1;stroke:none;stroke-width:0.264583px;stroke-linecap:butt;stroke-linejoin:miter;stroke-opacity:1"
       id="text1703"
       aria-label="PROPRIETARY"
       transform="matrix(0.62360814,0,0,0.62360814,4.3623625,4.5553576)">
      <path
         id="path2936"
         style="font-style:normal;font-variant:normal;font-weight:normal;font-stretch:normal;font-size:4.93889px;font-family:Ubuntu;-inkscape-font-specification:Ubuntu;stroke-width:0.264583px"
         d="m 5.1168405,11.013492 q 0.378177,-0.613951 0.8157047,-0.796897 0.4359129,-0.189743 0.8984785,0.09519 0.2523086,0.155415 0.3761441,0.359309 0.1222206,0.197099 0.1295591,0.439447 0.00572,0.235552 -0.09405,0.510533 -0.099773,0.274982 -0.2888615,0.581957 l -0.199449,0.323791 1.0807216,0.665695 -0.2512546,0.407899 -2.8721121,-1.769143 q 0.064149,-0.198314 0.1810462,-0.416342 0.1152823,-0.224823 0.224073,-0.401439 z m 0.3781591,0.186531 q -0.1605957,0.260718 -0.2334587,0.407259 l 1.1437987,0.704549 0.1890885,-0.306976 q 0.1295127,-0.210257 0.207892,-0.394004 0.074174,-0.186337 0.081034,-0.33873 0.00524,-0.159188 -0.06944,-0.292202 Q 6.7392291,10.846905 6.5626131,10.738114 6.3944074,10.634504 6.2436297,10.63444 6.0954422,10.63014 5.9624282,10.70486 5.8277993,10.77275 5.7119096,10.904388 5.5960199,11.036026 5.495,11.200027 Z" />
      <path
         id="path2938"
         style="font-style:normal;font-variant:normal;font-weight:normal;font-stretch:normal;font-size:4.93889px;font-family:Ubuntu;-inkscape-font-specification:Ubuntu;stroke-width:0.264583px"
         d="m 9.3741031,8.8898382 q 0.1259204,0.012068 0.325435,0.040487 0.1994091,0.021435 0.4306149,0.066839 0.227661,0.041965 0.466062,0.1012307 0.24184,0.055721 0.445532,0.1294827 l -0.36455,0.375738 Q 10.473716,9.5438221 10.252933,9.494768 10.03559,9.4421692 9.8289855,9.4068717 9.6188368,9.368135 9.4264115,9.3465941 9.2374255,9.3215085 9.0905536,9.3097574 q -0.041164,0.04952 -0.089312,0.099146 -0.044709,0.046081 -0.092857,0.095707 L 8.6091781,9.8129989 9.5697912,10.745009 9.2361937,11.088844 6.8151651,8.7399048 Q 6.9207233,8.5601807 7.0820467,8.3726284 7.2432645,8.1780922 7.3877088,8.0292149 7.8898247,7.511689 8.3461585,7.4314452 8.8059314,7.3476567 9.1923034,7.7225241 9.4368876,7.9598254 9.4833292,8.2594976 9.53321,8.555625 9.3741031,8.8898382 Z M 7.7165213,8.2931851 Q 7.503294,8.5129563 7.4004362,8.6402488 L 8.3256023,9.5378669 8.5629037,9.2932828 Q 8.7348611,9.1160479 8.8547037,8.9570642 8.9745462,8.7980805 9.0177774,8.6542256 9.0644479,8.506826 9.0274177,8.3676768 8.9868428,8.2250884 8.8379655,8.0806441 8.6997222,7.9465173 8.5559729,7.9102698 8.4122235,7.8740224 8.2696351,7.9145973 8.1304859,7.9516275 7.9888475,8.055057 7.8506482,8.1549418 7.7165213,8.2931851 Z" />
      <path
         id="path2940"
         style="font-style:normal;font-variant:normal;font-weight:normal;font-stretch:normal;font-size:4.93889px;font-family:Ubuntu;-inkscape-font-specification:Ubuntu;stroke-width:0.264583px"
         d="M 10.394678,7.5450698 Q 10.164142,7.170814 10.097336,6.8175182 q -0.0626,-0.355886 0.01007,-0.6616794 0.07428,-0.3125887 0.267013,-0.5647237 0.196936,-0.2547253 0.482884,-0.4308648 0.281743,-0.1735491 0.589422,-0.2296582 0.311884,-0.058699 0.620267,0.018173 0.305794,0.072668 0.591266,0.2912685 0.289678,0.2160106 0.520214,0.5902664 0.230535,0.3742559 0.293136,0.7301419 0.06681,0.3532958 -0.0033,0.6632943 -0.07267,0.3057933 -0.265398,0.5579283 -0.1885,0.249545 -0.470243,0.4230942 Q 12.446719,8.3808982 12.13063,8.4421878 11.818746,8.5008872 11.508747,8.4308099 11.200364,8.3539371 10.910686,8.1379266 10.625213,7.9193257 10.394678,7.5450698 Z M 10.8236,7.2808606 q 0.163188,0.2649227 0.365165,0.4421445 0.199387,0.1730166 0.414586,0.2492827 0.219404,0.073676 0.447824,0.048986 0.230036,-0.031485 0.452908,-0.1687702 0.222871,-0.1372852 0.350271,-0.3259745 0.124809,-0.1928945 0.153507,-0.4193972 0.0329,-0.229093 -0.03192,-0.4849988 -0.06741,-0.2601106 -0.2306,-0.5250333 Q 12.582153,5.8321771 12.382767,5.6591605 12.18079,5.4819387 11.961386,5.4082629 q -0.215199,-0.076266 -0.44103,-0.047371 -0.228421,0.02469 -0.451292,0.1619748 -0.222871,0.1372852 -0.351886,0.3327699 -0.1274,0.1886894 -0.160303,0.4177823 -0.0287,0.2265027 0.03871,0.4866137 0.06482,0.2559058 0.22801,0.5208284 z" />
      <path
         id="path2942"
         style="font-style:normal;font-variant:normal;font-weight:normal;font-stretch:normal;font-size:4.93889px;font-family:Ubuntu;-inkscape-font-specification:Ubuntu;stroke-width:0.264583px"
         d="m 14.583496,3.4805571 q 0.687291,-0.2181383 1.138144,-0.071059 0.454066,0.1408773 0.618416,0.6586994 0.08965,0.2824484 0.05033,0.5177399 -0.03611,0.2290899 -0.188771,0.4174497 -0.149452,0.1821583 -0.404556,0.3253056 -0.255105,0.1431474 -0.59875,0.2522165 L 14.835831,5.6959544 15.219815,6.905775 14.76319,7.0507025 13.742721,3.8354982 q 0.178065,-0.1083328 0.408957,-0.1971601 0.234104,-0.095029 0.431818,-0.157781 z m 0.164658,0.3881825 q -0.291863,0.092634 -0.442727,0.1560617 l 0.406394,1.2804328 0.343646,-0.1090692 q 0.235374,-0.074705 0.414708,-0.1627136 0.17784,-0.092716 0.28253,-0.203669 0.107904,-0.1171543 0.138176,-0.2666676 0.03027,-0.1495132 -0.03248,-0.3472271 -0.05976,-0.1882989 -0.17393,-0.2867877 -0.109459,-0.099983 -0.258972,-0.1302543 -0.1463,-0.036473 -0.320026,-0.012424 -0.173726,0.024049 -0.357319,0.082318 z" />
      <path
         id="path2944"
         style="font-style:normal;font-variant:normal;font-weight:normal;font-stretch:normal;font-size:4.93889px;font-family:Ubuntu;-inkscape-font-specification:Ubuntu;stroke-width:0.264583px"
         d="m 19.195175,4.6497767 q 0.08746,0.091392 0.219958,0.2432393 0.136982,0.1464902 0.282383,0.331899 0.144963,0.1804892 0.286755,0.3810938 0.146713,0.2001672 0.252757,0.3890747 l -0.521466,0.046358 Q 19.600553,5.8632475 19.46543,5.6818836 19.335225,5.5000823 19.201851,5.3383963 19.068039,5.1717908 18.936413,5.0297828 18.809708,4.8873374 18.706179,4.7824986 q -0.06352,0.010605 -0.132389,0.016728 -0.06395,0.00569 -0.132826,0.011808 l -0.427996,0.038048 0.118519,1.3331814 -0.477191,0.042422 -0.298702,-3.3600108 q 0.197326,-0.067126 0.441988,-0.1037512 0.249145,-0.041982 0.455763,-0.06035 0.718246,-0.063851 1.116181,0.1734828 0.402854,0.2368968 0.450524,0.7731211 0.03018,0.3394447 -0.130416,0.5966812 -0.155672,0.2567991 -0.494459,0.4059176 z m -0.8653,-1.5345452 q -0.305008,0.027115 -0.466039,0.056306 l 0.114145,1.2839866 0.339445,-0.030176 q 0.245974,-0.021867 0.440567,-0.063958 0.194593,-0.042091 0.321296,-0.122772 0.131623,-0.081118 0.194482,-0.2106656 0.06242,-0.1344668 0.04405,-0.3410853 -0.01706,-0.1918601 -0.102219,-0.3132067 -0.08516,-0.1213466 -0.21963,-0.1837682 -0.129547,-0.062859 -0.304353,-0.077069 -0.169887,-0.014648 -0.361747,0.00241 z" />
      <path
         id="path2946"
         style="font-style:normal;font-variant:normal;font-weight:normal;font-stretch:normal;font-size:4.93889px;font-family:Ubuntu;-inkscape-font-specification:Ubuntu;stroke-width:0.264583px"
         d="m 20.997917,2.6740066 0.477861,0.034048 -0.243253,3.4139957 -0.477861,-0.034048 z" />
      <path
         id="path2948"
         style="font-style:normal;font-variant:normal;font-weight:normal;font-stretch:normal;font-size:4.93889px;font-family:Ubuntu;-inkscape-font-specification:Ubuntu;stroke-width:0.264583px"
         d="m 22.082575,6.1907516 0.750687,-3.3393125 2.038281,0.4582112 -0.08991,0.3999465 -1.570874,-0.3531368 -0.223148,0.9926384 1.397404,0.3141401 -0.08774,0.3903092 -1.397403,-0.31414 -0.259978,1.1564718 1.69134,0.3802178 -0.08991,0.3999465 z" />
      <path
         id="path2950"
         style="font-style:normal;font-variant:normal;font-weight:normal;font-stretch:normal;font-size:4.93889px;font-family:Ubuntu;-inkscape-font-specification:Ubuntu;stroke-width:0.264583px"
         d="M 28.274278,4.6801614 28.108602,5.0605113 27.121504,4.6305438 25.920356,7.3880805 25.481143,7.1967647 26.68229,4.439228 25.695192,4.0092605 25.860867,3.6289106 Z" />
      <path
         id="path2952"
         style="font-style:normal;font-variant:normal;font-weight:normal;font-stretch:normal;font-size:4.93889px;font-family:Ubuntu;-inkscape-font-specification:Ubuntu;stroke-width:0.264583px"
         d="m 28.933444,9.2578135 q 0.05983,-0.2299249 0.122009,-0.4460811 0.06504,-0.220188 0.128893,-0.4472603 L 27.91836,7.4687625 27.159451,8.0026792 26.752238,7.7145688 Q 27.227294,7.3851736 27.633697,7.1100562 28.042952,6.830907 28.415619,6.5863706 28.792316,6.3446869 29.142162,6.132405 29.49486,5.9160912 29.853948,5.7163989 l 0.35883,0.2538794 q -0.0688,0.405078 -0.155397,0.8096619 -0.08375,0.4005521 -0.190314,0.8333586 -0.102535,0.4356591 -0.229564,0.9144887 -0.124177,0.4747979 -0.276688,1.0323993 z m 0.366218,-1.2957578 q 0.119157,-0.4420494 0.221198,-0.8599079 0.108926,-0.4190377 0.185788,-0.8184106 -0.355057,0.202545 -0.717986,0.4418703 -0.356045,0.2381461 -0.729205,0.500483 z" />
      <path
         id="path2954"
         style="font-style:normal;font-variant:normal;font-weight:normal;font-stretch:normal;font-size:4.93889px;font-family:Ubuntu;-inkscape-font-specification:Ubuntu;stroke-width:0.264583px"
         d="m 31.859281,10.216715 q -0.02116,0.124715 -0.06396,0.321646 -0.03583,0.197332 -0.09786,0.424641 -0.05835,0.224022 -0.134732,0.457503 -0.0731,0.237167 -0.161422,0.43498 l -0.34834,-0.390815 q 0.07438,-0.198615 0.139301,-0.415263 0.06821,-0.212962 0.118381,-0.416465 0.05386,-0.20679 0.08929,-0.397149 0.03871,-0.186672 0.06107,-0.3323064 -0.04641,-0.044644 -0.09241,-0.096261 -0.04272,-0.04793 -0.08873,-0.099547 L 30.993969,9.3869153 29.99481,10.277477 29.676048,9.9198446 32.194224,7.6753658 q 0.171604,0.1183023 0.346975,0.2927904 0.182345,0.1748888 0.320365,0.32974 0.479786,0.5382924 0.526757,0.9992407 0.05026,0.4646353 -0.35162,0.8228311 -0.254398,0.226749 -0.556648,0.251356 -0.298963,0.02829 -0.62077,-0.154609 z M 32.574462,8.6067189 Q 32.370718,8.378129 32.251212,8.2663188 l -0.96229,0.8576998 0.226748,0.2543984 q 0.164311,0.1843467 0.314194,0.3153931 0.149883,0.1310463 0.290227,0.1845866 0.143631,0.057227 0.285098,0.030376 0.145153,-0.030137 0.300004,-0.168158 0.143791,-0.1281621 0.190358,-0.2689074 0.04657,-0.1407454 0.01643,-0.2858988 -0.02685,-0.1414664 -0.119747,-0.2902264 -0.08961,-0.145073 -0.217772,-0.2888632 z" />
      <path
         id="path2956"
         style="font-style:normal;font-variant:normal;font-weight:normal;font-stretch:normal;font-size:4.93889px;font-family:Ubuntu;-inkscape-font-specification:Ubuntu;stroke-width:0.264583px"
         d="m 32.010416,12.943234 1.196003,-0.674342 q 0.292959,-0.556398 0.592418,-1.071102 0.299458,-0.514704 0.598688,-0.989591 l 0.276529,0.490448 q -0.260602,0.362389 -0.512279,0.770774 -0.247375,0.40596 -0.461659,0.810273 0.454428,0.0216 0.929817,0.02005 0.479692,-0.004 0.927072,-0.0351 l 0.261975,0.464635 q -0.561205,0.01025 -1.156597,9.1e-5 -0.591091,-0.01259 -1.212068,-0.04801 l -1.204607,0.679194 z" />
    </g>
    <g
       style="font-style:normal;font-variant:normal;font-weight:normal;font-stretch:normal;font-size:4.9389px;line-height:125%;font-family:Hack;-inkscape-font-specification:Hack;text-align:start;letter-spacing:0.550333px;word-spacing:0px;writing-mode:lr-tb;text-anchor:start;fill:#000000;fill-opacity:1;stroke:none;stroke-width:0.264583px;stroke-linecap:butt;stroke-linejoin:miter;stroke-opacity:1"
       id="text1703-1"
       aria-label="BULLSHIT"
       transform="matrix(0.62360814,0,0,0.62360814,4.3623625,4.5553576)">
      <path
         id="path2959"
         style="font-style:normal;font-variant:normal;font-weight:normal;font-stretch:normal;font-size:4.9389px;font-family:Ubuntu;-inkscape-font-specification:Ubuntu;stroke-width:0.264583px"
         d="m 8.7511073,33.0557 q -0.079442,-0.06668 -0.1708418,-0.149842 -0.087616,-0.07999 -0.1758404,-0.166933 -0.084441,-0.08377 -0.165707,-0.171324 -0.081266,-0.08755 -0.1410496,-0.169972 l 2.1337255,-2.542161 q 0.09154,0.04459 0.191852,0.109444 0.100317,0.06485 0.197459,0.133494 0.100925,0.07181 0.194892,0.144235 0.09397,0.07242 0.173409,0.139101 0.226978,0.190511 0.395117,0.389667 0.171921,0.202332 0.24582,0.406214 0.08086,0.203275 0.05295,0.405534 -0.02791,0.202258 -0.18984,0.39519 -0.180986,0.21563 -0.400608,0.26987 -0.216447,0.05046 -0.443835,-0.02433 0.173609,0.26178 0.185964,0.523623 0.01236,0.261843 -0.213084,0.530434 -0.330219,0.39343 -0.7897932,0.349439 -0.4526161,-0.0446 -1.0805905,-0.57168 z m 0.7003852,-1.533542 -0.7747454,0.923046 q 0.038438,0.03871 0.092007,0.09012 0.046003,0.04506 0.1071389,0.102822 0.068094,0.05715 0.1551022,0.130182 0.162668,0.136533 0.3222971,0.238276 0.1665873,0.101134 0.3207463,0.140253 0.154159,0.03912 0.2978493,-0.0015 0.1474731,-0.03742 0.2681301,-0.181174 0.107957,-0.128622 0.131807,-0.256907 0.02703,-0.132069 -0.0231,-0.264411 -0.04634,-0.129166 -0.155909,-0.25982 -0.10957,-0.130654 -0.2684553,-0.264012 z m 0.2476645,-0.295073 0.385864,0.323869 q 0.136187,0.114307 0.273118,0.196998 0.136932,0.08269 0.265217,0.106542 0.132069,0.02703 0.247927,-0.01114 0.119641,-0.03499 0.221247,-0.156045 0.09525,-0.113489 0.105797,-0.233601 0.01372,-0.123896 -0.04276,-0.248671 -0.04951,-0.125383 -0.155301,-0.252862 -0.105787,-0.127479 -0.245757,-0.244961 -0.139971,-0.117482 -0.222588,-0.180378 -0.08262,-0.0629 -0.153279,-0.109308 z" />
      <path
         id="path2961"
         style="font-style:normal;font-variant:normal;font-weight:normal;font-stretch:normal;font-size:4.9389px;font-family:Ubuntu;-inkscape-font-specification:Ubuntu;stroke-width:0.264583px"
         d="m 12.1086,35.372736 q -0.298747,-0.153434 -0.47103,-0.358514 -0.172283,-0.205079 -0.23164,-0.435444 -0.0571,-0.234758 -0.01458,-0.490527 0.04692,-0.253513 0.17779,-0.508327 l 0.981527,-1.911104 0.426154,0.218869 -0.956707,1.862778 q -0.234664,0.456907 -0.13862,0.767188 0.09604,0.310281 0.421151,0.477253 0.162554,0.08349 0.319174,0.102851 0.163271,0.01723 0.314078,-0.03857 0.150806,-0.0558 0.287013,-0.191277 0.138462,-0.13987 0.255794,-0.368324 l 0.956707,-1.862777 0.426154,0.218869 -0.981527,1.911104 q -0.13087,0.254814 -0.313983,0.438379 -0.178719,0.185821 -0.407185,0.273914 -0.221817,0.08596 -0.488869,0.0654 -0.262657,-0.0183 -0.561405,-0.171737 z" />
      <path
         id="path2963"
         style="font-style:normal;font-variant:normal;font-weight:normal;font-stretch:normal;font-size:4.9389px;font-family:Ubuntu;-inkscape-font-specification:Ubuntu;stroke-width:0.264583px"
         d="m 16.696651,36.503797 -0.109917,0.400041 -1.985922,-0.54566 0.906818,-3.300344 0.461953,0.126929 -0.7969,2.900302 z" />
      <path
         id="path2965"
         style="font-style:normal;font-variant:normal;font-weight:normal;font-stretch:normal;font-size:4.9389px;font-family:Ubuntu;-inkscape-font-specification:Ubuntu;stroke-width:0.264583px"
         d="m 19.721264,36.824382 -0.03545,0.41335 -2.051988,-0.175995 0.292481,-3.410138 0.477321,0.04094 -0.257029,2.996788 z" />
      <path
         id="path2967"
         style="font-style:normal;font-variant:normal;font-weight:normal;font-stretch:normal;font-size:4.9389px;font-family:Ubuntu;-inkscape-font-specification:Ubuntu;stroke-width:0.264583px"
         d="m 21.571,36.787801 q 0.74709,-0.07367 0.696685,-0.584834 -0.01551,-0.157282 -0.09498,-0.258628 -0.07504,-0.106746 -0.195844,-0.17424 -0.121285,-0.07241 -0.274553,-0.11685 -0.148353,-0.04493 -0.316366,-0.08791 -0.193073,-0.04548 -0.367939,-0.107641 -0.175352,-0.06708 -0.308891,-0.163093 -0.134023,-0.10093 -0.222774,-0.246027 -0.08384,-0.145582 -0.10516,-0.361845 -0.0441,-0.447271 0.235913,-0.727987 0.280016,-0.280717 0.815758,-0.333545 0.309649,-0.03053 0.567103,0.01356 0.261883,0.03869 0.387599,0.105703 l -0.114079,0.403314 q -0.109517,-0.05372 -0.321765,-0.09234 -0.207818,-0.04403 -0.478147,-0.01737 -0.137621,0.01357 -0.252675,0.05469 -0.115054,0.04112 -0.197709,0.108827 -0.08266,0.0677 -0.127512,0.166422 -0.04043,0.09332 -0.02831,0.216194 0.01357,0.137622 0.07685,0.225677 0.06327,0.08805 0.168845,0.152087 0.105087,0.05912 0.238694,0.105498 0.138523,0.0459 0.301621,0.08937 0.229901,0.06666 0.420482,0.1372 0.195497,0.07005 0.34032,0.179845 0.149738,0.109306 0.240427,0.274064 0.0902,0.159842 0.113952,0.40068 0.0441,0.447271 -0.261457,0.720581 -0.300646,0.272825 -0.895369,0.331469 -0.201517,0.01987 -0.376452,0.0073 -0.169536,-0.0081 -0.305635,-0.02942 -0.136584,-0.02623 -0.238763,-0.05586 -0.09775,-0.03503 -0.154721,-0.05919 l 0.103764,-0.40726 q 0.119347,0.05275 0.358109,0.108611 0.238763,0.05586 0.572987,0.02291 z" />
      <path
         id="path2969"
         style="font-style:normal;font-variant:normal;font-weight:normal;font-stretch:normal;font-size:4.9389px;font-family:Ubuntu;-inkscape-font-specification:Ubuntu;stroke-width:0.264583px"
         d="m 24.983934,32.877517 0.456575,-0.145088 1.036551,3.261924 -0.456575,0.145087 -0.478638,-1.506227 -1.59566,0.507058 0.478639,1.506227 -0.456576,0.145087 -1.036551,-3.261923 0.456575,-0.145088 0.432271,1.360312 1.595659,-0.507058 z" />
      <path
         id="path2971"
         style="font-style:normal;font-variant:normal;font-weight:normal;font-stretch:normal;font-size:4.9389px;font-family:Ubuntu;-inkscape-font-specification:Ubuntu;stroke-width:0.264583px"
         d="m 26.153952,32.335426 0.424822,-0.221444 1.582071,3.035068 -0.424822,0.221444 z" />
      <path
         id="path2973"
         style="font-style:normal;font-variant:normal;font-weight:normal;font-stretch:normal;font-size:4.9389px;font-family:Ubuntu;-inkscape-font-specification:Ubuntu;stroke-width:0.264583px"
         d="m 29.198079,30.343506 0.245435,0.33448 -0.868055,0.636962 1.779403,2.42498 -0.386245,0.283418 -1.779402,-2.424979 -0.868056,0.636962 -0.245434,-0.33448 z" />
    </g>
  </g>
</svg>
