<?xml version="1.0" encoding="UTF-8" standalone="no"?>
<svg
   xmlns:dc="http://purl.org/dc/elements/1.1/"
   xmlns:cc="http://creativecommons.org/ns#"
   xmlns:rdf="http://www.w3.org/1999/02/22-rdf-syntax-ns#"
   xmlns:svg="http://www.w3.org/2000/svg"
   xmlns="http://www.w3.org/2000/svg"
   xmlns:xlink="http://www.w3.org/1999/xlink"
   xmlns:sodipodi="http://sodipodi.sourceforge.net/DTD/sodipodi-0.dtd"
   xmlns:inkscape="http://www.inkscape.org/namespaces/inkscape"
   sodipodi:docname="proprietary-bullshit-round-en.bak.svg"
   inkscape:version="1.0 (4035a4fb49, 2020-05-01)"
   id="svg8"
   version="1.1"
   viewBox="0 0 40 40"
   height="40mm"
   width="40mm">
  <defs
     id="defs2" />
  <sodipodi:namedview
     inkscape:window-maximized="1"
     inkscape:window-y="0"
     inkscape:window-x="0"
     inkscape:window-height="1031"
     inkscape:window-width="1916"
     showgrid="false"
     inkscape:document-rotation="0"
     inkscape:current-layer="layer1"
     inkscape:document-units="mm"
     inkscape:cy="52.860222"
     inkscape:cx="137.87414"
     inkscape:zoom="3.959798"
     inkscape:pageshadow="2"
     inkscape:pageopacity="0.0"
     borderopacity="1.0"
     bordercolor="#666666"
     pagecolor="#ffffff"
     id="base" />
  <metadata
     id="metadata5">
    <rdf:RDF>
      <cc:Work
         rdf:about="">
        <dc:format>image/svg+xml</dc:format>
        <dc:type
           rdf:resource="http://purl.org/dc/dcmitype/StillImage" />
        <dc:title></dc:title>
      </cc:Work>
    </rdf:RDF>
  </metadata>
  <g
     id="layer1"
     inkscape:groupmode="layer"
     inkscape:label="Layer 1">
    <rect
       y="0"
       x="0"
       height="40"
       width="40"
       id="rect1647"
       style="color:#000000;overflow:visible;fill:#f4e3d7;fill-opacity:0.38192689;stroke-width:3.41398;stroke-linejoin:bevel;paint-order:markers stroke fill" />
    <g
       transform="matrix(0.16308313,0,0,0.16308313,9.5631742,9.561972)"
       id="g1014">
      <g
         id="g990">
        <path
           fill="#2f2f2f"
           d="m 95.65,87.06 c -3,-1.87 -5.63,-2.18 -5.63,-2.18 0,0 -2.91,0.31 -7.15,0.77 l 5.71,-10.26 c -3.3,-3.56 -6.76,-4.08 -6.76,-4.08 L 69.47,72.6 69.6,71.76 44.76,64.32 c -3.37,0.28 -6,1.58 -6,1.58 l -0.67,16.59 0.74,0.92 c -6.97,-0.05 -11.36,2.77 -11.36,2.77 0,0 -1.23,14.84 -1.31,15.05 -0.05,0.14 17.38,5.92 28.4,9.57 0.49,1.7 0.83,2.82 0.83,2.82 l 7.02,-0.23 c 0.17,0.06 0.39,0.13 0.52,0.17 l 0.08,0.09 0.01,-0.07 c 0.26,0.09 0.41,0.14 0.41,0.14 v -0.36 l 14.8,-0.48 z"
           id="path982" />
        <path
           fill="#855c52"
           d="m 61.88,78.03 c 5,0.83 10.49,0.82 15.04,-1.68 4.31,-2.37 7.01,-7.43 5.88,-12.34 -0.73,-3.11 -2.4,-5.06 -4.6,-6.37 -2.25,-1.34 -5.04,-1.99 -7.9,-2.5 -1.37,-0.25 -7.16,-1.06 -9.55,-4.38 -1.93,-2.69 -1.99,-7.54 -2.52,-8.98 -0.56,-1.5 -2.46,-0.84 -4.55,0.55 -2.43,1.62 -7.46,6.82 -9.4,12.02 -2.62,7.07 -0.71,12.46 1.14,14.86 3.78,4.91 10.89,7.88 16.46,8.82 z"
           id="path984" />
        <path
           fill="#855c52"
           d="m 55.08,99.49 c 4.21,0.54 6.91,0.75 11.15,0.44 10.39,-0.75 18.8,-4.11 23.15,-10.74 3.94,-6.04 2.11,-10.63 -0.81,-13.81 -0.37,-0.42 -0.96,-0.85 -1.59,-1.13 -1.06,-0.46 -2.27,-0.49 -3.02,0.6 -4.49,6.45 -15.73,8.2 -25.17,6.22 -3.81,-0.8 -12.26,-3.39 -15.83,-9.08 -0.86,-1.38 -1.21,-2.87 -1.45,-4.04 -0.25,-1.19 -0.99,-2.82 -3.05,-1.96 -2.19,0.91 -6.88,5.12 -7.3,11.56 -0.28,4.29 0.97,8.69 3.76,11.9 4.97,5.73 12.8,9.1 20.16,10.04 z"
           id="path986" />
        <path
           fill="#855c52"
           d="m 95.65,87.06 c -1.46,-0.75 -2.33,0.92 -2.95,2.04 -4.68,8.62 -13.75,12.88 -23.43,13.97 -8.85,0.98 -16.48,1.31 -26.58,-3.32 C 37.46,97.34 32.25,94.31 29.61,87.63 29.25,86.71 29.16,85.84 28.08,86 c -1.31,0.2 -4.28,2.19 -5.1,3.18 -1.44,1.73 -2.44,3.8 -3.03,5.97 -1.29,4.71 -0.82,10.08 1.47,14.42 1.27,2.41 3,4.98 4.91,6.94 6.24,6.41 17,8.83 25.5,10.23 10.35,1.71 21.19,1.11 30.88,-2.89 14.53,-6 18.39,-15.64 18.97,-18.36 1.27,-6.05 -0.28,-11.72 -0.94,-13.08 -0.97,-1.98 -2.53,-4.03 -5.09,-5.35 z"
           id="path988" />
      </g>
      <g
         id="g998">
        <path
           fill="#78a3ad"
           d="m 117.76,66.3 c -0.38,1.3 -1.95,1.97 -3.5,1.52 -2.09,-0.62 -5.01,-4.04 -5.01,-4.04 0,0 4.39,-1.25 6.39,-0.66 1.55,0.47 2.5,1.89 2.12,3.18 z"
           id="path992" />
        <path
           fill="#78a3ad"
           d="m 101.73,55.72 c -1.05,0.84 -1.1,2.55 -0.09,3.81 1.36,1.7 5.62,3.13 5.62,3.13 0,0 -0.49,-4.54 -1.79,-6.17 -1.01,-1.27 -2.69,-1.61 -3.74,-0.77 z"
           id="path994" />
        <path
           fill="#2f2f2f"
           d="m 110.42,65.59 c -0.95,1.4 -2.86,1.78 -4.27,0.83 -1.4,-0.95 -1.78,-2.86 -0.84,-4.27 0.95,-1.41 2.86,-1.78 4.27,-0.83 1.41,0.95 1.79,2.86 0.84,4.27 z"
           id="path996" />
      </g>
      <g
         id="g1006">
        <path
           fill="#78a3ad"
           d="m 29.05,41.94 c -0.94,-0.97 -2.64,-0.85 -3.82,0.28 -1.56,1.5 -2.58,5.88 -2.58,5.88 0,0 4.47,-0.91 5.97,-2.36 1.17,-1.12 1.36,-2.82 0.43,-3.8 z"
           id="path1000" />
        <path
           fill="#78a3ad"
           d="m 13.18,52.55 c -0.52,-1.24 0.26,-2.76 1.75,-3.38 2,-0.85 6.43,-0.05 6.43,-0.05 0,0 -2.6,3.74 -4.53,4.55 -1.49,0.62 -3.12,0.12 -3.65,-1.12 z"
           id="path1002" />
        <path
           fill="#2f2f2f"
           d="m 24.63,47.03 c 1.01,1.36 0.72,3.29 -0.64,4.3 -1.37,1.01 -3.29,0.72 -4.3,-0.64 -1.02,-1.36 -0.73,-3.29 0.64,-4.3 1.37,-1.01 3.29,-0.72 4.3,0.64 z"
           id="path1004" />
      </g>
      <path
         fill="#fcc21b"
         d="m 38.59,34.14 c -0.07,0.16 -0.21,0.33 -0.42,0.53 -1.69,1.6 -7.53,0.51 -9.48,0 C 24.56,33.59 19.62,31.99 17.7,27.5 14.91,20.98 20.44,14.67 25.07,11.39 35.4,4.06 48.68,3.4 60.62,5.36 c 4.83,0.79 9.59,2.26 14.47,2.62 2.86,0.21 5.69,0.55 8.57,0.32 0.98,-0.08 4.01,-0.57 4.02,-2.01 0.01,-1.87 -3.51,-1.7 -4.14,-3.25 -1.32,-3.27 8.67,-2.65 9.58,-2.58 4.77,0.35 10.57,1.41 14.78,3.88 5.21,3.06 5.5,9 0.31,12.3 -3.04,1.94 -6.58,2.54 -10.03,2.66 C 88.98,19.63 79.11,17.29 72.24,15.61 61.8,13.04 53.67,6.73 40.83,10.73 33.39,13.05 27.46,19.14 29.36,26.6 c 1.17,4.59 6.45,5.7 7.7,6.09 0.94,0.29 1.9,0.69 1.53,1.45 z"
         id="path1008" />
      <path
         fill="#fcc21b"
         d="m 104.62,46.89 c -4.09,2.49 -9.45,3.46 -14.06,2.3 -0.97,-0.25 -0.96,-1.13 -0.25,-1.58 2.87,-1.81 9.15,-3.77 8.06,-8.36 -0.79,-3.35 -5.27,-3.69 -8.06,-3.62 -1.53,0.04 -3.04,0.28 -4.54,0.55 -0.42,0.08 -0.84,0.15 -1.26,0.23 -4.72,0.88 -8.85,1.27 -13.65,0.89 -1.42,-0.11 -4.25,-0.29 -5.14,-1.6 -1.23,-1.83 4.93,-1.61 5.68,-1.69 4.44,-0.47 8.92,-1.44 13.23,-2.57 3.82,-1 7.66,-2.09 11.62,-2.32 4.39,-0.26 10.32,0.51 13.4,3.96 4,4.49 0.15,9.99 -3.67,12.88 -0.43,0.33 -0.89,0.64 -1.36,0.93 z"
         id="path1010" />
      <path
         fill="#fcc21b"
         d="m 17.29,66.78 c 0.41,-4.46 6,-4.23 8.63,-6.67 0.37,-0.34 0.49,-0.78 0.17,-1.17 -0.9,-1.11 -4.33,-0.2 -5.47,0.04 -4.22,0.85 -12.64,4.33 -9.95,10.21 0.84,1.83 2.66,2.91 4.51,3.49 1.28,0.4 4.28,1.25 5.17,-0.28 0.83,-1.43 -1.37,-2.16 -2.11,-2.96 -0.76,-0.85 -1.03,-1.77 -0.95,-2.66 z"
         id="path1012" />
    </g>
    <circle
       transform="rotate(-154.48916)"
       r="13.926723"
       cy="-9.4364395"
       cx="-26.663713"
       id="path1699"
       style="color:#000000;overflow:visible;fill:none;fill-opacity:0.381927;stroke:#000000;stroke-width:0.55707;stroke-linejoin:bevel;stroke-miterlimit:4;stroke-dasharray:none;paint-order:markers stroke fill" />
    <text
       id="text1703"
       style="font-style:normal;font-variant:normal;font-weight:normal;font-stretch:normal;font-size:4.93889px;line-height:125%;font-family:Hack;-inkscape-font-specification:Hack;text-align:start;letter-spacing:0px;word-spacing:0px;writing-mode:lr-tb;text-anchor:start;fill:#000000;fill-opacity:1;stroke:none;stroke-width:0.264583px;stroke-linecap:butt;stroke-linejoin:miter;stroke-opacity:1"
       xml:space="preserve"><textPath
         id="textPath1771"
         xlink:href="#path1699"><tspan
           id="tspan1701"
           style="font-style:normal;font-variant:normal;font-weight:normal;font-stretch:normal;font-size:4.93889px;font-family:Ubuntu;-inkscape-font-specification:Ubuntu;stroke-width:0.264583px">PROPRIETARY</tspan></textPath></text>
    <text
       xml:space="preserve"
       style="font-style:normal;font-variant:normal;font-weight:normal;font-stretch:normal;font-size:4.9389px;line-height:125%;font-family:Hack;-inkscape-font-specification:Hack;text-align:start;letter-spacing:0.55033333px;word-spacing:0px;writing-mode:lr-tb;text-anchor:start;fill:#000000;fill-opacity:1;stroke:none;stroke-width:0.264583px;stroke-linecap:butt;stroke-linejoin:miter;stroke-opacity:1"
       id="text1703-1"><textPath
         id="textPath2598"
         xlink:href="#path1699-6"><tspan
           style="font-style:normal;font-variant:normal;font-weight:normal;font-stretch:normal;font-size:4.9389px;font-family:Ubuntu;-inkscape-font-specification:Ubuntu;stroke-width:0.264583px;"
           id="tspan1701-2">BULLSHIT</tspan></textPath></text>
    <circle
       r="17.201176"
       transform="matrix(-0.71008493,0.70411603,0.70411603,0.71008493,0,0)"
       style="color:#000000;overflow:visible;fill:none;fill-opacity:0.381927;stroke:#000000;stroke-width:0.688049;stroke-linejoin:bevel;stroke-miterlimit:4;stroke-dasharray:none;paint-order:markers stroke fill"
       id="path1699-6"
       cx="-0.11937798"
       cy="28.284019" />
  </g>
</svg>
