<?xml version="1.0" encoding="UTF-8" standalone="no"?>
<!-- Created with Inkscape (http://www.inkscape.org/) -->

<svg
   width="214.29956mm"
   height="22.037455mm"
   viewBox="0 0 214.29956 22.037455"
   version="1.1"
   id="svg5"
   xml:space="preserve"
   xmlns="http://www.w3.org/2000/svg"
   xmlns:svg="http://www.w3.org/2000/svg"><defs
     id="defs2"><clipPath
       clipPathUnits="userSpaceOnUse"
       id="clipPath16"><path
         d="m 427.38,725.18 h 110.94 v 46.26 H 427.38 Z"
         id="path18" /></clipPath><clipPath
       clipPathUnits="userSpaceOnUse"
       id="clipPath36"><path
         d="m 56.1,699.98 h 483.66 v 1.2 H 56.1 Z"
         id="path38" /></clipPath><clipPath
       clipPathUnits="userSpaceOnUse"
       id="clipPath90"><path
         d="m 56.1,166.7 h 85.86 v 1.2 H 56.1 Z"
         id="path92" /></clipPath><clipPath
       clipPathUnits="userSpaceOnUse"
       id="clipPath102"><path
         d="m 141.54,166.7 h 85.44 v 1.2 h -85.44 z"
         id="path104" /></clipPath><clipPath
       clipPathUnits="userSpaceOnUse"
       id="clipPath114"><path
         d="m 226.56,166.7 h 313.2 v 1.2 h -313.2 z"
         id="path116" /></clipPath><clipPath
       clipPathUnits="userSpaceOnUse"
       id="clipPath126"><path
         d="m 56.04,661.04 h 1.38 v 40.14 h -1.38 z"
         id="path128" /></clipPath><clipPath
       clipPathUnits="userSpaceOnUse"
       id="clipPath168"><path
         d="m 56.04,166.7 h 1.38 v 72.6 h -1.38 z"
         id="path170" /></clipPath><clipPath
       clipPathUnits="userSpaceOnUse"
       id="clipPath242"><path
         d="m 538.32,661.04 h 1.44 v 40.14 h -1.44 z"
         id="path244" /></clipPath><clipPath
       clipPathUnits="userSpaceOnUse"
       id="clipPath284"><path
         d="m 538.32,166.7 h 1.44 v 72.6 h -1.44 z"
         id="path286" /></clipPath><clipPath
       clipPathUnits="userSpaceOnUse"
       id="clipPath378"><path
         d="M 80.52,473.06 H 117.9 V 510.5 H 80.52 Z"
         id="path380" /></clipPath></defs><g
     id="layer1"
     transform="translate(0.61588532,-128.42865)"><rect
       style="fill:#000000;stroke:none;stroke-width:0.231667;stroke-dasharray:none;stop-color:#000000"
       id="rect15054"
       width="214.29956"
       height="22.037455"
       x="-0.61588532"
       y="128.42865" /><text
       xml:space="preserve"
       style="font-style:normal;font-weight:normal;font-size:14.251px;line-height:1.25;font-family:sans-serif;fill:#ffffff;fill-opacity:1;stroke:none;stroke-width:0.356276"
       x="4.7739987"
       y="143.81982"
       id="text9587"><tspan
         style="font-style:normal;font-variant:normal;font-weight:normal;font-stretch:normal;font-size:14.251px;font-family:Abel;-inkscape-font-specification:'Abel, Normal';font-variant-ligatures:normal;font-variant-caps:normal;font-variant-numeric:normal;font-variant-east-asian:normal;fill:#ffffff;stroke-width:0.356276"
         x="4.7739987"
         y="143.81982"
         id="tspan16452">Die Dunkelheit darf niemals siegen</tspan></text><path
       d="m 196.54045,143.86576 v 0.79245 h 8.09499 v -0.79245 z m 7.29303,-1.61995 c 0.41856,-0.29804 0.85673,-0.95245 1.01197,-1.5114 0.19475,-0.70122 0.22888,-0.58232 0.43407,-1.89399 -0.33222,0.21999 -0.38714,0.46925 -0.68918,0.5532 -0.46499,0.12924 -0.56809,-0.14528 -0.26593,-0.66838 0.086,-0.14889 0.26593,-0.75696 0.26593,-1.432 v -1.22733 c -0.37316,0.83784 -0.72083,1.10586 -1.23929,1.2775 -0.0637,7e-5 -0.18107,-0.73076 -0.12944,-1.47633 -0.0255,-0.57534 -0.10689,-1.32501 -0.4263,-1.74986 -0.11025,0.52659 -0.24493,1.12175 -0.58949,1.54657 l -0.52301,0.62779 -0.009,-0.89212 c -0.005,-0.49067 -0.36501,-1.46876 -0.73066,-2.19675 -0.32377,-0.54406 -0.56579,-1.6246 -0.72787,-2.00664 -0.13639,0.18854 -0.36699,1.46314 -0.38937,2.43624 -0.0221,0.96006 -0.0632,1.71127 -0.32324,1.8058 -0.13559,0.0493 -0.34865,0.0501 -0.73444,-0.47368 -0.50587,-0.68683 -0.45817,-0.8619 -0.63962,-1.51112 -0.16801,0.92275 -0.17319,1.3114 -0.17319,2.20364 0,0.88619 -0.084,1.03353 -0.17026,1.03353 -0.0863,0 -0.38987,-0.26926 -0.67471,-0.59834 l -0.51789,-0.59834 0.0957,1.32964 c 0.0526,0.7313 0.18955,1.53905 0.30427,1.79501 0.30037,0.67017 -0.3354,0.59582 -1.13692,-0.13297 -0.53913,-0.49019 -0.62715,-0.51244 -0.48708,-0.12309 0.0941,0.26138 0.36204,1.13243 0.59555,1.93567 0.44445,1.52882 0.97577,2.06429 2.37681,2.39528 l 0.79777,0.18847 -0.5587,-0.63584 c -0.3073,-0.34971 -0.63369,-0.84802 -0.72532,-1.10736 -0.1399,-0.39595 -0.0851,-0.42792 0.34178,-0.19945 0.83393,0.44631 1.21291,0.33315 0.71753,-0.21423 -0.24206,-0.26747 -0.44011,-0.767 -0.44011,-1.11006 v -0.62376 l 0.63643,0.59789 0.63642,0.59789 0.3487,-1.58837 c 0.19177,-0.87355 0.14638,-1.10469 0.2335,-1.64212 0.34262,0.29559 0.92644,0.91652 1.06128,2.04201 l 0.14185,1.18385 0.59833,-0.55958 0.59834,-0.55957 v 0.55969 c 0,0.30783 -0.13325,0.80868 -0.29611,1.11298 -0.26285,0.49115 -0.23299,0.53678 0.26593,0.4063 0.40444,-0.10576 0.36261,-0.0452 0.72681,-0.33826 -0.36134,0.74152 -0.53163,1.04886 -1.02904,1.51736 l -0.86426,0.81402 0.78156,-0.18187 c 0.42986,-0.10003 1.11374,-0.41842 1.51975,-0.70752 z"
       style="color:#000000;font-style:normal;font-variant:normal;font-weight:normal;font-stretch:normal;font-size:medium;line-height:normal;font-family:Sans;-inkscape-font-specification:Sans;text-indent:0;text-align:start;text-decoration:none;text-decoration-line:none;letter-spacing:normal;word-spacing:normal;text-transform:none;writing-mode:lr-tb;direction:ltr;baseline-shift:baseline;text-anchor:start;display:inline;overflow:visible;visibility:visible;fill:#ffffff;fill-opacity:1;stroke:none;stroke-width:0.180321;marker:none;enable-background:accumulate"
       id="path3275" /></g></svg>
