<?xml version="1.0" encoding="UTF-8" standalone="no"?>
<!-- Created with Inkscape (http://www.inkscape.org/) -->

<svg
   width="214.29956mm"
   height="22.037455mm"
   viewBox="0 0 214.29956 22.037455"
   version="1.1"
   id="svg5"
   xml:space="preserve"
   xmlns="http://www.w3.org/2000/svg"
   xmlns:svg="http://www.w3.org/2000/svg"><defs
     id="defs2"><clipPath
       clipPathUnits="userSpaceOnUse"
       id="clipPath16"><path
         d="m 427.38,725.18 h 110.94 v 46.26 H 427.38 Z"
         id="path18" /></clipPath><clipPath
       clipPathUnits="userSpaceOnUse"
       id="clipPath36"><path
         d="m 56.1,699.98 h 483.66 v 1.2 H 56.1 Z"
         id="path38" /></clipPath><clipPath
       clipPathUnits="userSpaceOnUse"
       id="clipPath90"><path
         d="m 56.1,166.7 h 85.86 v 1.2 H 56.1 Z"
         id="path92" /></clipPath><clipPath
       clipPathUnits="userSpaceOnUse"
       id="clipPath102"><path
         d="m 141.54,166.7 h 85.44 v 1.2 h -85.44 z"
         id="path104" /></clipPath><clipPath
       clipPathUnits="userSpaceOnUse"
       id="clipPath114"><path
         d="m 226.56,166.7 h 313.2 v 1.2 h -313.2 z"
         id="path116" /></clipPath><clipPath
       clipPathUnits="userSpaceOnUse"
       id="clipPath126"><path
         d="m 56.04,661.04 h 1.38 v 40.14 h -1.38 z"
         id="path128" /></clipPath><clipPath
       clipPathUnits="userSpaceOnUse"
       id="clipPath168"><path
         d="m 56.04,166.7 h 1.38 v 72.6 h -1.38 z"
         id="path170" /></clipPath><clipPath
       clipPathUnits="userSpaceOnUse"
       id="clipPath242"><path
         d="m 538.32,661.04 h 1.44 v 40.14 h -1.44 z"
         id="path244" /></clipPath><clipPath
       clipPathUnits="userSpaceOnUse"
       id="clipPath284"><path
         d="m 538.32,166.7 h 1.44 v 72.6 h -1.44 z"
         id="path286" /></clipPath><clipPath
       clipPathUnits="userSpaceOnUse"
       id="clipPath378"><path
         d="M 80.52,473.06 H 117.9 V 510.5 H 80.52 Z"
         id="path380" /></clipPath></defs><g
     id="layer1"
     transform="translate(0.61588532,-128.42865)"><rect
       style="fill:#000000;stroke:none;stroke-width:0.231667;stroke-dasharray:none;stop-color:#000000"
       id="rect15054"
       width="214.29956"
       height="22.037455"
       x="-0.61588532"
       y="128.42865" /><text
       xml:space="preserve"
       style="font-style:normal;font-weight:normal;font-size:14.251px;line-height:1.25;font-family:sans-serif;fill:#ffffff;fill-opacity:1;stroke:none;stroke-width:0.356276"
       x="4.7739987"
       y="143.81982"
       id="text9587"><tspan
         style="font-style:normal;font-variant:normal;font-weight:normal;font-stretch:normal;font-size:14.251px;font-family:Abel;-inkscape-font-specification:'Abel, Normal';font-variant-ligatures:normal;font-variant-caps:normal;font-variant-numeric:normal;font-variant-east-asian:normal;fill:#ffffff;stroke-width:0.356276"
         x="4.7739987"
         y="143.81982"
         id="tspan16452">Die Dunkelheit darf niemals siegen</tspan></text><g
       id="g17569"
       transform="matrix(1.1494498,0,0,1.1494498,-30.270411,-20.118918)"><g
         id="g17216"
         transform="matrix(1.0103954,0,0,1.0103954,-25.287643,-16.117865)"><path
           style="fill:#ffffff;fill-opacity:1;fill-rule:evenodd;stroke:#ffffff;stroke-width:0.428888;stroke-linecap:butt;stroke-linejoin:miter;stroke-miterlimit:4;stroke-dasharray:none;stroke-opacity:1"
           d="m 224.18355,157.21088 c 0.15208,-0.4338 0.33733,-0.93727 0.42536,-1.16675 0.088,-0.22947 0.4201,-0.49982 0.52645,-0.70023 0.10636,-0.20041 5.82113,-6.913 5.82113,-6.913 l 1.22135,0.0176 0.30028,1.16417 -5.77487,6.94923 c 0,0 -0.23417,0.29458 -0.44814,0.45797 -0.21396,0.16338 -0.90333,0.46448 -0.90333,0.46448 -0.0945,0.0249 -0.85206,0.32765 -1.00704,0.91786 0,0 0.0351,0.52608 -0.0161,0.78861 -0.0361,0.18622 -0.14663,0.41938 -0.2718,0.56187 -0.10505,0.11952 -0.31701,0.19662 -0.46851,0.24529 -0.20235,0.065 -0.47076,0.10194 -0.67776,0.0537 -0.19866,-0.0463 -0.44975,-0.15324 -0.56637,-0.32059 -0.13056,-0.18737 -0.24793,-0.52956 -0.20737,-0.73653 0.0406,-0.20696 0.32002,-0.57863 0.32002,-0.57863 0.0751,-0.0468 0.0851,-0.0869 0.53507,-0.3874 0.77514,-0.63729 0.82069,-0.4352 1.19141,-0.8176 z"
           id="path4528-4" /><path
           id="path4594-5"
           d="m 223.99033,149.16236 c -1.63278,-1.50634 -0.65916,-2.0184 -0.12394,-2.99211 -2.11847,0.50869 -3.27439,1.76221 -3.80065,3.47303 -0.21848,-0.26118 -0.38981,-0.80172 -0.38981,-1.13126 -1.09061,2.06253 -0.78632,3.22083 0.12379,4.94547 -0.53361,-0.12148 -0.67146,-0.14449 -0.87197,-0.4121 -0.0952,1.55057 1.0586,2.62061 1.83691,2.65691 -0.30652,0.15223 -0.30259,0.10647 -0.53473,0.14191 0.74156,1.03567 3.06307,0.63953 2.90792,1.82561 l 0.78718,-0.41042 c 0.26544,-0.20775 0.38603,-1.5705 0.30384,-1.82288 0.12596,-0.45376 0.55982,-0.93219 0.67268,-1.09377 0.41676,-0.58313 0.26492,-1.42143 0.32629,-2.45177 0.11463,-1.92459 -0.21349,-2.70471 -1.2965,-3.73453 -0.0582,0.33448 0.12184,0.78141 0.059,1.00591 z"
           style="fill:#ffffff;fill-rule:evenodd;stroke:#ffffff;stroke-width:0.0612697px;stroke-linecap:butt;stroke-linejoin:miter;stroke-opacity:1" /></g><g
         id="g17140"
         transform="translate(-20.679405,-0.8556875)"><g
           transform="matrix(0.06126969,0,0,0.06126969,199.99064,87.209605)"
           id="g4583"><path
             style="opacity:1;fill:#000000;fill-opacity:1;fill-rule:evenodd;stroke:#000000;stroke-width:7;stroke-linecap:butt;stroke-linejoin:miter;stroke-miterlimit:4;stroke-dasharray:none;stroke-opacity:1"
             d="m 339.43969,935.86967 c 7.34299,-4.90309 16.7287,-7.82257 19.21078,-14.90261 2.48208,-7.08004 6.52278,-15.14533 7.95944,-18.89062 1.43666,-3.74529 6.58944,-9.10351 8.32527,-12.37446 1.73583,-3.27095 96.04355,-112.81307 96.04355,-112.81307 l 16.76951,0.76225 5.33576,16.76951 -95.28131,113.57532 c 0,0 -3.33828,4.78013 -6.8305,7.44681 -3.49222,2.66668 -14.45302,7.44682 -14.45302,7.44682 -1.54265,0.40667 -15.95203,5.82979 -18.48139,15.46273 0,0 1.11216,8.80693 0.28034,13.09191 -0.59002,3.03933 -1.615,6.21159 -3.6588,8.53721 -1.71444,1.95084 -4.23516,3.1693 -6.70781,3.9637 -3.3027,1.06107 -6.98807,1.70157 -10.3666,0.9147 -3.2424,-0.75516 -6.63388,-2.45187 -8.53721,-5.1833 -2.13097,-3.05809 -2.79628,-7.5984 -2.1343,-10.97641 0.66198,-3.37801 5.1833,-7.9274 5.1833,-7.9274 1.22553,-0.76403 0,0 7.34299,-4.90309 z"
             id="path4528" /><path
             style="fill:#ffffff;fill-rule:evenodd;stroke:none;stroke-width:1px;stroke-linecap:butt;stroke-linejoin:miter;stroke-opacity:1"
             d="m 486.89622,785.61882 2.99684,9.98946 c 0,0 -87.11587,101.78997 -94.89985,110.55 -7.78398,8.76003 -17.40092,10.15769 -17.40092,10.15769 0,0 1.74024,-7.75686 8.4104,-15.15242 6.67016,-7.39556 100.89353,-115.54473 100.89353,-115.54473 z"
             id="path4564" /><path
             style="fill:#ffffff;fill-rule:evenodd;stroke:none;stroke-width:1px;stroke-linecap:butt;stroke-linejoin:miter;stroke-opacity:1"
             d="m 470.91309,781.95602 h 11.65437 c 0,0 -98.82398,115.66985 -103.88749,121.33516 -5.06351,5.66531 -10.0887,7.0677 -10.0887,7.0677 0,0 0.75372,-7.48701 5.93484,-15.76751 5.18112,-8.2805 96.38698,-112.63535 96.38698,-112.63535 z"
             id="path4562" /></g><path
           id="path4594"
           d="m 221.76828,134.72314 c 0,0 0.17995,0.83951 0.0168,0.93129 -1.71519,-1.53237 -1.11296,-2.07028 -0.4322,-3.00047 -2.11847,0.50869 -3.07641,1.80398 -3.60267,3.5148 -0.21848,-0.26118 -0.43935,-0.68097 -0.43935,-1.01051 -1.09061,2.06253 -0.40535,3.22559 0.50476,4.95023 -0.52802,-0.2168 -1.02338,-0.16792 -1.02091,-0.46055 -0.11556,1.26286 0.94506,2.36142 1.88367,2.36142 -0.29261,0.20781 -0.33624,0.18699 -0.56838,0.22244 0.88004,1.03568 2.93344,0.40446 2.88377,1.61223 l 0.51583,-0.26408 c 0.26544,-0.20775 0.41476,-1.40363 0.33257,-1.65601 -0.1348,0.23677 -0.15933,0.18724 -0.31578,0.3365 0.0302,-0.46085 0.6002,-1.03634 0.97911,-1.60438 0.45549,-0.68286 0.21666,-1.41642 0.27803,-2.44675 0.11463,-1.92459 -0.0363,-2.32704 -1.01526,-3.48616 z"
           style="fill:#000000;fill-rule:evenodd;stroke:#000000;stroke-width:0.0612697px;stroke-linecap:butt;stroke-linejoin:miter;stroke-opacity:1" /><path
           id="path4596"
           d="m 218.72581,137.90368 c -0.96825,1.37638 1.02773,2.0655 0.7409,3.17334 -0.45594,-8.2e-4 -0.90902,-0.33685 -1.22212,-0.4993 0.0734,1.12387 0.84119,1.17866 1.3298,1.40497 0.48861,0.2263 0.83082,0.32502 1.03807,0.50555 0.21155,0.1999 0.46643,0.58974 0.46643,0.58974 0,0 0.0274,-0.69045 0.0488,-0.79173 0.10648,-0.53399 0.18164,-0.77855 0.52931,-1.19222 0.15631,-0.24665 0.47568,-0.63887 0.48316,-0.78092 0.007,-0.14204 -0.0188,-0.2822 -0.0442,-0.37815 -0.10169,-0.38379 -0.31934,-0.61885 -0.58225,-0.79913 0.16364,0.72374 -0.15555,1.37013 -0.31148,1.37013 -0.0169,-0.55468 0.0954,-1.26719 -0.55764,-1.58353 -0.24881,-0.1694 -0.86594,-0.56107 -1.24927,-0.6699 0.0948,0.21252 0.12816,0.2646 0.29513,0.48001 -0.77505,-0.2642 -0.8267,-0.36298 -0.9646,-0.82886 z"
           style="fill:#ffffff;fill-rule:evenodd;stroke:none;stroke-width:0.0612697px;stroke-linecap:butt;stroke-linejoin:miter;stroke-opacity:1" /></g></g></g></svg>
