<?xml version="1.0" encoding="UTF-8" standalone="no"?>
<!-- Created with Inkscape (http://www.inkscape.org/) -->

<svg
   width="166.45055mm"
   height="45.610672mm"
   viewBox="0 0 166.45055 45.610672"
   version="1.1"
   id="svg5"
   xml:space="preserve"
   xmlns="http://www.w3.org/2000/svg"
   xmlns:svg="http://www.w3.org/2000/svg"><defs
     id="defs2"><clipPath
       clipPathUnits="userSpaceOnUse"
       id="clipPath16"><path
         d="m 427.38,725.18 h 110.94 v 46.26 H 427.38 Z"
         id="path18" /></clipPath><clipPath
       clipPathUnits="userSpaceOnUse"
       id="clipPath36"><path
         d="m 56.1,699.98 h 483.66 v 1.2 H 56.1 Z"
         id="path38" /></clipPath><clipPath
       clipPathUnits="userSpaceOnUse"
       id="clipPath90"><path
         d="m 56.1,166.7 h 85.86 v 1.2 H 56.1 Z"
         id="path92" /></clipPath><clipPath
       clipPathUnits="userSpaceOnUse"
       id="clipPath102"><path
         d="m 141.54,166.7 h 85.44 v 1.2 h -85.44 z"
         id="path104" /></clipPath><clipPath
       clipPathUnits="userSpaceOnUse"
       id="clipPath114"><path
         d="m 226.56,166.7 h 313.2 v 1.2 h -313.2 z"
         id="path116" /></clipPath><clipPath
       clipPathUnits="userSpaceOnUse"
       id="clipPath126"><path
         d="m 56.04,661.04 h 1.38 v 40.14 h -1.38 z"
         id="path128" /></clipPath><clipPath
       clipPathUnits="userSpaceOnUse"
       id="clipPath168"><path
         d="m 56.04,166.7 h 1.38 v 72.6 h -1.38 z"
         id="path170" /></clipPath><clipPath
       clipPathUnits="userSpaceOnUse"
       id="clipPath242"><path
         d="m 538.32,661.04 h 1.44 v 40.14 h -1.44 z"
         id="path244" /></clipPath><clipPath
       clipPathUnits="userSpaceOnUse"
       id="clipPath284"><path
         d="m 538.32,166.7 h 1.44 v 72.6 h -1.44 z"
         id="path286" /></clipPath><clipPath
       clipPathUnits="userSpaceOnUse"
       id="clipPath378"><path
         d="M 80.52,473.06 H 117.9 V 510.5 H 80.52 Z"
         id="path380" /></clipPath></defs><g
     id="layer1"
     transform="translate(45.456604,-124.36635)"><rect
       style="fill:#000000;stroke:none;stroke-width:0.29373;stroke-dasharray:none;stop-color:#000000"
       id="rect15054"
       width="166.45055"
       height="45.610672"
       x="-45.456604"
       y="124.36635" /><text
       xml:space="preserve"
       style="font-style:normal;font-weight:normal;font-size:14.251px;line-height:1.25;font-family:sans-serif;fill:#ffffff;fill-opacity:1;stroke:none;stroke-width:0.356276"
       x="4.7739987"
       y="143.81982"
       id="text9587"><tspan
         style="font-style:normal;font-variant:normal;font-weight:normal;font-stretch:normal;font-size:14.251px;font-family:Abel;-inkscape-font-specification:'Abel, Normal';font-variant-ligatures:normal;font-variant-caps:normal;font-variant-numeric:normal;font-variant-east-asian:normal;fill:#ffffff;stroke-width:0.356276"
         x="4.7739987"
         y="143.81982"
         id="tspan16452">Die Dunkelheit</tspan><tspan
         style="font-style:normal;font-variant:normal;font-weight:normal;font-stretch:normal;font-size:14.251px;font-family:Abel;-inkscape-font-specification:'Abel, Normal';font-variant-ligatures:normal;font-variant-caps:normal;font-variant-numeric:normal;font-variant-east-asian:normal;fill:#ffffff;stroke-width:0.356276"
         x="4.7739987"
         y="161.86577"
         id="tspan1">darf niemals siegen</tspan></text><g
       id="g4"
       transform="matrix(0.06542124,0,0,0.06542124,-39.460991,128.23224)"><path
         d="M 25,290 289,554 553,290 289,26 Z"
         fill="#ffffff"
         id="path1" /><g
         id="g3"><path
           d="M 148,148 6,290 148,431 289,573 431,431 573,290 431,148 289,6 Z M 409,170 528,290 409,409 289,528 170,409 51,290 170,170 289,51 Z"
           fill="#ff0000"
           id="path2" /><path
           d="m 290,121 c -18,34 3,53 -20,102 -13,-10 -6,-47 -30,-48 3,12 1,16 0,20 -3,17 -8,31 3,52 -17,-8 -18,-23 -32,-33 3,16 -4,49 15,81 -17,-2 -23,-8 -41,-26 19,100 34,103 105,109 -6,-1 -42,-7 -55,-48 0,-10 -1,9 34,10 -22,-35 -16,-28 -14,-48 10,13 2,15 27,25 -8,-26 13,-43 8,-73 6,13 26,11 25,73 17,-19 18,-6 26,-26 1,11 6,25 -17,49 6,2 16,3 31,-8 -15,18 -1,18 -40,46 49,1 81,-30 80,-97 -2,6 -3,18 -29,21 16,-16 25,-49 12,-75 -5,4 -12,24 -29,29 8,-14 6,-32 6,-32 0,0 3,-25 -12,-45 -4,30 -4,46 -23,50 3,-17 4,-26 -6,-46 -10,-21 -22,-42 -24,-62 z m -81,274 v 18 h 171 v -18 z"
           id="path3" /></g></g></g></svg>
