<?xml version="1.0" encoding="UTF-8" standalone="no"?>
<!-- Created with Inkscape (http://www.inkscape.org/) -->

<svg
   width="54mm"
   height="37mm"
   viewBox="0 0 54 37"
   version="1.1"
   id="svg1"
   xmlns="http://www.w3.org/2000/svg"
   xmlns:svg="http://www.w3.org/2000/svg">
  <defs
     id="defs1" />
  <rect
     style="fill:#000000;stroke:none;stroke-width:0.150739;stroke-dasharray:none;stop-color:#000000"
     id="rect15054"
     width="53.974998"
     height="37.041668"
     x="0"
     y="2.220446e-16" />
  <path
     d="m 17.933325,27.413102 c 0.658142,-0.468634 1.347118,-1.497624 1.591215,-2.376511 0.306223,-1.102594 0.359888,-0.915637 0.682528,-2.978097 -0.52238,0.345912 -0.608736,0.737845 -1.083662,0.869848 -0.731145,0.203226 -0.893259,-0.228444 -0.418145,-1.050957 0.135222,-0.234122 0.418145,-1.190234 0.418145,-2.251663 v -1.929847 c -0.586753,1.317416 -1.133426,1.73885 -1.948649,2.008737 -0.100165,1.06e-4 -0.284713,-1.149041 -0.203536,-2.321374 -0.04008,-0.904659 -0.168085,-2.083435 -0.670308,-2.751466 -0.17337,0.828003 -0.385126,1.76383 -0.926909,2.431814 l -0.822376,0.987133 -0.01406,-1.402764 c -0.0079,-0.771525 -0.573918,-2.309465 -1.148864,-3.454151 -0.509092,-0.855474 -0.889643,-2.554506 -1.144495,-3.155226 -0.214471,0.296442 -0.577051,2.300629 -0.612243,3.830726 -0.03475,1.509589 -0.09938,2.690788 -0.508258,2.839425 -0.213207,0.07753 -0.548216,0.07877 -1.1548305,-0.744813 C 9.1734533,14.883953 9.2484549,14.608672 8.9631457,13.587844 8.6989714,15.03877 8.6908188,15.649878 8.6908188,17.05283 c 0,1.393442 -0.1320731,1.625117 -0.2677164,1.625117 -0.1356997,0 -0.6130294,-0.423381 -1.0609083,-0.940825 l -0.8143268,-0.940825 0.1504868,2.090715 c 0.082707,1.149891 0.2980471,2.41999 0.4784317,2.822459 0.4723004,1.05377 -0.5273815,0.936865 -1.787684,-0.209073 C 4.5413771,20.729625 4.402976,20.694643 4.6232214,21.30687 c 0.1479567,0.41099 0.5692692,1.780622 0.9364368,3.043632 0.6988515,2.403901 1.5342937,3.245871 3.737277,3.766318 L 10.551344,28.413161 9.6728497,27.413372 C 9.1896529,26.863475 8.6764402,26.079934 8.5323603,25.672149 8.3123789,25.049562 8.3985442,24.999293 9.0697722,25.358544 10.381038,26.060323 10.976944,25.882389 10.198011,25.021691 9.8173995,24.601124 9.5059872,23.815669 9.5059872,23.276244 v -0.980796 l 1.0007168,0.940119 1.000703,0.940117 0.548291,-2.497542 c 0.301539,-1.373563 0.230157,-1.737005 0.367153,-2.582053 0.538733,0.46478 1.456728,1.441128 1.668747,3.21084 l 0.223047,1.861474 0.940808,-0.879877 0.940825,-0.879866 v 0.880054 c 0,0.48403 -0.209523,1.271562 -0.465601,1.750041 -0.413303,0.772279 -0.36635,0.844028 0.418147,0.638862 0.635939,-0.166314 0.570166,-0.07107 1.142832,-0.531877 -0.568172,1.165961 -0.835932,1.649215 -1.618056,2.385885 l -1.358955,1.279958 1.228916,-0.285961 c 0.67591,-0.157291 1.751237,-0.65792 2.389644,-1.1125 z"
     style="color:#000000;font-style:normal;font-variant:normal;font-weight:normal;font-stretch:normal;font-size:medium;line-height:normal;font-family:Sans;-inkscape-font-specification:Sans;text-indent:0;text-align:start;text-decoration:none;text-decoration-line:none;letter-spacing:normal;word-spacing:normal;text-transform:none;writing-mode:lr-tb;direction:ltr;baseline-shift:baseline;text-anchor:start;display:inline;overflow:visible;visibility:visible;fill:#4d4d4d;fill-opacity:1;stroke:none;stroke-width:0.283536;marker:none;enable-background:accumulate"
     id="path3275-2" />
  <text
     xml:space="preserve"
     style="font-style:normal;font-weight:normal;font-size:5.75494px;line-height:1.25;font-family:sans-serif;text-align:end;text-anchor:end;fill:#ffffff;fill-opacity:1;stroke:none;stroke-width:0.143874"
     x="47.548504"
     y="17.911272"
     id="text9587"><tspan
       id="tspan9585"
       style="font-style:normal;font-variant:normal;font-weight:normal;font-stretch:normal;font-size:5.75494px;font-family:Abel;-inkscape-font-specification:'Abel, Normal';font-variant-ligatures:normal;font-variant-caps:normal;font-variant-numeric:normal;font-variant-east-asian:normal;text-align:end;text-anchor:end;fill:#ffffff;stroke-width:0.143874"
       x="47.548504"
       y="17.911272">Die Dunkelheit</tspan><tspan
       style="font-style:normal;font-variant:normal;font-weight:normal;font-stretch:normal;font-size:5.75494px;font-family:Abel;-inkscape-font-specification:'Abel, Normal';font-variant-ligatures:normal;font-variant-caps:normal;font-variant-numeric:normal;font-variant-east-asian:normal;text-align:end;text-anchor:end;fill:#ffffff;stroke-width:0.143874"
       x="47.548504"
       y="25.198711"
       id="tspan16452">darf niemals siegen</tspan></text>
</svg>
