<?xml version="1.0" encoding="UTF-8" standalone="no"?>
<!-- Created with Inkscape (http://www.inkscape.org/) -->

<svg
   width="100.95114mm"
   height="56.759209mm"
   viewBox="0 0 100.95114 56.75921"
   version="1.1"
   id="svg5"
   inkscape:version="1.2.2 (b0a8486541, 2022-12-01)"
   sodipodi:docname="cyberpunk-feedback_as-paths.svg"
   inkscape:export-filename="/home/manu/1nput/cyberpunk-draft.png"
   inkscape:export-xdpi="299.92001"
   inkscape:export-ydpi="299.92001"
   xmlns:inkscape="http://www.inkscape.org/namespaces/inkscape"
   xmlns:sodipodi="http://sodipodi.sourceforge.net/DTD/sodipodi-0.dtd"
   xmlns="http://www.w3.org/2000/svg"
   xmlns:svg="http://www.w3.org/2000/svg">
  <sodipodi:namedview
     id="namedview7"
     pagecolor="#ffffff"
     bordercolor="#666666"
     borderopacity="1.0"
     inkscape:pageshadow="2"
     inkscape:pageopacity="0.0"
     inkscape:pagecheckerboard="0"
     inkscape:document-units="mm"
     showgrid="false"
     inkscape:zoom="1.0998546"
     inkscape:cx="-60.462538"
     inkscape:cy="67.736226"
     inkscape:window-width="3440"
     inkscape:window-height="1440"
     inkscape:window-x="0"
     inkscape:window-y="0"
     inkscape:window-maximized="1"
     inkscape:current-layer="layer1"
     inkscape:showpageshadow="2"
     inkscape:deskcolor="#d1d1d1" />
  <defs
     id="defs2" />
  <g
     inkscape:label="Layer 1"
     inkscape:groupmode="layer"
     id="layer1"
     transform="translate(-24.116819,-18.748808)">
    <rect
       style="fill:#f5f300;fill-opacity:1;stroke-width:0.0572294;stroke-dasharray:0.0572294, 0.114458"
       id="rect78035"
       width="100.95114"
       height="28.379499"
       x="24.116819"
       y="18.748808" />
    <rect
       style="fill:#000000;fill-opacity:1;stroke-width:0.0572294;stroke-dasharray:0.0572294, 0.114458"
       id="rect14069"
       width="100.95114"
       height="28.379499"
       x="24.116819"
       y="47.128517" />
    <g
       aria-label="CYBERPUNK"
       id="text21772"
       style="font-size:13.2999px;line-height:1.25;stroke-width:0.332499">
      <path
         d="m 32.817428,32.938558 c 0,0.545296 0.132999,0.970892 0.319197,1.369889 0.425597,0.930993 0.891094,1.808787 1.35659,2.69988 0.305898,0.598496 0.970893,1.117192 1.795487,1.117192 h 2.473781 c 0.372397,0 0.678295,-0.305898 0.678295,-0.678295 0,-0.359097 -0.305898,-0.664995 -0.678295,-0.664995 h -2.473781 c -0.265998,0 -0.492097,-0.172899 -0.585196,-0.372397 l -1.36989,-2.69988 c -0.106399,-0.226098 -0.172898,-0.465497 -0.172898,-0.771394 0,-0.305898 0.0665,-0.545296 0.172898,-0.771394 l 1.36989,-2.69988 c 0.0931,-0.199499 0.319198,-0.372397 0.585196,-0.372397 h 2.473781 c 0.372397,0 0.678295,-0.305898 0.678295,-0.678295 0,-0.359098 -0.305898,-0.664995 -0.678295,-0.664995 h -2.473781 c -0.824594,0 -1.529489,0.492096 -1.808787,1.103891 l -1.34329,2.71318 c -0.186198,0.385697 -0.319197,0.824594 -0.319197,1.36989 z"
         style="font-family:OCRA;-inkscape-font-specification:'OCRA, Normal'"
         id="path239" />
      <path
         d="m 42.43325,29.786481 2.63338,3.378175 v 4.282568 c 0,0.372397 0.305897,0.678295 0.678295,0.678295 0.359097,0 0.664995,-0.305898 0.664995,-0.678295 v -4.282568 l 2.64668,-3.378175 v -1.369889 c 0,-0.359098 -0.305898,-0.664995 -0.678295,-0.664995 -0.372397,0 -0.678295,0.305897 -0.678295,0.664995 v 0.904393 l -1.955085,2.526981 -1.968386,-2.526981 v -0.904393 c 0,-0.359098 -0.305897,-0.664995 -0.678294,-0.664995 -0.372398,0 -0.664995,0.305897 -0.664995,0.664995 z"
         style="font-family:OCRA;-inkscape-font-specification:'OCRA, Normal'"
         id="path241" />
      <path
         d="m 52.049071,38.125519 h 3.936771 c 1.462989,0 2.68658,-1.236891 2.68658,-2.68658 v -0.492096 c 0,-0.784694 -0.372398,-1.516189 -0.930993,-2.008285 0.558595,-0.492097 0.930993,-1.223591 0.930993,-2.008285 v -0.492096 c 0,-1.44969 -1.223591,-2.68658 -2.68658,-2.68658 h -3.936771 z m 1.34329,-1.34329 v -3.178676 h 2.593481 c 0.718194,0 1.34329,0.625095 1.34329,1.34329 v 0.492096 c 0,0.718195 -0.625096,1.34329 -1.34329,1.34329 z m 0,-4.521966 v -3.165376 h 2.593481 c 0.718194,0 1.34329,0.625095 1.34329,1.34329 v 0.492096 c 0,0.718194 -0.625096,1.32999 -1.34329,1.32999 z"
         style="font-family:OCRA;-inkscape-font-specification:'OCRA, Normal'"
         id="path243" />
      <path
         d="m 61.664893,38.125519 h 5.945056 c 0.372397,0 0.678294,-0.305898 0.678294,-0.678295 0,-0.359097 -0.305897,-0.664995 -0.678294,-0.664995 h -4.601766 v -3.178676 h 1.968385 c 0.359098,0 0.664995,-0.292598 0.664995,-0.664995 0,-0.372397 -0.305897,-0.678295 -0.664995,-0.678295 h -1.968385 v -3.165376 h 4.601766 c 0.372397,0 0.678294,-0.305898 0.678294,-0.678295 0,-0.359098 -0.305897,-0.664995 -0.678294,-0.664995 h -5.945056 z"
         style="font-family:OCRA;-inkscape-font-specification:'OCRA, Normal'"
         id="path245" />
      <path
         d="m 71.280715,37.447224 c 0,0.372397 0.292598,0.678295 0.664995,0.678295 0.372397,0 0.678295,-0.305898 0.678295,-0.678295 v -4.960863 h 0.917693 l 3.098877,5.30666 c 0.119699,0.199499 0.332497,0.332498 0.585195,0.332498 0.372398,0 0.678295,-0.305898 0.678295,-0.678295 0,-0.119699 -0.0399,-0.226098 -0.0931,-0.332498 l -2.69988,-4.628365 h 0.771394 c 1.090592,0 2.021585,-0.930993 2.021585,-2.021585 v -0.691594 c 0,-1.103892 -0.917693,-2.021585 -2.021585,-2.021585 h -4.601765 z m 1.34329,-6.304153 v -2.048184 h 3.258475 c 0.359098,0 0.678295,0.305897 0.678295,0.678295 v 0.691594 c 0,0.359098 -0.319197,0.678295 -0.678295,0.678295 z"
         style="font-family:OCRA;-inkscape-font-specification:'OCRA, Normal'"
         id="path247" />
      <path
         d="m 80.896537,37.447224 c 0,0.372397 0.292598,0.678295 0.664995,0.678295 0.372397,0 0.678295,-0.305898 0.678295,-0.678295 v -3.271776 h 3.258475 c 1.103892,0 2.021585,-0.917693 2.021585,-2.021584 v -2.393982 c 0,-1.090592 -0.917693,-2.008285 -2.021585,-2.008285 h -4.601765 z m 1.34329,-4.615065 v -3.737272 h 3.258475 c 0.345798,0 0.678295,0.305897 0.678295,0.664995 v 2.393982 c 0,0.372397 -0.319197,0.678295 -0.678295,0.678295 z"
         style="font-family:OCRA;-inkscape-font-specification:'OCRA, Normal'"
         id="path249" />
      <path
         d="m 90.512359,36.117234 c 0,1.090592 0.904393,2.008285 2.008285,2.008285 h 2.59348 c 1.103892,0 2.021585,-0.917693 2.021585,-2.008285 v -7.700642 c 0,-0.359098 -0.305898,-0.664995 -0.678295,-0.664995 -0.372397,0 -0.664995,0.305897 -0.664995,0.664995 v 7.700642 c 0,0.359097 -0.332497,0.664995 -0.678295,0.664995 h -2.59348 c -0.359098,0 -0.664995,-0.292598 -0.664995,-0.664995 v -7.700642 c 0,-0.359098 -0.305898,-0.664995 -0.678295,-0.664995 -0.372398,0 -0.664995,0.305897 -0.664995,0.664995 z"
         style="font-family:OCRA;-inkscape-font-specification:'OCRA, Normal'"
         id="path251" />
      <path
         d="m 100.12818,37.447224 c 0,0.372397 0.2926,0.678295 0.665,0.678295 0.37239,0 0.67829,-0.305898 0.67829,-0.678295 v -7.301645 l 3.49787,7.97994 h 1.78219 v -9.708927 c 0,-0.359098 -0.3059,-0.664995 -0.67829,-0.664995 -0.3724,0 -0.665,0.305897 -0.665,0.664995 v 7.341545 l -3.51117,-8.00654 h -1.76889 z"
         style="font-family:OCRA;-inkscape-font-specification:'OCRA, Normal'"
         id="path253" />
      <path
         d="m 109.744,37.447224 c 0,0.372397 0.2926,0.678295 0.665,0.678295 0.37239,0 0.67829,-0.305898 0.67829,-0.678295 v -3.045677 l 4.16287,3.564373 c 0.1197,0.0931 0.266,0.159599 0.4389,0.159599 0.37239,0 0.67829,-0.305898 0.67829,-0.678295 0,-0.199499 -0.0931,-0.385697 -0.2394,-0.505396 l -4.68156,-4.00327 4.68156,-4.00327 c 0.1463,-0.119699 0.2394,-0.305898 0.2394,-0.518696 0,-0.359098 -0.3059,-0.664995 -0.67829,-0.664995 -0.1729,0 -0.3192,0.0665 -0.4389,0.159599 l -4.16287,3.564373 v -3.058977 c 0,-0.359098 -0.3059,-0.664995 -0.67829,-0.664995 -0.3724,0 -0.665,0.305897 -0.665,0.664995 z"
         style="font-family:OCRA;-inkscape-font-specification:'OCRA, Normal'"
         id="path255" />
    </g>
    <g
       aria-label="high tech low life"
       id="text21772-8"
       style="font-size:6.50924px;line-height:1.25;fill:#ffffff;stroke-width:0.162732">
      <path
         d="m 32.96908,62.971614 c 0,0.182259 0.143203,0.331971 0.325462,0.331971 0.182259,0 0.331971,-0.149712 0.331971,-0.331971 V 60.94724 l 1.061006,-0.68347 h 0.462156 c 0.17575,0 0.305935,0.143203 0.318953,0.305934 l 0.08462,2.414928 c 0,0.17575 0.149713,0.318953 0.325462,0.318953 0.182259,0 0.325462,-0.149712 0.325462,-0.331971 l -0.07811,-2.421438 c -0.01953,-0.51423 -0.442628,-0.943839 -0.976386,-0.943839 h -0.371026 c -0.214805,0 -0.384046,0.06509 -0.527249,0.156221 l -0.624887,0.397064 V 58.55184 c 0,-0.17575 -0.149712,-0.325462 -0.331971,-0.325462 -0.182259,0 -0.325462,0.149712 -0.325462,0.325462 z"
         style="font-family:OCRA;-inkscape-font-specification:'OCRA, Normal'"
         id="path258" />
      <path
         d="m 37.99421,62.971614 c 0,0.182259 0.149713,0.331971 0.331972,0.331971 h 1.933244 c 0.182259,0 0.331971,-0.149712 0.331971,-0.331971 0,-0.17575 -0.149712,-0.325462 -0.331971,-0.325462 H 39.62152 v -2.707844 c 0,-0.182259 -0.149712,-0.331971 -0.325462,-0.331971 h -0.969876 c -0.182259,0 -0.331972,0.149712 -0.331972,0.331971 0,0.182259 0.149713,0.325462 0.331972,0.325462 h 0.644414 v 2.382382 h -0.644414 c -0.182259,0 -0.331972,0.149712 -0.331972,0.325462 z m 0.644415,-4.419774 c 0,0.182258 0.149713,0.331971 0.331971,0.331971 h 0.325462 c 0.17575,0 0.325462,-0.149713 0.325462,-0.331971 v -0.273388 c 0,-0.182259 -0.149712,-0.325462 -0.325462,-0.325462 h -0.325462 c -0.182258,0 -0.331971,0.143203 -0.331971,0.325462 z"
         style="font-family:OCRA;-inkscape-font-specification:'OCRA, Normal'"
         id="path260" />
      <path
         d="m 42.381435,61.845515 c 0,0.331972 0.149713,0.579323 0.338481,0.742054 0.227823,0.195277 0.455647,0.442628 0.872238,0.442628 h 0.488193 c 0.403573,0 0.657433,-0.227823 0.885257,-0.442628 v 0.917802 c 0,0.09764 -0.05207,0.195278 -0.117167,0.240842 -0.117166,0.09764 -0.240842,0.279898 -0.442628,0.279898 h -1.37345 c -0.182258,0 -0.331971,0.149712 -0.331971,0.331971 0,0.182259 0.149713,0.325462 0.331971,0.325462 h 1.37345 c 0.266879,0 0.481684,-0.09764 0.631396,-0.234333 0.273388,-0.227823 0.585832,-0.455646 0.585832,-0.94384 v -3.567063 c 0,-0.182259 -0.149713,-0.331971 -0.331971,-0.331971 -0.182259,0 -0.325462,0.149712 -0.325462,0.331971 v 0.117166 c -0.234333,-0.201786 -0.455647,-0.449137 -0.885257,-0.449137 h -0.488193 c -0.266879,0 -0.481684,0.104147 -0.631396,0.234332 -0.273388,0.227824 -0.579323,0.442629 -0.579323,0.94384 z m 0.650924,0 v -1.061006 c 0,-0.110657 0.05207,-0.182259 0.117167,-0.247351 0.130184,-0.09113 0.227823,-0.273388 0.442628,-0.273388 h 0.488193 c 0.09113,0 0.162731,0.03255 0.208296,0.07811 l 0.559794,0.481684 c 0.05858,0.05207 0.117167,0.143203 0.117167,0.240841 v 0.507721 c 0,0.104148 -0.05207,0.188768 -0.117167,0.240842 l -0.559794,0.481684 c -0.04557,0.04557 -0.117167,0.07811 -0.208296,0.07811 h -0.488193 c -0.227823,0 -0.559795,-0.292916 -0.559795,-0.527249 z"
         style="font-family:OCRA;-inkscape-font-specification:'OCRA, Normal'"
         id="path262" />
      <path
         d="m 47.087613,62.971614 c 0,0.182259 0.143203,0.331971 0.325462,0.331971 0.182259,0 0.331971,-0.149712 0.331971,-0.331971 V 60.94724 l 1.061006,-0.68347 h 0.462156 c 0.17575,0 0.305935,0.143203 0.318953,0.305934 l 0.08462,2.414928 c 0,0.17575 0.149713,0.318953 0.325462,0.318953 0.182259,0 0.325462,-0.149712 0.325462,-0.331971 l -0.07811,-2.421438 c -0.01953,-0.51423 -0.442629,-0.943839 -0.976387,-0.943839 h -0.371026 c -0.214805,0 -0.384045,0.06509 -0.527249,0.156221 l -0.624887,0.397064 V 58.55184 c 0,-0.17575 -0.149712,-0.325462 -0.331971,-0.325462 -0.182259,0 -0.325462,0.149712 -0.325462,0.325462 z"
         style="font-family:OCRA;-inkscape-font-specification:'OCRA, Normal'"
         id="path264" />
      <path
         d="m 56.499968,59.938308 c 0,0.182259 0.143203,0.325462 0.325462,0.325462 h 0.318952 v 2.063429 c 0,0.527248 0.442629,0.976386 0.969877,0.976386 h 0.650924 c 0.488193,0 0.891766,-0.384045 0.976386,-0.826673 v -0.05207 c 0,-0.182259 -0.149712,-0.331972 -0.331971,-0.331972 -0.397064,0 -0.247351,0.553286 -0.644415,0.553286 h -0.650924 c -0.16924,0 -0.312443,-0.143203 -0.312443,-0.318953 V 60.26377 h 1.28232 c 0.182259,0 0.325462,-0.143203 0.325462,-0.325462 0,-0.182259 -0.143203,-0.331971 -0.325462,-0.331971 h -1.28232 v -0.7746 c 0,-0.182259 -0.149713,-0.331971 -0.331972,-0.331971 -0.182258,0 -0.325462,0.149712 -0.325462,0.331971 v 0.7746 H 56.82543 c -0.182259,0 -0.325462,0.149712 -0.325462,0.331971 z"
         style="font-family:OCRA;-inkscape-font-specification:'OCRA, Normal'"
         id="path266" />
      <path
         d="m 61.206146,62.125413 c 0,0.331971 0.149713,0.572813 0.338481,0.742053 0.234332,0.195277 0.449137,0.436119 0.872238,0.436119 h 1.698912 c 0.182258,0 0.331971,-0.149712 0.331971,-0.331971 0,-0.17575 -0.149713,-0.325462 -0.331971,-0.325462 h -1.698912 c -0.09113,0 -0.149713,-0.03255 -0.208296,-0.07811 -0.123675,-0.110657 -0.34499,-0.214805 -0.34499,-0.442628 v -0.201787 h 2.252198 c 0.182258,0 0.331971,-0.149712 0.331971,-0.331971 v -0.807146 c 0,-0.331971 -0.156222,-0.579322 -0.34499,-0.742053 -0.227823,-0.201787 -0.455647,-0.436119 -0.872238,-0.436119 h -0.813655 c -0.266879,0 -0.481684,0.104147 -0.631396,0.234332 -0.273389,0.227824 -0.579323,0.455647 -0.579323,0.94384 z m 0.657433,-0.85922 v -0.481684 c 0,-0.110657 0.04556,-0.188768 0.110658,-0.240842 0.117166,-0.09764 0.240841,-0.279897 0.442628,-0.279897 h 0.813655 c 0.221314,0 0.559795,0.286406 0.559795,0.520739 v 0.481684 z"
         style="font-family:OCRA;-inkscape-font-specification:'OCRA, Normal'"
         id="path268" />
      <path
         d="m 65.912325,61.845515 c 0,0.331972 0.149712,0.579323 0.33848,0.742054 l 0.559795,0.481683 c 0.156222,0.136694 0.364517,0.234333 0.637906,0.234333 h 1.373449 c 0.182259,0 0.331971,-0.149712 0.331971,-0.331971 0,-0.17575 -0.149712,-0.325462 -0.331971,-0.325462 h -1.373449 c -0.09113,0 -0.162731,-0.03255 -0.208296,-0.07811 l -0.559795,-0.475175 c -0.06509,-0.05858 -0.110657,-0.136694 -0.110657,-0.247351 v -0.781109 c 0,-0.104147 0.03906,-0.195277 0.110657,-0.240841 l 0.559795,-0.481684 c 0.04556,-0.04557 0.117166,-0.07811 0.208296,-0.07811 h 1.373449 c 0.182259,0 0.331971,-0.143203 0.331971,-0.325462 0,-0.182259 -0.149712,-0.331971 -0.331971,-0.331971 h -1.373449 c -0.572814,0 -0.878748,0.442628 -1.197701,0.716016 -0.195277,0.156222 -0.33848,0.410082 -0.33848,0.742053 z"
         style="font-family:OCRA;-inkscape-font-specification:'OCRA, Normal'"
         id="path270" />
      <path
         d="m 70.618502,62.971614 c 0,0.182259 0.143203,0.331971 0.325462,0.331971 0.182258,0 0.331971,-0.149712 0.331971,-0.331971 V 60.94724 l 1.061006,-0.68347 h 0.462156 c 0.17575,0 0.305934,0.143203 0.318953,0.305934 l 0.08462,2.414928 c 0,0.17575 0.149712,0.318953 0.325462,0.318953 0.182259,0 0.325462,-0.149712 0.325462,-0.331971 l -0.07811,-2.421438 c -0.01953,-0.51423 -0.442628,-0.943839 -0.976386,-0.943839 H 72.42807 c -0.214805,0 -0.384045,0.06509 -0.527248,0.156221 l -0.624887,0.397064 V 58.55184 c 0,-0.17575 -0.149713,-0.325462 -0.331971,-0.325462 -0.182259,0 -0.325462,0.149712 -0.325462,0.325462 z"
         style="font-family:OCRA;-inkscape-font-specification:'OCRA, Normal'"
         id="path272" />
      <path
         d="m 80.349808,62.971614 c 0,0.182259 0.149712,0.331971 0.331971,0.331971 h 1.933244 c 0.182259,0 0.331972,-0.149712 0.331972,-0.331971 0,-0.17575 -0.149713,-0.325462 -0.331972,-0.325462 H 81.977118 V 58.55184 c 0,-0.17575 -0.149713,-0.325462 -0.325462,-0.325462 h -0.969877 c -0.182259,0 -0.331971,0.149712 -0.331971,0.325462 0,0.182258 0.149712,0.331971 0.331971,0.331971 h 0.637906 v 3.762341 h -0.637906 c -0.182259,0 -0.331971,0.149712 -0.331971,0.325462 z"
         style="font-family:OCRA;-inkscape-font-specification:'OCRA, Normal'"
         id="path274" />
      <path
         d="m 84.737036,62.125413 c 0,0.325462 0.143203,0.579322 0.33848,0.742053 0.234333,0.195277 0.449138,0.436119 0.872238,0.436119 h 0.813655 c 0.266879,0 0.481684,-0.09764 0.631397,-0.234333 0.273388,-0.227823 0.585831,-0.455646 0.585831,-0.943839 v -1.340904 c 0,-0.325462 -0.156221,-0.579322 -0.344989,-0.742053 -0.227824,-0.195277 -0.455647,-0.436119 -0.872239,-0.436119 h -0.813655 c -0.266878,0 -0.481683,0.104147 -0.631396,0.234332 -0.273388,0.227824 -0.579322,0.455647 -0.579322,0.94384 z m 0.657433,0 v -1.340904 c 0,-0.110657 0.04556,-0.188768 0.110657,-0.240842 0.117166,-0.09764 0.240842,-0.279897 0.442628,-0.279897 h 0.813655 c 0.221315,0 0.559795,0.286406 0.559795,0.520739 v 1.340904 c 0,0.104147 -0.05207,0.188768 -0.117166,0.240841 -0.117167,0.09764 -0.240842,0.279898 -0.442629,0.279898 h -0.813655 c -0.09113,0 -0.149712,-0.03255 -0.208295,-0.07811 -0.123676,-0.110657 -0.34499,-0.214805 -0.34499,-0.442628 z"
         style="font-family:OCRA;-inkscape-font-specification:'OCRA, Normal'"
         id="path276" />
      <path
         d="m 89.371611,59.944817 0.06509,1.939754 0.338481,1.184681 c 0.03906,0.136694 0.16924,0.234333 0.318952,0.234333 h 0.318953 c 0.123676,0 0.227824,-0.06509 0.286407,-0.162731 l 0.364517,-0.618378 0.358008,0.618378 c 0.05858,0.09764 0.162731,0.162731 0.286407,0.162731 h 0.318953 c 0.149712,0 0.279897,-0.09764 0.318953,-0.234333 l 0.331971,-1.10657 0.0716,-2.017865 v -0.01302 c 0,-0.17575 -0.156221,-0.325462 -0.331971,-0.325462 -0.175749,0 -0.318953,0.143203 -0.325462,0.318952 l -0.06509,1.894189 -0.208296,0.702998 -0.42961,-0.742053 v -0.742054 c 0,-0.175749 -0.149712,-0.325462 -0.325462,-0.325462 -0.182258,0 -0.331971,0.149713 -0.331971,0.325462 v 0.742054 l -0.42961,0.742053 -0.208296,-0.702998 -0.06509,-1.894189 c -0.0065,-0.175749 -0.149712,-0.318952 -0.325462,-0.318952 -0.182259,0 -0.331971,0.156221 -0.331971,0.33848 z"
         style="font-family:OCRA;-inkscape-font-specification:'OCRA, Normal'"
         id="path278" />
      <path
         d="m 99.174523,62.971614 c 0,0.182259 0.149712,0.331971 0.331971,0.331971 h 1.933246 c 0.18226,0 0.33197,-0.149712 0.33197,-0.331971 0,-0.17575 -0.14971,-0.325462 -0.33197,-0.325462 h -0.63791 V 58.55184 c 0,-0.17575 -0.14971,-0.325462 -0.32546,-0.325462 h -0.969876 c -0.182259,0 -0.331971,0.149712 -0.331971,0.325462 0,0.182258 0.149712,0.331971 0.331971,0.331971 h 0.637906 v 3.762341 h -0.637906 c -0.182259,0 -0.331971,0.149712 -0.331971,0.325462 z"
         style="font-family:OCRA;-inkscape-font-specification:'OCRA, Normal'"
         id="path280" />
      <path
         d="m 103.8807,62.971614 c 0,0.182259 0.14971,0.331971 0.33197,0.331971 h 1.93324 c 0.18226,0 0.33198,-0.149712 0.33198,-0.331971 0,-0.17575 -0.14972,-0.325462 -0.33198,-0.325462 h -0.6379 v -2.707844 c 0,-0.182259 -0.14971,-0.331971 -0.32546,-0.331971 h -0.96988 c -0.18226,0 -0.33197,0.149712 -0.33197,0.331971 0,0.182259 0.14971,0.325462 0.33197,0.325462 h 0.64442 v 2.382382 h -0.64442 c -0.18226,0 -0.33197,0.149712 -0.33197,0.325462 z m 0.64441,-4.419774 c 0,0.182258 0.14972,0.331971 0.33198,0.331971 h 0.32546 c 0.17575,0 0.32546,-0.149713 0.32546,-0.331971 v -0.273388 c 0,-0.182259 -0.14971,-0.325462 -0.32546,-0.325462 h -0.32546 c -0.18226,0 -0.33198,0.143203 -0.33198,0.325462 z"
         style="font-family:OCRA;-inkscape-font-specification:'OCRA, Normal'"
         id="path282" />
      <path
         d="m 108.42415,59.938308 c 0,0.182259 0.1432,0.325462 0.32546,0.325462 h 0.31895 v 2.707844 c 0,0.182259 0.14971,0.331971 0.33197,0.331971 0.18226,0 0.32546,-0.149712 0.32546,-0.331971 V 60.26377 h 0.64442 c 0.17575,0 0.32546,-0.143203 0.32546,-0.325462 0,-0.182259 -0.14971,-0.331971 -0.32546,-0.331971 h -0.64442 v -0.221315 c 0,-0.273388 0.22132,-0.501211 0.50121,-0.501211 h 0.78762 c 0.18226,0 0.32546,-0.149713 0.32546,-0.331971 0,-0.17575 -0.1432,-0.325462 -0.32546,-0.325462 h -0.78762 c -0.6379,0 -1.15864,0.51423 -1.15864,1.158644 v 0.221315 h -0.31895 c -0.18226,0 -0.32546,0.149712 -0.32546,0.331971 z"
         style="font-family:OCRA;-inkscape-font-specification:'OCRA, Normal'"
         id="path284" />
      <path
         d="m 112.9741,62.125413 c 0,0.331971 0.14971,0.572813 0.33848,0.742053 0.23433,0.195277 0.44914,0.436119 0.87224,0.436119 h 1.69891 c 0.18226,0 0.33197,-0.149712 0.33197,-0.331971 0,-0.17575 -0.14971,-0.325462 -0.33197,-0.325462 h -1.69891 c -0.0911,0 -0.14971,-0.03255 -0.2083,-0.07811 -0.12367,-0.110657 -0.34499,-0.214805 -0.34499,-0.442628 v -0.201787 h 2.2522 c 0.18226,0 0.33197,-0.149712 0.33197,-0.331971 v -0.807146 c 0,-0.331971 -0.15622,-0.579322 -0.34499,-0.742053 -0.22782,-0.201787 -0.45564,-0.436119 -0.87224,-0.436119 h -0.81365 c -0.26688,0 -0.48169,0.104147 -0.6314,0.234332 -0.27339,0.227824 -0.57932,0.455647 -0.57932,0.94384 z m 0.65743,-0.85922 v -0.481684 c 0,-0.110657 0.0456,-0.188768 0.11066,-0.240842 0.11717,-0.09764 0.24084,-0.279897 0.44263,-0.279897 h 0.81365 c 0.22132,0 0.5598,0.286406 0.5598,0.520739 v 0.481684 z"
         style="font-family:OCRA;-inkscape-font-specification:'OCRA, Normal'"
         id="path286" />
    </g>
  </g>
</svg>
