<?xml version="1.0" encoding="UTF-8" standalone="no"?>
<!-- Created with Inkscape (http://www.inkscape.org/) -->

<svg
   width="100.95114mm"
   height="28.379mm"
   viewBox="0 0 100.95114 28.379"
   version="1.1"
   id="svg5"
   inkscape:version="1.2.2 (b0a8486541, 2022-12-01)"
   sodipodi:docname="cyberpunk-slim_as-paths.svg"
   inkscape:export-filename="/home/manu/create/sticker-designs/irimi1-stickers/cyberpunk/cyberpunk-slim-2.png"
   inkscape:export-xdpi="299.92001"
   inkscape:export-ydpi="299.92001"
   xmlns:inkscape="http://www.inkscape.org/namespaces/inkscape"
   xmlns:sodipodi="http://sodipodi.sourceforge.net/DTD/sodipodi-0.dtd"
   xmlns="http://www.w3.org/2000/svg"
   xmlns:svg="http://www.w3.org/2000/svg">
  <sodipodi:namedview
     id="namedview7"
     pagecolor="#ffffff"
     bordercolor="#666666"
     borderopacity="1.0"
     inkscape:pageshadow="2"
     inkscape:pageopacity="0.0"
     inkscape:pagecheckerboard="0"
     inkscape:document-units="mm"
     showgrid="false"
     inkscape:zoom="1.0998546"
     inkscape:cx="115.92441"
     inkscape:cy="85.920448"
     inkscape:window-width="3440"
     inkscape:window-height="1440"
     inkscape:window-x="0"
     inkscape:window-y="0"
     inkscape:window-maximized="1"
     inkscape:current-layer="layer1"
     inkscape:showpageshadow="2"
     inkscape:deskcolor="#d1d1d1" />
  <defs
     id="defs2" />
  <g
     inkscape:label="Layer 1"
     inkscape:groupmode="layer"
     id="layer1"
     transform="translate(-24.116819,-18.748808)">
    <rect
       style="fill:#f5f300;fill-opacity:1;stroke-width:0.0572294;stroke-dasharray:0.0572294, 0.114458"
       id="rect78035"
       width="100.95114"
       height="28.379499"
       x="24.116819"
       y="18.748808" />
    <g
       aria-label="CYBERPUNK"
       id="text21772"
       style="font-size:13.2999px;line-height:1.25;stroke-width:0.332499">
      <path
         d="m 32.817428,29.234388 c 0,0.545295 0.132999,0.970892 0.319197,1.369889 0.425597,0.930993 0.891094,1.808787 1.35659,2.69988 0.305898,0.598495 0.970893,1.117192 1.795487,1.117192 h 2.473781 c 0.372397,0 0.678295,-0.305898 0.678295,-0.678295 0,-0.359098 -0.305898,-0.664995 -0.678295,-0.664995 h -2.473781 c -0.265998,0 -0.492097,-0.172899 -0.585196,-0.372398 l -1.36989,-2.699879 c -0.106399,-0.226099 -0.172898,-0.465497 -0.172898,-0.771394 0,-0.305898 0.0665,-0.545296 0.172898,-0.771395 l 1.36989,-2.699879 c 0.0931,-0.199499 0.319198,-0.372398 0.585196,-0.372398 h 2.473781 c 0.372397,0 0.678295,-0.305897 0.678295,-0.678294 0,-0.359098 -0.305898,-0.664995 -0.678295,-0.664995 h -2.473781 c -0.824594,0 -1.529489,0.492096 -1.808787,1.103891 l -1.34329,2.71318 c -0.186198,0.385697 -0.319197,0.824594 -0.319197,1.36989 z"
         style="font-family:OCRA;-inkscape-font-specification:'OCRA, Normal'"
         id="path292" />
      <path
         d="m 42.43325,26.082311 2.63338,3.378175 v 4.282568 c 0,0.372397 0.305897,0.678295 0.678295,0.678295 0.359097,0 0.664995,-0.305898 0.664995,-0.678295 v -4.282568 l 2.64668,-3.378175 v -1.369889 c 0,-0.359098 -0.305898,-0.664995 -0.678295,-0.664995 -0.372397,0 -0.678295,0.305897 -0.678295,0.664995 v 0.904393 l -1.955085,2.526981 -1.968386,-2.526981 v -0.904393 c 0,-0.359098 -0.305897,-0.664995 -0.678294,-0.664995 -0.372398,0 -0.664995,0.305897 -0.664995,0.664995 z"
         style="font-family:OCRA;-inkscape-font-specification:'OCRA, Normal'"
         id="path294" />
      <path
         d="m 52.049071,34.421349 h 3.936771 c 1.462989,0 2.68658,-1.236891 2.68658,-2.68658 v -0.492097 c 0,-0.784694 -0.372398,-1.516188 -0.930993,-2.008284 0.558595,-0.492097 0.930993,-1.223591 0.930993,-2.008285 v -0.492097 c 0,-1.449689 -1.223591,-2.686579 -2.68658,-2.686579 h -3.936771 z m 1.34329,-1.34329 v -3.178676 h 2.593481 c 0.718194,0 1.34329,0.625095 1.34329,1.343289 v 0.492097 c 0,0.718194 -0.625096,1.34329 -1.34329,1.34329 z m 0,-4.521966 v -3.165377 h 2.593481 c 0.718194,0 1.34329,0.625096 1.34329,1.34329 v 0.492097 c 0,0.718194 -0.625096,1.32999 -1.34329,1.32999 z"
         style="font-family:OCRA;-inkscape-font-specification:'OCRA, Normal'"
         id="path296" />
      <path
         d="m 61.664893,34.421349 h 5.945056 c 0.372397,0 0.678294,-0.305898 0.678294,-0.678295 0,-0.359098 -0.305897,-0.664995 -0.678294,-0.664995 h -4.601766 v -3.178676 h 1.968385 c 0.359098,0 0.664995,-0.292598 0.664995,-0.664995 0,-0.372398 -0.305897,-0.678295 -0.664995,-0.678295 h -1.968385 v -3.165377 h 4.601766 c 0.372397,0 0.678294,-0.305897 0.678294,-0.678294 0,-0.359098 -0.305897,-0.664995 -0.678294,-0.664995 h -5.945056 z"
         style="font-family:OCRA;-inkscape-font-specification:'OCRA, Normal'"
         id="path298" />
      <path
         d="m 71.280715,33.743054 c 0,0.372397 0.292598,0.678295 0.664995,0.678295 0.372397,0 0.678295,-0.305898 0.678295,-0.678295 v -4.960863 h 0.917693 l 3.098877,5.30666 c 0.119699,0.199499 0.332497,0.332498 0.585195,0.332498 0.372398,0 0.678295,-0.305898 0.678295,-0.678295 0,-0.119699 -0.0399,-0.226099 -0.0931,-0.332498 l -2.69988,-4.628365 h 0.771394 c 1.090592,0 2.021585,-0.930993 2.021585,-2.021585 v -0.691595 c 0,-1.103891 -0.917693,-2.021584 -2.021585,-2.021584 h -4.601765 z m 1.34329,-6.304153 v -2.048185 h 3.258475 c 0.359098,0 0.678295,0.305898 0.678295,0.678295 v 0.691595 c 0,0.359097 -0.319197,0.678295 -0.678295,0.678295 z"
         style="font-family:OCRA;-inkscape-font-specification:'OCRA, Normal'"
         id="path300" />
      <path
         d="m 80.896537,33.743054 c 0,0.372397 0.292598,0.678295 0.664995,0.678295 0.372397,0 0.678295,-0.305898 0.678295,-0.678295 v -3.271776 h 3.258475 c 1.103892,0 2.021585,-0.917693 2.021585,-2.021585 v -2.393982 c 0,-1.090591 -0.917693,-2.008284 -2.021585,-2.008284 h -4.601765 z m 1.34329,-4.615066 v -3.737272 h 3.258475 c 0.345798,0 0.678295,0.305898 0.678295,0.664995 v 2.393982 c 0,0.372398 -0.319197,0.678295 -0.678295,0.678295 z"
         style="font-family:OCRA;-inkscape-font-specification:'OCRA, Normal'"
         id="path302" />
      <path
         d="m 90.512359,32.413064 c 0,1.090591 0.904393,2.008285 2.008285,2.008285 h 2.59348 c 1.103892,0 2.021585,-0.917694 2.021585,-2.008285 v -7.700642 c 0,-0.359098 -0.305898,-0.664995 -0.678295,-0.664995 -0.372397,0 -0.664995,0.305897 -0.664995,0.664995 v 7.700642 c 0,0.359097 -0.332497,0.664995 -0.678295,0.664995 h -2.59348 c -0.359098,0 -0.664995,-0.292598 -0.664995,-0.664995 v -7.700642 c 0,-0.359098 -0.305898,-0.664995 -0.678295,-0.664995 -0.372398,0 -0.664995,0.305897 -0.664995,0.664995 z"
         style="font-family:OCRA;-inkscape-font-specification:'OCRA, Normal'"
         id="path304" />
      <path
         d="m 100.12818,33.743054 c 0,0.372397 0.2926,0.678295 0.665,0.678295 0.37239,0 0.67829,-0.305898 0.67829,-0.678295 v -7.301645 l 3.49787,7.97994 h 1.78219 v -9.708927 c 0,-0.359098 -0.3059,-0.664995 -0.67829,-0.664995 -0.3724,0 -0.665,0.305897 -0.665,0.664995 v 7.341544 l -3.51117,-8.006539 h -1.76889 z"
         style="font-family:OCRA;-inkscape-font-specification:'OCRA, Normal'"
         id="path306" />
      <path
         d="m 109.744,33.743054 c 0,0.372397 0.2926,0.678295 0.665,0.678295 0.37239,0 0.67829,-0.305898 0.67829,-0.678295 v -3.045677 l 4.16287,3.564373 c 0.1197,0.0931 0.266,0.159599 0.4389,0.159599 0.37239,0 0.67829,-0.305898 0.67829,-0.678295 0,-0.199499 -0.0931,-0.385697 -0.2394,-0.505397 l -4.68156,-4.003269 4.68156,-4.00327 c 0.1463,-0.119699 0.2394,-0.305898 0.2394,-0.518696 0,-0.359098 -0.3059,-0.664995 -0.67829,-0.664995 -0.1729,0 -0.3192,0.0665 -0.4389,0.159598 l -4.16287,3.564374 v -3.058977 c 0,-0.359098 -0.3059,-0.664995 -0.67829,-0.664995 -0.3724,0 -0.665,0.305897 -0.665,0.664995 z"
         style="font-family:OCRA;-inkscape-font-specification:'OCRA, Normal'"
         id="path308" />
    </g>
    <g
       aria-label="high tech low life"
       id="text21772-8"
       style="font-size:5.42768px;line-height:1.25;stroke-width:0.135694">
      <path
         d="m 39.88511,40.978289 c 0,0.151975 0.119409,0.276811 0.271384,0.276811 0.151975,0 0.276811,-0.124836 0.276811,-0.276811 V 39.29028 l 0.884712,-0.569906 h 0.385366 c 0.146547,0 0.255101,0.119409 0.265956,0.255101 l 0.07056,2.013669 c 0,0.146547 0.124836,0.265956 0.271384,0.265956 0.151975,0 0.271384,-0.124836 0.271384,-0.276811 l -0.06513,-2.019097 c -0.01628,-0.428787 -0.369083,-0.787014 -0.814152,-0.787014 h -0.309378 c -0.179114,0 -0.320233,0.05428 -0.439642,0.130264 l -0.521058,0.331089 v -1.340637 c 0,-0.146548 -0.124836,-0.271384 -0.276811,-0.271384 -0.151975,0 -0.271384,0.124836 -0.271384,0.271384 z"
         style="font-family:OCRA;-inkscape-font-specification:'OCRA, Normal'"
         id="path311" />
      <path
         d="m 44.075276,40.978289 c 0,0.151975 0.124837,0.276811 0.276812,0.276811 h 1.612021 c 0.151975,0 0.276812,-0.124836 0.276812,-0.276811 0,-0.146548 -0.124837,-0.271384 -0.276812,-0.271384 H 45.432196 V 38.44899 c 0,-0.151975 -0.124836,-0.276812 -0.271384,-0.276812 h -0.808724 c -0.151975,0 -0.276812,0.124837 -0.276812,0.276812 0,0.151975 0.124837,0.271384 0.276812,0.271384 h 0.53734 v 1.986531 h -0.53734 c -0.151975,0 -0.276812,0.124836 -0.276812,0.271384 z m 0.537341,-3.685395 c 0,0.151975 0.124836,0.276812 0.276811,0.276812 h 0.271384 c 0.146548,0 0.271384,-0.124837 0.271384,-0.276812 v -0.227963 c 0,-0.151975 -0.124836,-0.271384 -0.271384,-0.271384 h -0.271384 c -0.151975,0 -0.276811,0.119409 -0.276811,0.271384 z"
         style="font-family:OCRA;-inkscape-font-specification:'OCRA, Normal'"
         id="path313" />
      <path
         d="m 47.73353,40.0393 c 0,0.276812 0.124837,0.483063 0.28224,0.618755 0.189969,0.162831 0.379937,0.369083 0.727309,0.369083 h 0.407076 c 0.336516,0 0.548196,-0.189969 0.738164,-0.369083 v 0.765303 c 0,0.08142 -0.04342,0.162831 -0.0977,0.200824 -0.0977,0.08142 -0.200824,0.233391 -0.369082,0.233391 h -1.145241 c -0.151975,0 -0.276811,0.124836 -0.276811,0.276811 0,0.151975 0.124836,0.271384 0.276811,0.271384 h 1.145241 c 0.222535,0 0.401648,-0.08141 0.526485,-0.195396 0.227962,-0.189969 0.488491,-0.379938 0.488491,-0.787014 V 38.44899 c 0,-0.151975 -0.124837,-0.276812 -0.276812,-0.276812 -0.151975,0 -0.271384,0.124837 -0.271384,0.276812 v 0.0977 c -0.195396,-0.168258 -0.379937,-0.37451 -0.738164,-0.37451 h -0.407076 c -0.222535,0 -0.401648,0.08684 -0.526485,0.195396 -0.227963,0.189969 -0.483064,0.369083 -0.483064,0.787014 z m 0.542768,0 v -0.884712 c 0,-0.09227 0.04342,-0.151975 0.0977,-0.206252 0.108553,-0.07599 0.189968,-0.227962 0.369082,-0.227962 h 0.407076 c 0.07599,0 0.135692,0.02714 0.173686,0.06513 l 0.46678,0.401648 c 0.04885,0.04342 0.0977,0.119409 0.0977,0.200824 v 0.423359 c 0,0.08684 -0.04342,0.157403 -0.0977,0.200825 l -0.46678,0.401648 c -0.03799,0.03799 -0.0977,0.06513 -0.173686,0.06513 h -0.407076 c -0.189969,0 -0.466781,-0.244246 -0.466781,-0.439642 z"
         style="font-family:OCRA;-inkscape-font-specification:'OCRA, Normal'"
         id="path315" />
      <path
         d="m 51.65774,40.978289 c 0,0.151975 0.119409,0.276811 0.271384,0.276811 0.151975,0 0.276812,-0.124836 0.276812,-0.276811 V 39.29028 l 0.884712,-0.569906 h 0.385365 c 0.146548,0 0.255101,0.119409 0.265957,0.255101 l 0.07056,2.013669 c 0,0.146547 0.124837,0.265956 0.271384,0.265956 0.151975,0 0.271384,-0.124836 0.271384,-0.276811 l -0.06513,-2.019097 c -0.01628,-0.428787 -0.369082,-0.787014 -0.814152,-0.787014 h -0.309378 c -0.179113,0 -0.320233,0.05428 -0.439642,0.130264 l -0.521057,0.331089 v -1.340637 c 0,-0.146548 -0.124837,-0.271384 -0.276812,-0.271384 -0.151975,0 -0.271384,0.124836 -0.271384,0.271384 z"
         style="font-family:OCRA;-inkscape-font-specification:'OCRA, Normal'"
         id="path317" />
      <path
         d="m 59.506162,38.44899 c 0,0.151975 0.119409,0.271384 0.271384,0.271384 h 0.265956 v 1.720574 c 0,0.439642 0.369082,0.814152 0.808724,0.814152 h 0.542768 c 0.407076,0 0.743592,-0.320233 0.814152,-0.689315 v -0.04342 c 0,-0.151975 -0.124836,-0.276811 -0.276811,-0.276811 -0.331089,0 -0.206252,0.461353 -0.537341,0.461353 h -0.542768 c -0.141119,0 -0.260528,-0.119409 -0.260528,-0.265957 v -1.720574 h 1.069253 c 0.151975,0 0.271384,-0.119409 0.271384,-0.271384 0,-0.151975 -0.119409,-0.276812 -0.271384,-0.276812 h -1.069253 v -0.645894 c 0,-0.151975 -0.124837,-0.276812 -0.276812,-0.276812 -0.151975,0 -0.271384,0.124837 -0.271384,0.276812 v 0.645894 h -0.265956 c -0.151975,0 -0.271384,0.124837 -0.271384,0.276812 z"
         style="font-family:OCRA;-inkscape-font-specification:'OCRA, Normal'"
         id="path319" />
      <path
         d="m 63.430371,40.27269 c 0,0.276812 0.124837,0.477636 0.28224,0.618756 0.195396,0.16283 0.374509,0.363654 0.727309,0.363654 h 1.416624 c 0.151975,0 0.276812,-0.124836 0.276812,-0.276811 0,-0.146548 -0.124837,-0.271384 -0.276812,-0.271384 H 64.43992 c -0.07599,0 -0.124837,-0.02714 -0.173686,-0.06513 -0.103126,-0.09227 -0.287667,-0.179113 -0.287667,-0.369082 v -0.168258 h 1.877977 c 0.151975,0 0.276812,-0.124837 0.276812,-0.276812 v -0.673032 c 0,-0.276812 -0.130265,-0.483063 -0.287667,-0.618755 -0.189969,-0.168259 -0.379938,-0.363655 -0.727309,-0.363655 h -0.67846 c -0.222535,0 -0.401649,0.08684 -0.526485,0.195396 -0.227963,0.189969 -0.483064,0.379938 -0.483064,0.787014 z m 0.548196,-0.716454 v -0.401648 c 0,-0.09227 0.03799,-0.157403 0.09227,-0.200824 0.0977,-0.08141 0.200825,-0.23339 0.369083,-0.23339 h 0.67846 c 0.184541,0 0.46678,0.238818 0.46678,0.434214 v 0.401648 z"
         style="font-family:OCRA;-inkscape-font-specification:'OCRA, Normal'"
         id="path321" />
      <path
         d="m 67.354583,40.0393 c 0,0.276812 0.124836,0.483063 0.282239,0.618755 l 0.46678,0.401649 c 0.130265,0.113981 0.303951,0.195396 0.531913,0.195396 h 1.145241 c 0.151975,0 0.276811,-0.124836 0.276811,-0.276811 0,-0.146548 -0.124836,-0.271384 -0.276811,-0.271384 h -1.145241 c -0.07599,0 -0.135692,-0.02714 -0.173686,-0.06513 l -0.46678,-0.39622 c -0.05428,-0.04885 -0.09227,-0.113982 -0.09227,-0.206252 v -0.651322 c 0,-0.08684 0.03257,-0.16283 0.09227,-0.200824 l 0.46678,-0.401648 c 0.03799,-0.03799 0.0977,-0.06513 0.173686,-0.06513 h 1.145241 c 0.151975,0 0.276811,-0.119409 0.276811,-0.271384 0,-0.151975 -0.124836,-0.276812 -0.276811,-0.276812 h -1.145241 c -0.477636,0 -0.732737,0.369082 -0.998693,0.597045 -0.16283,0.130264 -0.282239,0.341944 -0.282239,0.618755 z"
         style="font-family:OCRA;-inkscape-font-specification:'OCRA, Normal'"
         id="path323" />
      <path
         d="m 71.278792,40.978289 c 0,0.151975 0.119409,0.276811 0.271384,0.276811 0.151975,0 0.276812,-0.124836 0.276812,-0.276811 V 39.29028 L 72.7117,38.720374 h 0.385365 c 0.146547,0 0.255101,0.119409 0.265956,0.255101 l 0.07056,2.013669 c 0,0.146547 0.124837,0.265956 0.271384,0.265956 0.151975,0 0.271384,-0.124836 0.271384,-0.276811 l -0.06513,-2.019097 c -0.01628,-0.428787 -0.369082,-0.787014 -0.814152,-0.787014 h -0.309378 c -0.179113,0 -0.320233,0.05428 -0.439642,0.130264 l -0.521057,0.331089 v -1.340637 c 0,-0.146548 -0.124837,-0.271384 -0.276812,-0.271384 -0.151975,0 -0.271384,0.124836 -0.271384,0.271384 z"
         style="font-family:OCRA;-inkscape-font-specification:'OCRA, Normal'"
         id="path325" />
      <path
         d="m 79.39317,40.978289 c 0,0.151975 0.124836,0.276811 0.276811,0.276811 h 1.612021 c 0.151975,0 0.276812,-0.124836 0.276812,-0.276811 0,-0.146548 -0.124837,-0.271384 -0.276812,-0.271384 H 80.75009 v -3.414011 c 0,-0.146548 -0.124837,-0.271384 -0.271384,-0.271384 h -0.808725 c -0.151975,0 -0.276811,0.124836 -0.276811,0.271384 0,0.151975 0.124836,0.276812 0.276811,0.276812 h 0.531913 v 3.137199 h -0.531913 c -0.151975,0 -0.276811,0.124836 -0.276811,0.271384 z"
         style="font-family:OCRA;-inkscape-font-specification:'OCRA, Normal'"
         id="path327" />
      <path
         d="m 83.051423,40.27269 c 0,0.271384 0.119409,0.483064 0.282239,0.618756 0.195397,0.16283 0.37451,0.363654 0.727309,0.363654 h 0.67846 c 0.222535,0 0.401649,-0.08141 0.526485,-0.195396 0.227963,-0.189969 0.488492,-0.379938 0.488492,-0.787014 v -1.118102 c 0,-0.271384 -0.130265,-0.483063 -0.287667,-0.618755 -0.189969,-0.162831 -0.379938,-0.363655 -0.72731,-0.363655 h -0.67846 c -0.222534,0 -0.401648,0.08684 -0.526485,0.195396 -0.227962,0.189969 -0.483063,0.379938 -0.483063,0.787014 z m 0.548196,0 v -1.118102 c 0,-0.09227 0.03799,-0.157403 0.09227,-0.200824 0.0977,-0.08141 0.200824,-0.23339 0.369082,-0.23339 h 0.67846 c 0.184542,0 0.466781,0.238818 0.466781,0.434214 v 1.118102 c 0,0.08684 -0.04342,0.157403 -0.0977,0.200824 -0.0977,0.08142 -0.200825,0.233391 -0.369083,0.233391 h -0.67846 c -0.07599,0 -0.124836,-0.02714 -0.173685,-0.06513 -0.103126,-0.09227 -0.287667,-0.179113 -0.287667,-0.369082 z"
         style="font-family:OCRA;-inkscape-font-specification:'OCRA, Normal'"
         id="path329" />
      <path
         d="m 86.915928,38.454417 0.05428,1.617449 0.282239,0.987838 c 0.03257,0.113981 0.14112,0.195396 0.265957,0.195396 h 0.265956 c 0.103126,0 0.189969,-0.05428 0.238818,-0.135692 l 0.30395,-0.515629 0.298522,0.515629 c 0.04885,0.08141 0.135692,0.135692 0.238818,0.135692 h 0.265956 c 0.124837,0 0.233391,-0.08141 0.265957,-0.195396 l 0.276811,-0.922706 0.05971,-1.682581 v -0.01085 c 0,-0.146547 -0.130264,-0.271384 -0.276812,-0.271384 -0.146547,0 -0.265956,0.119409 -0.271384,0.265956 l -0.05428,1.579455 -0.173685,0.58619 -0.358227,-0.618756 v -0.618755 c 0,-0.146548 -0.124837,-0.271384 -0.271384,-0.271384 -0.151975,0 -0.276812,0.124836 -0.276812,0.271384 v 0.618755 l -0.358227,0.618756 -0.173685,-0.58619 -0.05428,-1.579455 c -0.0054,-0.146547 -0.124837,-0.265956 -0.271384,-0.265956 -0.151975,0 -0.276812,0.130264 -0.276812,0.282239 z"
         style="font-family:OCRA;-inkscape-font-specification:'OCRA, Normal'"
         id="path331" />
      <path
         d="m 95.090012,40.978289 c 0,0.151975 0.124836,0.276811 0.276812,0.276811 h 1.61202 c 0.151976,0 0.276812,-0.124836 0.276812,-0.276811 0,-0.146548 -0.124836,-0.271384 -0.276812,-0.271384 h -0.531912 v -3.414011 c 0,-0.146548 -0.124837,-0.271384 -0.271384,-0.271384 h -0.808724 c -0.151976,0 -0.276812,0.124836 -0.276812,0.271384 0,0.151975 0.124836,0.276812 0.276812,0.276812 h 0.531912 v 3.137199 h -0.531912 c -0.151976,0 -0.276812,0.124836 -0.276812,0.271384 z"
         style="font-family:OCRA;-inkscape-font-specification:'OCRA, Normal'"
         id="path333" />
      <path
         d="m 99.014221,40.978289 c 0,0.151975 0.124837,0.276811 0.276812,0.276811 h 1.612017 c 0.15198,0 0.27682,-0.124836 0.27682,-0.276811 0,-0.146548 -0.12484,-0.271384 -0.27682,-0.271384 h -0.53191 V 38.44899 c 0,-0.151975 -0.12484,-0.276812 -0.27138,-0.276812 h -0.808727 c -0.151975,0 -0.276812,0.124837 -0.276812,0.276812 0,0.151975 0.124837,0.271384 0.276812,0.271384 h 0.53734 v 1.986531 h -0.53734 c -0.151975,0 -0.276812,0.124836 -0.276812,0.271384 z m 0.537341,-3.685395 c 0,0.151975 0.124836,0.276812 0.276811,0.276812 h 0.271387 c 0.14654,0 0.27138,-0.124837 0.27138,-0.276812 v -0.227963 c 0,-0.151975 -0.12484,-0.271384 -0.27138,-0.271384 h -0.271387 c -0.151975,0 -0.276811,0.119409 -0.276811,0.271384 z"
         style="font-family:OCRA;-inkscape-font-specification:'OCRA, Normal'"
         id="path335" />
      <path
         d="m 102.80274,38.44899 c 0,0.151975 0.11941,0.271384 0.27138,0.271384 h 0.26596 v 2.257915 c 0,0.151975 0.12484,0.276811 0.27681,0.276811 0.15198,0 0.27139,-0.124836 0.27139,-0.276811 v -2.257915 h 0.53734 c 0.14654,0 0.27138,-0.119409 0.27138,-0.271384 0,-0.151975 -0.12484,-0.276812 -0.27138,-0.276812 h -0.53734 v -0.184541 c 0,-0.227963 0.18454,-0.417931 0.41793,-0.417931 h 0.65675 c 0.15197,0 0.27138,-0.124837 0.27138,-0.276812 0,-0.146548 -0.11941,-0.271384 -0.27138,-0.271384 h -0.65675 c -0.53192,0 -0.96613,0.428787 -0.96613,0.966127 v 0.184541 h -0.26596 c -0.15197,0 -0.27138,0.124837 -0.27138,0.276812 z"
         style="font-family:OCRA;-inkscape-font-specification:'OCRA, Normal'"
         id="path337" />
      <path
         d="m 106.59669,40.27269 c 0,0.276812 0.12483,0.477636 0.28224,0.618756 0.19539,0.16283 0.37451,0.363654 0.72731,0.363654 h 1.41662 c 0.15198,0 0.27681,-0.124836 0.27681,-0.276811 0,-0.146548 -0.12483,-0.271384 -0.27681,-0.271384 h -1.41662 c -0.076,0 -0.12484,-0.02714 -0.17369,-0.06513 -0.10313,-0.09227 -0.28767,-0.179113 -0.28767,-0.369082 v -0.168258 h 1.87798 c 0.15198,0 0.27681,-0.124837 0.27681,-0.276812 v -0.673032 c 0,-0.276812 -0.13026,-0.483063 -0.28766,-0.618755 -0.18997,-0.168259 -0.37994,-0.363655 -0.72731,-0.363655 h -0.67846 c -0.22254,0 -0.40165,0.08684 -0.52649,0.195396 -0.22796,0.189969 -0.48306,0.379938 -0.48306,0.787014 z m 0.54819,-0.716454 v -0.401648 c 0,-0.09227 0.038,-0.157403 0.0923,-0.200824 0.0977,-0.08141 0.20083,-0.23339 0.36909,-0.23339 h 0.67846 c 0.18454,0 0.46678,0.238818 0.46678,0.434214 v 0.401648 z"
         style="font-family:OCRA;-inkscape-font-specification:'OCRA, Normal'"
         id="path339" />
    </g>
  </g>
</svg>
