<?xml version="1.0" encoding="UTF-8" standalone="no"?>
<svg
   xmlns:dc="http://purl.org/dc/elements/1.1/"
   xmlns:cc="http://creativecommons.org/ns#"
   xmlns:rdf="http://www.w3.org/1999/02/22-rdf-syntax-ns#"
   xmlns:svg="http://www.w3.org/2000/svg"
   xmlns="http://www.w3.org/2000/svg"
   xmlns:xlink="http://www.w3.org/1999/xlink"
   xmlns:sodipodi="http://sodipodi.sourceforge.net/DTD/sodipodi-0.dtd"
   xmlns:inkscape="http://www.inkscape.org/namespaces/inkscape"
   width="56mm"
   height="56mm"
   viewBox="0 0 55.999998 56.000001"
   version="1.1"
   id="svg841"
   inkscape:version="1.0.1 (3bc2e813f5, 2020-09-07)"
   sodipodi:docname="heartphones_a8-square.svg">
  <defs
     id="defs835">
    <linearGradient
       inkscape:collect="always"
       id="linearGradient1691">
      <stop
         style="stop-color:#aa0000;stop-opacity:1;"
         offset="0"
         id="stop1687" />
      <stop
         style="stop-color:#aa0000;stop-opacity:0;"
         offset="1"
         id="stop1689" />
    </linearGradient>
    <radialGradient
       inkscape:collect="always"
       xlink:href="#linearGradient1691"
       id="radialGradient1693"
       cx="28"
       cy="28"
       fx="28"
       fy="28"
       r="28"
       gradientUnits="userSpaceOnUse" />
  </defs>
  <sodipodi:namedview
     id="base"
     pagecolor="#ffffff"
     bordercolor="#666666"
     borderopacity="1.0"
     inkscape:pageopacity="0.0"
     inkscape:pageshadow="2"
     inkscape:zoom="1.979899"
     inkscape:cx="132.68146"
     inkscape:cy="94.574985"
     inkscape:document-units="mm"
     inkscape:current-layer="layer1"
     inkscape:document-rotation="0"
     showgrid="false"
     units="mm"
     inkscape:window-width="1716"
     inkscape:window-height="1391"
     inkscape:window-x="0"
     inkscape:window-y="0"
     inkscape:window-maximized="1" />
  <metadata
     id="metadata838">
    <rdf:RDF>
      <cc:Work
         rdf:about="">
        <dc:format>image/svg+xml</dc:format>
        <dc:type
           rdf:resource="http://purl.org/dc/dcmitype/StillImage" />
        <dc:title></dc:title>
      </cc:Work>
    </rdf:RDF>
  </metadata>
  <g
     inkscape:label="Layer 1"
     inkscape:groupmode="layer"
     id="layer1">
    <rect
       style="color:#000000;overflow:visible;opacity:0.15645492;mix-blend-mode:color-burn;fill:url(#radialGradient1693);fill-opacity:1;fill-rule:nonzero;stroke:none;stroke-width:0.282708;stroke-linejoin:round;paint-order:markers stroke fill;stop-color:#000000"
       id="rect1461"
       width="56"
       height="56"
       x="0"
       y="0" />
    <rect
       style="color:#000000;overflow:visible;fill:none;stroke:#ff00ff;stroke-width:0.336;stroke-linejoin:round;paint-order:markers stroke fill;stop-color:#000000;opacity:0"
       id="rect1404"
       width="44"
       height="44"
       x="6"
       y="6" />
    <g
       id="g1429"
       transform="matrix(1.0550331,0,0,1.0550331,-63.243612,-58.783923)">
      <g
         transform="matrix(1.0330957,0,0,1.0330957,-0.8615747,-8.2984819)"
         id="text3715"
         style="font-style:normal;font-weight:normal;font-size:10.5833px;line-height:1.25;font-family:sans-serif;letter-spacing:0px;word-spacing:0px;fill:#d40000;fill-opacity:1;stroke:none;stroke-width:0.264583"
         aria-label="♥">
        <path
           inkscape:connector-curvature="0"
           id="path3815"
           style="fill:#d40000;stroke-width:0.881813"
           d="m 78.230786,77.386967 q 3.496251,0 5.494106,4.047382 0.723362,1.601732 0.75781,2.445656 h 0.05166 q 0.6028,-2.790114 2.187307,-4.632963 1.860075,-1.860075 4.185168,-1.860075 3.599585,0 5.769672,3.857931 0.551134,1.429503 0.551134,2.686775 0,4.305724 -3.582365,8.215324 L 84.534367,103.08355 H 84.431011 L 74.751735,91.216962 q -2.893448,-3.530696 -2.893448,-7.285289 0,-3.634034 3.427358,-5.769675 1.446724,-0.775031 2.945117,-0.775031 z" />
      </g>
      <path
         style="stroke:#000000;stroke-width:0.216665px"
         inkscape:connector-curvature="0"
         id="path2992"
         d="m 69.942941,85.223582 h 2.645833 V 73.840384 c 0,-1.672783 2.987146,-3.66117 5.291667,-4.30132 6.518539,-1.810625 10.679377,-1.810625 17.197916,0 2.304627,0.64015 5.291663,2.628555 5.291663,4.30132 v 11.383198 h 2.64584 V 73.840384 c 0,-2.132296 -2.48804,-4.316579 -5.291669,-5.322757 -7.77584,-2.790722 -14.713744,-2.790722 -22.489583,0 -2.803525,1.006178 -5.291667,3.190461 -5.291667,5.322757 z"
         sodipodi:nodetypes="ccsccsccsccsc" />
      <path
         inkscape:connector-curvature="0"
         id="path2994"
         style="color:#000000;stroke-width:0.173719"
         d="m 103.41273,73.025879 c 2.03359,1.227109 3.40179,3.522069 3.40179,6.14885 0,2.626958 -1.36822,4.916276 -3.40179,6.143349 z" />
      <path
         inkscape:connector-curvature="0"
         id="path2994-4"
         style="color:#000000;stroke-width:0.173719"
         d="m 69.555515,85.318078 c -2.03359,-1.227109 -3.40179,-3.522069 -3.40179,-6.14885 0,-2.626958 1.36822,-4.916276 3.40179,-6.143349 z" />
    </g>
  </g>
</svg>
